<svg width="25" height="30" viewBox="0 0 25 30" fill="none" xmlns="http://www.w3.org/2000/svg">
<path d="M6.50273 29.2847C5.91493 28.8932 5.39398 28.4096 4.95989 27.8523C4.48239 27.277 4.03998 26.6735 3.63506 26.0449C2.68483 24.6515 1.93964 23.1286 1.42235 21.5229C0.800928 19.6577 0.5 17.87 0.5 16.1214C0.5 14.1686 0.922045 12.4639 1.7475 11.0314C2.3594 9.91181 3.25905 8.97619 4.35337 8.32136C5.4139 7.662 6.63245 7.30117 7.88066 7.27687C8.31761 7.27687 8.78811 7.34029 9.28748 7.46152C9.64617 7.56318 10.0831 7.72358 10.617 7.92315C11.2962 8.1852 11.6697 8.3456 11.7965 8.38477C12.1943 8.53025 12.5287 8.59367 12.7915 8.59367C12.9909 8.59367 13.2722 8.53025 13.5918 8.43327C13.7716 8.36985 14.1107 8.25794 14.5961 8.04998C15.0769 7.87465 15.4551 7.72451 15.756 7.6126C16.2172 7.47645 16.6635 7.35055 17.0613 7.28713C17.5329 7.21271 18.0115 7.19299 18.4877 7.22838C19.3128 7.28236 20.1255 7.45738 20.8998 7.74782C22.1659 8.25794 23.1898 9.05436 23.9519 10.1865C23.6298 10.3852 23.3275 10.6145 23.0491 10.871C22.4432 11.4087 21.927 12.04 21.5203 12.7408C20.9886 13.6986 20.7129 14.7776 20.72 15.8733C20.7395 17.219 21.0842 18.4043 21.7634 19.4292C22.2628 20.1888 22.9117 20.8384 23.6705 21.3382C24.059 21.6003 24.3935 21.7803 24.714 21.9015C24.564 22.3678 24.4038 22.8192 24.2146 23.2668C23.7857 24.2706 23.2658 25.233 22.6616 26.1419C22.123 26.9243 21.701 27.5072 21.3805 27.8951C20.8811 28.4873 20.4004 28.9396 19.915 29.2548C19.3812 29.6092 18.7504 29.7985 18.1094 29.7985C17.6753 29.8152 17.2413 29.7626 16.8237 29.6428C16.465 29.5216 16.1101 29.3901 15.7607 29.2399C15.3975 29.0729 15.023 28.9318 14.6399 28.8175C13.6931 28.574 12.7003 28.5724 11.7527 28.8128C11.3642 28.9247 10.9906 29.0553 10.6216 29.2157C10.1027 29.4339 9.75797 29.5803 9.55859 29.6428C9.16077 29.7594 8.74804 29.8321 8.33066 29.8564C7.68501 29.8564 7.08316 29.6717 6.48689 29.2977L6.50273 29.2847ZM15.0182 6.32938C14.1741 6.75183 13.3682 6.93182 12.5679 6.87307C12.4421 6.06639 12.5679 5.24107 12.9023 4.3374C13.1871 3.57182 13.6078 2.86411 14.1443 2.24844C14.7107 1.60032 15.3981 1.06908 16.1678 0.684509C16.9877 0.262053 17.7694 0.0335727 18.5166 0C18.6135 0.844912 18.5166 1.67584 18.2063 2.5739C17.9192 3.36779 17.4992 4.10699 16.9644 4.75986C16.4185 5.40886 15.7486 5.94216 14.9939 6.32845L15.0182 6.32938Z" fill="black"/>
</svg>
