<svg width="27" height="26" viewBox="0 0 27 26" fill="none" xmlns="http://www.w3.org/2000/svg">
<path d="M6.92014 15.4656L6.09739 18.537L3.09026 18.6006C2.19158 16.9338 1.68182 15.0266 1.68182 13C1.68182 11.0403 2.15843 9.1922 3.00324 7.56494H3.00389L5.68108 8.05576L6.85385 10.7169C6.60839 11.4325 6.4746 12.2007 6.4746 13C6.4747 13.8675 6.63184 14.6987 6.92014 15.4656Z" fill="#E2F0FD"/>
<path d="M25.1117 10.7922C25.2474 11.5071 25.3182 12.2455 25.3182 13C25.3182 13.8461 25.2292 14.6715 25.0598 15.4676C24.4845 18.1767 22.9812 20.5422 20.8987 22.2163L20.8981 22.2156L17.526 22.0436L17.0488 19.0643C18.4306 18.2539 19.5105 16.9857 20.0793 15.4676H13.7598V10.7922H20.1715H25.1117Z" fill="#518EF8"/>
<path d="M20.8981 22.2158L20.8987 22.2164C18.8734 23.8444 16.3007 24.8184 13.5 24.8184C8.99938 24.8184 5.0864 22.3028 3.09029 18.6009L6.92016 15.4658C7.9182 18.1294 10.4877 20.0256 13.5 20.0256C14.7948 20.0256 16.0078 19.6755 17.0487 19.0645L20.8981 22.2158Z" fill="#28B446"/>
<path d="M21.0436 3.90265L17.215 7.03706C16.1377 6.3637 14.8643 5.97471 13.5001 5.97471C10.4195 5.97471 7.80199 7.95781 6.85395 10.7169L3.00394 7.565H3.0033C4.97019 3.77279 8.93252 1.18188 13.5001 1.18188C16.3676 1.18188 18.9968 2.20333 21.0436 3.90265Z" fill="#F14336"/>
</svg>
