<svg width="71" height="70" viewBox="0 0 71 70" fill="none" xmlns="http://www.w3.org/2000/svg">
<path fill-rule="evenodd" clip-rule="evenodd" d="M35.2075 1.09375C21.9414 1.09375 11.145 12.1056 11.145 25.7031C11.145 29.7423 13.1968 34.6587 16.197 39.515C22.7606 50.143 33.6937 60.6408 33.6937 60.6408C34.5392 61.4534 35.8758 61.4534 36.7212 60.6408C36.7212 60.6408 47.6544 50.143 54.2179 39.515C57.2181 34.6587 59.27 29.7423 59.27 25.7031C59.27 12.1056 48.4736 1.09375 35.2075 1.09375ZM35.2075 16.4062C40.0364 16.4062 43.9575 20.3273 43.9575 25.1562C43.9575 29.9852 40.0364 33.9062 35.2075 33.9062C30.3786 33.9062 26.4575 29.9852 26.4575 25.1562C26.4575 22.7423 27.4375 20.5548 29.0223 18.9711C30.6061 17.3862 32.7936 16.4062 35.2075 16.4062Z" fill="#FF5733"/>
<path fill-rule="evenodd" clip-rule="evenodd" d="M64.5652 59.1281C64.4723 59.2288 63.1922 60.1246 62.4649 60.4611C57.3571 62.8238 47.0576 64.5312 35.2073 64.5312C23.357 64.5312 13.0575 62.8238 7.9497 60.4611C7.22244 60.1246 6.61639 59.7822 6.1576 59.422C6.05565 59.3414 5.94237 59.2288 5.84948 59.1281C6.10889 58.9362 6.55408 58.6269 6.96756 58.4385C9.32267 57.3626 13.2592 56.5439 18.1903 55.8199C19.3854 55.6445 20.2135 54.5331 20.0379 53.3387C19.8623 52.1444 18.751 51.3161 17.5559 51.4915C11.0819 52.4406 6.16553 53.6752 3.78437 55.1907C2.02965 56.3069 1.30125 57.6896 1.30125 59.0618C1.30125 60.0002 1.63883 60.9623 2.41707 61.8771C3.15793 62.748 4.39609 63.6378 6.11342 64.4317C11.5679 66.9555 22.5493 68.9058 35.2073 68.9058C47.8653 68.9058 58.8468 66.9555 64.3012 64.4317C66.0186 63.6378 67.2567 62.748 67.9976 61.8771C68.7758 60.9623 69.1134 60.0002 69.1134 59.0618C69.1134 57.6956 68.3929 56.3223 66.6575 55.2097C64.3092 53.7049 59.4607 52.4749 53.0626 51.5211C51.8687 51.3434 50.754 52.168 50.5761 53.3624C50.3983 54.5568 51.223 55.6706 52.4169 55.8483C57.2824 56.5735 61.1611 57.3875 63.4788 58.4563C63.8787 58.6399 64.3103 58.9397 64.5652 59.1281Z" fill="#FF5733"/>
</svg>
