<svg width="310" height="284" viewBox="0 0 310 284" fill="none" xmlns="http://www.w3.org/2000/svg">
<g clip-path="url(#clip0_11_157)">
<path d="M36.9342 266.101C37.522 263.777 35.9884 261.453 34.2724 259.777C32.5564 258.102 30.5026 256.609 29.6041 254.372C28.1448 250.772 30.05 246.083 27.5773 243.09C26.1248 241.327 23.5238 240.746 22.2402 238.861C21.643 237.817 21.2444 236.672 21.0647 235.483C19.6653 229.499 16.6833 224.002 12.4306 219.566C12.1781 224.909 13.3657 230.222 15.8694 234.949C16.876 236.841 18.1056 238.678 18.4501 240.786C19.0041 244.218 17.099 247.758 17.9705 251.123C18.9568 254.974 23.3009 257.527 23.5306 261.493C23.7197 264.871 20.8282 267.803 21.0512 271.154C21.2305 272.586 21.7494 273.955 22.5645 275.147C25.1858 279.443 29.0096 282.389 34.7791 282.261L41.8525 282.47L36.9342 266.101Z" fill="#F5F5F5"/>
<path d="M43.2847 282.619C43.9314 282.715 44.5901 282.697 45.2304 282.565C46.0135 282.445 46.7829 282.248 47.5274 281.977C48.5514 281.612 49.508 281.08 50.3581 280.403C50.864 279.984 51.2604 279.448 51.5134 278.842C51.7238 278.157 51.8308 277.444 51.8309 276.728C51.8403 275.962 51.8922 275.197 51.9863 274.437C52.1203 273.631 52.4094 272.857 52.8376 272.161C53.6618 270.688 55.04 269.296 55.4723 267.303C55.9047 265.31 55.5872 263.25 55.2494 261.108C54.9116 258.966 54.5738 256.683 55.3778 254.467C56.1817 252.251 57.6612 250.245 58.4179 247.745C59.1746 245.245 58.803 242.523 58.9516 239.847C58.994 238.491 59.2992 237.156 59.8502 235.915C60.4176 234.659 61.2013 233.476 61.8161 232.159C63.0524 229.457 63.2551 226.464 63.5862 223.505C63.7438 222.014 63.9037 220.507 64.0658 218.985C64.1635 217.454 64.4194 215.937 64.8292 214.459C65.2955 212.965 65.8505 211.501 66.4912 210.074C66.8247 209.335 67.0959 208.569 67.3019 207.784C67.4166 206.978 67.4887 206.166 67.5181 205.352C67.5844 203.716 67.512 202.077 67.3019 200.454C67.0992 198.826 66.7952 197.211 66.6263 195.576C66.6263 195.475 66.6263 195.38 66.6263 195.292L66.5858 194.968L66.2953 195.117C64.8006 195.888 63.5037 196.993 62.5052 198.346C61.5367 199.672 60.759 201.127 60.1947 202.67C59.0327 205.717 58.6206 208.899 58.0463 211.945C57.4721 214.992 56.6952 217.978 55.1886 220.512C54.4184 221.775 53.4929 222.931 52.6754 224.16C51.805 225.366 51.2142 226.751 50.9459 228.214C50.5405 231.206 52.2093 233.828 51.8782 236.476C51.7213 237.778 51.2883 239.031 50.6081 240.151C49.9731 241.286 49.2569 242.34 48.5138 243.394C47.7888 244.427 47.1601 245.523 46.6357 246.671C46.1436 247.793 45.8554 248.994 45.7844 250.218C45.629 252.602 45.9803 254.866 45.8182 256.973C45.6322 259.008 45.0493 260.987 44.1022 262.797C43.2577 264.54 42.3186 266.114 41.5282 267.648C41.136 268.381 40.782 269.134 40.4675 269.904C40.1892 270.629 39.9855 271.381 39.8595 272.147C39.6655 273.491 39.6655 274.856 39.8595 276.201C40.0497 278.066 40.7511 279.843 41.8863 281.335C42.0571 281.558 42.2495 281.764 42.4605 281.95C42.6006 282.098 42.757 282.229 42.9267 282.342C43.1902 282.538 43.332 282.626 43.332 282.626C42.8363 282.223 42.3835 281.77 41.9809 281.274C40.8839 279.781 40.2116 278.018 40.0352 276.174C39.8667 274.851 39.8895 273.511 40.1027 272.194C40.2265 271.444 40.4327 270.71 40.7175 270.006C41.032 269.244 41.386 268.5 41.7782 267.776C42.5754 266.263 43.5279 264.689 44.3927 262.932C45.368 261.093 45.9696 259.08 46.1627 257.007C46.3384 254.825 45.9938 252.562 46.1627 250.251C46.2061 249.056 46.4623 247.878 46.9194 246.772C47.4422 245.649 48.064 244.575 48.7773 243.563C49.4866 242.516 50.2433 241.462 50.8986 240.3C51.6171 239.137 52.0779 237.833 52.2498 236.476C52.5741 233.652 50.8986 231.017 51.331 228.234C51.5946 226.837 52.167 225.517 53.0064 224.37C53.8036 223.16 54.7427 222.005 55.5331 220.708C57.1208 218.1 57.8842 215.053 58.4517 212C59.0192 208.946 59.4448 205.784 60.5865 202.805C61.1366 201.302 61.8962 199.885 62.843 198.596C63.7948 197.294 65.037 196.232 66.4709 195.495L66.1466 195.312C66.1466 195.407 66.1466 195.502 66.1466 195.603C66.329 197.251 66.6331 198.873 66.8222 200.481C67.0321 202.08 67.1044 203.693 67.0384 205.304C66.9979 206.088 66.9506 206.919 66.8357 207.662C66.6341 208.418 66.372 209.157 66.052 209.871C65.406 211.315 64.8444 212.795 64.3698 214.303C63.9566 215.807 63.6985 217.348 63.5997 218.904C63.4443 220.431 63.2821 221.937 63.1268 223.43C62.8025 226.403 62.5998 229.376 61.404 231.956C60.8162 233.24 60.0528 234.429 59.4516 235.719C58.8851 236.998 58.5708 238.375 58.526 239.773C58.3841 242.475 58.7557 245.178 58.0328 247.589C57.3099 250.001 55.7831 252.015 55.0129 254.298C54.2428 256.582 54.5535 258.993 54.9048 261.108C55.2562 263.223 55.6142 265.303 55.1683 267.188C54.7224 269.073 53.4321 270.472 52.5876 271.978C52.1486 272.722 51.8637 273.547 51.7499 274.404C51.6575 275.173 51.6102 275.946 51.608 276.721C51.6115 277.407 51.5159 278.089 51.3242 278.748C51.0892 279.329 50.713 279.842 50.2298 280.241C49.4032 280.914 48.4721 281.448 47.4734 281.822C46.7399 282.1 45.9823 282.31 45.2102 282.45C44.7352 282.537 44.2539 282.584 43.7712 282.592L43.2847 282.619Z" fill="#E0E0E0"/>
<path d="M65.1535 199.197C65.1185 199.262 65.0956 199.333 65.086 199.407C65.0454 199.575 64.9982 199.785 64.9306 200.048C64.7955 200.602 64.6333 201.447 64.3766 202.494C64.1199 203.541 63.4713 204.737 62.9309 206.196C62.3904 207.655 61.7959 209.331 61.2757 211.223C60.7555 213.114 60.2826 215.209 59.7961 217.452C59.3765 219.849 58.6286 222.177 57.5734 224.37C56.9992 225.525 56.3506 226.694 55.8439 227.964C55.3429 229.268 55.007 230.63 54.8441 232.017C54.5047 234.894 54.0131 237.752 53.3713 240.577L49.4664 256.94C48.2368 261.952 47.1221 266.472 46.1898 270.282C45.2575 274.093 44.5414 277.173 44.0211 279.302C43.7779 280.342 43.5888 281.159 43.4537 281.754C43.3996 282.017 43.3523 282.227 43.3185 282.43C43.3112 282.504 43.3112 282.578 43.3185 282.652C43.3529 282.586 43.3779 282.516 43.3929 282.443L43.5753 281.808C43.7306 281.22 43.9536 280.41 44.2509 279.376C44.8048 277.221 45.602 274.167 46.5614 270.404C47.5207 266.641 48.6692 262.094 49.9393 257.088C51.2094 252.082 52.4255 246.495 53.8172 240.692C54.459 237.855 54.9506 234.987 55.29 232.098C55.4384 230.741 55.7585 229.409 56.2425 228.133C56.7357 226.889 57.3708 225.727 57.945 224.565C59.0097 222.339 59.7557 219.974 60.1609 217.539C60.6339 215.29 61.0797 213.195 61.5864 211.317C62.0931 209.439 62.6268 207.75 63.1673 206.298C63.7078 204.845 64.2955 203.636 64.5185 202.548C64.7414 201.46 64.8901 200.636 64.9982 200.069C65.0387 199.812 65.0725 199.596 65.1062 199.427C65.1316 199.353 65.1475 199.275 65.1535 199.197Z" fill="#E0E0E0"/>
<path d="M44.5346 282.632C49.1353 279.862 50.4122 271.519 48.4598 266.52C46.5073 261.52 43.1091 256.946 42.5551 251.603C42.1295 247.495 43.4536 243.273 42.474 239.26C41.1229 233.855 35.833 229.673 35.8668 224.099C35.8668 220.971 37.6436 218.019 37.4814 214.898C37.2855 211.067 34.3265 208.041 32.4889 204.676C29.6717 199.528 29.4555 193.401 28.4691 187.631C27.4827 181.862 25.2398 175.646 20.0851 172.829C19.3554 177.754 18.0583 181.132 18.5245 187.793C18.6866 190.185 21.4903 194.752 21.9024 199.994C22.1456 203.122 22.3213 206.264 22.5307 209.399C22.7401 212.533 22.9428 215.56 24.0508 218.397C24.902 220.58 26.2599 222.559 26.895 224.815C28.0908 229.058 26.5775 233.672 27.5706 237.976C28.3948 241.617 30.9485 244.732 31.4755 248.441C32.2321 253.636 28.8947 259.054 30.6445 263.979C31.516 266.432 33.5495 268.398 34.1373 270.931C34.5967 272.904 34.1373 274.985 34.5359 276.971C35.2115 280.16 41.2918 282.599 44.5549 282.376" fill="#E0E0E0"/>
<path d="M21.3889 177.707C21.3799 177.799 21.3799 177.892 21.3889 177.984C21.3889 178.193 21.4497 178.457 21.497 178.794C21.6051 179.504 21.7334 180.544 21.9766 181.889C22.2199 183.233 22.9495 184.767 23.5237 186.618C24.098 188.469 24.7195 190.57 25.2532 192.934C25.787 195.299 26.2464 197.92 26.726 200.744C27.2057 203.568 27.7259 206.635 29.1446 209.567C29.8202 211.04 30.5363 212.513 31.0903 214.08C31.6377 215.695 31.9804 217.373 32.1105 219.073C32.3846 222.671 32.8514 226.253 33.5089 229.801C34.9614 237.084 36.3532 243.989 37.6098 250.332C38.8663 256.676 40.1567 262.311 41.1633 267.04C42.17 271.769 43.0077 275.613 43.582 278.302L44.2575 281.362C44.3386 281.686 44.3994 281.95 44.4467 282.153C44.4641 282.243 44.4913 282.331 44.5278 282.416C44.5353 282.324 44.5353 282.231 44.5278 282.139C44.4872 281.936 44.4399 281.673 44.3791 281.342C44.2373 280.605 44.0413 279.579 43.7846 278.268C43.2442 275.566 42.4334 271.721 41.5079 266.972C40.5823 262.223 39.3595 256.534 38.0692 250.238C36.7788 243.941 35.4479 236.996 34.0156 229.72C33.3544 226.176 32.8808 222.599 32.5969 219.005C32.4664 217.272 32.1168 215.563 31.5565 213.918C30.989 212.31 30.2458 210.831 29.5838 209.371C28.1785 206.487 27.6719 203.467 27.1584 200.656C26.645 197.846 26.1856 195.211 25.6248 192.84C25.13 190.705 24.5279 188.597 23.821 186.523C23.2265 184.679 22.4698 183.145 22.2131 181.848C21.9564 180.551 21.7875 179.47 21.6456 178.767C21.5848 178.436 21.5308 178.173 21.497 177.97C21.4684 177.879 21.4322 177.791 21.3889 177.707Z" fill="#EBEBEB"/>
<path d="M126.95 2.36454C130.895 -2.23622 141.137 0.6553 148.177 4.3913C148.177 4.3913 153.014 6.67479 154.811 7.85707H154.872L171.302 5.8303C172.638 5.65864 173.994 5.89411 175.193 6.50589L176.545 7.18148C176.697 7.25998 176.824 7.38007 176.91 7.52779C176.997 7.67552 177.04 7.84482 177.034 8.01603C177.029 8.18724 176.975 8.35333 176.878 8.495C176.782 8.63668 176.648 8.74813 176.49 8.8164L164.391 13.9847V14.1333L176.335 21.9836L176.517 22.0985C178.77 23.5429 181.484 24.0834 184.118 23.6118L190.516 22.4633C190.839 22.4016 191.173 22.4297 191.482 22.5444C191.741 22.6496 191.968 22.82 192.141 23.0389C192.315 23.2578 192.429 23.5178 192.472 23.7937C192.516 24.0697 192.487 24.3522 192.389 24.6138C192.292 24.8755 192.128 25.1075 191.914 25.2872L184.483 31.4756C183.915 31.952 183.224 32.2571 182.489 32.3552C181.755 32.4533 181.007 32.3404 180.335 32.0296L176.862 30.4352L159.297 22.0782L161.324 32.0701C161.337 32.1665 161.33 32.2646 161.302 32.3578C161.274 32.451 161.227 32.5371 161.162 32.6103C161.098 32.6834 161.019 32.7418 160.93 32.7815C160.842 32.8212 160.745 32.8413 160.648 32.8403H159.824C159.271 32.8168 158.732 32.6532 158.26 32.3649C157.787 32.0766 157.395 31.673 157.121 31.1919L150.048 17.6801L129.321 7.82329C126.558 6.55318 125.571 4.18187 126.95 2.36454Z" fill="#E0E0E0"/>
<path d="M11.8902 46.602L63.9848 45.4468C63.9848 45.4468 59.1814 37.1438 45.8047 38.6909C33.0226 40.1434 32.2524 34.8671 25.7195 34.3671C19.1865 33.8672 13.8764 38.9544 11.8902 46.602Z" fill="#F5F5F5"/>
<path d="M255.494 74.7808H304.575C304.575 74.7808 300.238 66.8765 287.604 68.025C275.532 69.1194 274.924 64.1336 268.783 63.5255C262.642 62.9175 257.534 67.6196 255.494 74.7808Z" fill="#F5F5F5"/>
<path d="M41.5552 20.7473H78.9963C78.9963 20.7473 75.6859 14.721 66.0453 15.5993C56.8438 16.437 56.3776 12.6335 51.6958 12.1606C47.014 11.6877 43.1158 15.2818 41.5552 20.7473Z" fill="#F5F5F5"/>
<path d="M255.541 99.5479H280.031C280.031 99.5479 277.869 95.6025 271.566 96.17C265.54 96.7172 265.236 94.231 262.175 93.927C259.115 93.623 256.561 95.9741 255.541 99.5479Z" fill="#F5F5F5"/>
<path d="M243.293 31.7459H267.789C267.789 31.7459 265.621 27.8004 259.318 28.3679C253.291 28.9152 252.987 26.429 249.927 26.125C246.866 25.821 244.292 28.172 243.293 31.7459Z" fill="#FAFAFA"/>
<path d="M305.386 282.673C305.386 282.767 237.199 282.848 153.095 282.848C68.9909 282.848 0.790283 282.767 0.790283 282.673C0.790283 282.578 68.9639 282.497 153.095 282.497C237.226 282.497 305.386 282.578 305.386 282.673Z" fill="#263238"/>
<path d="M258.716 163.54C258.668 163.067 258.445 162.63 258.091 162.313C257.738 161.995 257.279 161.821 256.804 161.824H242.38C242.099 161.824 241.821 161.887 241.567 162.008C241.313 162.128 241.089 162.304 240.91 162.522C240.732 162.739 240.604 162.994 240.536 163.267C240.468 163.54 240.461 163.824 240.516 164.1C240.601 164.541 240.84 164.938 241.19 165.219C241.54 165.5 241.979 165.647 242.428 165.634H256.811C257.077 165.633 257.341 165.577 257.584 165.469C257.827 165.361 258.046 165.203 258.225 165.006C258.404 164.809 258.54 164.577 258.625 164.325C258.709 164.072 258.741 163.805 258.716 163.54Z" fill="#263238"/>
<path d="M290.178 277.944C290.046 278.844 290.184 279.764 290.575 280.586C290.965 281.408 291.591 282.096 292.372 282.562C293.154 283.029 294.056 283.253 294.965 283.206C295.874 283.16 296.749 282.845 297.479 282.301C298.209 281.758 298.761 281.01 299.066 280.152C299.37 279.295 299.414 278.366 299.191 277.484C298.968 276.601 298.488 275.805 297.812 275.195C297.136 274.586 296.295 274.19 295.394 274.059C294.187 273.883 292.96 274.194 291.982 274.922C291.004 275.65 290.355 276.737 290.178 277.944Z" fill="#263238"/>
<path d="M293.779 278.64L290.969 272.843L292.442 271.911L295.164 277.964L293.779 278.64Z" fill="#455A64"/>
<path d="M267.789 207.284L250.366 161.824L247.056 163.486L263.945 208.527L267.789 207.284Z" fill="#263238"/>
<path d="M308.026 267.325L282.285 277.553C281.825 277.735 281.312 277.728 280.858 277.532C280.404 277.336 280.046 276.968 279.863 276.508L254.261 212.073C253.293 209.639 253.333 206.92 254.37 204.514C255.407 202.109 257.358 200.214 259.792 199.247L270.641 194.936C273.076 193.969 275.795 194.008 278.2 195.045C280.606 196.083 282.5 198.033 283.468 200.468L309.071 264.903C309.253 265.363 309.246 265.876 309.05 266.33C308.854 266.784 308.486 267.142 308.026 267.325Z" fill="#455A64"/>
<path d="M279.828 276.802C279.828 276.802 279.788 276.667 279.693 276.41L279.268 275.268L277.592 270.884L271.357 254.798C268.701 248.008 265.553 239.935 262.054 230.957L256.548 216.884C256.075 215.668 255.588 214.438 255.109 213.195C254.6 211.98 254.414 210.653 254.568 209.344C254.734 208.011 255.257 206.746 256.082 205.685C256.906 204.624 258.002 203.804 259.253 203.313C260.504 202.822 261.865 202.677 263.191 202.895C264.517 203.112 265.76 203.683 266.79 204.548C267.788 205.406 268.553 206.503 269.012 207.737L270.458 211.432C272.377 216.31 274.228 221.012 275.984 225.498L285.368 249.305C288.071 256.061 290.212 261.54 291.725 265.344L293.469 269.701C293.671 270.181 293.82 270.559 293.935 270.83C294.05 271.1 294.104 271.208 294.104 271.208C294.104 271.208 294.063 271.073 293.968 270.809L293.543 269.668C293.158 268.654 292.59 267.182 291.867 265.29L285.632 249.204L276.329 225.363C274.579 220.877 272.735 216.168 270.823 211.29C270.35 210.067 269.863 208.838 269.377 207.595C268.905 206.286 268.102 205.123 267.046 204.217C265.962 203.305 264.652 202.703 263.255 202.473C261.857 202.244 260.423 202.396 259.105 202.914C257.786 203.431 256.632 204.295 255.763 205.413C254.895 206.532 254.344 207.865 254.17 209.27C254.006 210.648 254.202 212.044 254.737 213.324L256.183 217.046C258.101 221.917 259.953 226.626 261.709 231.105C265.236 240.05 268.418 248.123 271.086 254.879L277.444 270.924L279.193 275.275C279.389 275.762 279.545 276.133 279.659 276.403C279.708 276.539 279.764 276.673 279.828 276.802Z" fill="#263238"/>
<path d="M278.166 231.011C278.22 231.186 281.585 229.855 285.686 228.052C289.787 226.248 293.063 224.633 293.009 224.464C292.955 224.295 289.584 225.613 285.49 227.423C281.396 229.234 278.112 230.835 278.166 231.011Z" fill="#263238"/>
<path d="M255.399 161.817L252.393 155.872C252.056 155.207 251.493 154.685 250.805 154.399L246.076 152.426L233.334 135.145L232.132 148.379L240.239 156.75C240.239 156.75 245.326 167.465 249.481 166.918C249.378 165.952 249.094 165.015 248.643 164.154C247.292 161.817 248.731 161.817 248.92 161.83H252.399L255.399 161.817Z" fill="#FFBE9D"/>
<path d="M234.598 152.676C234.983 153.25 238.131 157.52 238.131 157.52L247.056 151.028L243.813 147.859L234.598 152.676Z" fill="#F86241"/>
<path d="M248.67 164.154C248.67 164.154 250.994 165.506 251.285 166.6V167.276L248.501 166.87L248.67 164.154Z" fill="#FFBE9D"/>
<path d="M251.785 165.425C251.373 165.102 251.051 164.679 250.852 164.195C250.763 163.951 250.767 163.682 250.864 163.441C250.962 163.2 251.145 163.004 251.379 162.891C251.859 162.729 252.352 163.073 252.73 163.418C253.205 163.843 253.656 164.294 254.082 164.769C254.283 164.942 254.441 165.16 254.542 165.405C254.643 165.651 254.684 165.917 254.663 166.181C254.6 166.386 254.476 166.567 254.306 166.699C254.137 166.831 253.931 166.907 253.717 166.918C253.501 166.922 253.287 166.883 253.087 166.801C252.887 166.72 252.706 166.599 252.555 166.445C252.254 166.141 252.013 165.784 251.845 165.391" fill="#FFBE9D"/>
<path d="M254.143 165.222C253.731 164.9 253.409 164.476 253.21 163.992C253.121 163.748 253.125 163.48 253.222 163.239C253.32 162.998 253.503 162.802 253.737 162.688C254.217 162.526 254.71 162.871 255.088 163.215C255.563 163.641 256.014 164.092 256.44 164.566C256.641 164.739 256.799 164.957 256.899 165.203C257 165.448 257.042 165.714 257.021 165.978C256.958 166.184 256.834 166.365 256.664 166.497C256.495 166.628 256.289 166.705 256.075 166.715C255.859 166.719 255.645 166.679 255.445 166.598C255.245 166.517 255.064 166.396 254.913 166.242C254.612 165.939 254.371 165.581 254.203 165.188" fill="#FFBE9D"/>
<path d="M247.056 155.074C247.056 154.993 247.657 155.02 248.353 155.622C248.676 156.017 248.947 156.453 249.157 156.919C249.471 157.484 249.63 158.123 249.616 158.77C249.519 159.406 249.269 160.009 248.886 160.526C248.628 160.943 248.441 161.4 248.332 161.878C248.234 162.321 248.203 162.776 248.238 163.229C248.121 163.018 248.047 162.785 248.022 162.545C247.996 162.304 248.019 162.062 248.089 161.83C248.171 161.318 248.347 160.825 248.609 160.378C248.953 159.895 249.184 159.341 249.285 158.756C249.293 158.169 249.156 157.589 248.886 157.067C248.709 156.618 248.482 156.19 248.211 155.791C247.979 155.561 247.715 155.365 247.427 155.21C247.306 155.158 247.182 155.113 247.056 155.074Z" fill="#EB996E"/>
<path d="M158 120.903C156.189 122.991 156.452 126.308 158 128.612C159.547 130.915 162.1 132.307 164.681 133.3C166.769 134.104 169.343 134.611 171.072 133.192" fill="#E0E0E0"/>
<path d="M167.505 258.379L165.093 272.282C165.093 272.282 150.149 274.498 149.453 277.011L176.247 282.659L180.895 261.149L167.505 258.379Z" fill="#F86241"/>
<g opacity="0.6">
<path d="M173.626 272.87C173.867 273.002 174.051 273.219 174.142 273.478C174.233 273.738 174.225 274.021 174.119 274.275C173.995 274.521 173.782 274.71 173.523 274.803C173.264 274.896 172.979 274.886 172.727 274.775C172.472 274.634 172.278 274.404 172.183 274.128C172.088 273.852 172.099 273.55 172.214 273.282C172.37 273.039 172.614 272.866 172.895 272.799C173.176 272.732 173.472 272.777 173.72 272.924" fill="white"/>
</g>
<path opacity="0.6" d="M176.247 282.673L176.734 280.551L150.818 275.917C150.818 275.917 149.521 276.187 149.467 277.052L176.247 282.673Z" fill="white"/>
<path d="M164.688 272.053C164.688 272.188 165.309 272.384 165.863 272.938C166.417 273.492 166.647 274.12 166.775 274.093C166.904 274.066 166.87 273.269 166.188 272.607C165.505 271.944 164.688 271.931 164.688 272.053Z" fill="#263238"/>
<path d="M161.634 272.627C161.58 272.748 162.1 273.086 162.425 273.735C162.749 274.383 162.756 274.991 162.891 275.018C163.026 275.045 163.262 274.343 162.837 273.519C162.411 272.694 161.661 272.498 161.634 272.627Z" fill="#263238"/>
<path d="M159.331 275.653C159.445 275.707 159.763 275.093 159.58 274.302C159.398 273.512 158.844 273.1 158.763 273.201C158.682 273.302 158.979 273.762 159.128 274.41C159.276 275.059 159.202 275.613 159.331 275.653Z" fill="#263238"/>
<path d="M165.593 268.945C165.593 269.08 166.269 269.026 166.992 269.229C167.715 269.431 168.242 269.789 168.343 269.695C168.444 269.6 167.978 269.019 167.12 268.783C166.262 268.546 165.546 268.83 165.593 268.945Z" fill="#263238"/>
<path opacity="0.3" d="M167.039 261.135L166.607 263.614L179.794 266.269L180.28 264.054L167.039 261.135Z" fill="black"/>
<path d="M166.127 266.148C166.545 266.359 167.011 266.455 167.478 266.425C167.982 266.445 168.486 266.399 168.978 266.29C169.266 266.226 169.551 266.144 169.829 266.047C169.998 265.995 170.158 265.918 170.302 265.817C170.406 265.742 170.482 265.636 170.52 265.514C170.558 265.392 170.555 265.261 170.512 265.141C170.464 265.037 170.393 264.945 170.304 264.872C170.215 264.799 170.11 264.748 169.998 264.722C169.83 264.686 169.657 264.674 169.485 264.689C168.671 264.712 167.878 264.945 167.181 265.364C166.438 265.81 166.12 266.249 166.161 266.29C166.201 266.33 166.6 265.999 167.329 265.655C168.008 265.341 168.744 265.171 169.491 265.155C169.789 265.155 170.032 265.189 170.079 265.33C170.126 265.472 170.079 265.405 170.018 265.479C169.911 265.549 169.795 265.605 169.674 265.648C169.412 265.745 169.146 265.828 168.877 265.898C168.416 266.019 167.946 266.095 167.471 266.128C167.023 266.104 166.574 266.111 166.127 266.148Z" fill="#263238"/>
<path d="M166.262 266.364C166.303 266.398 166.661 265.986 166.89 265.148C167.014 264.656 167.055 264.147 167.012 263.642C166.991 263.339 166.934 263.039 166.843 262.75C166.808 262.558 166.724 262.379 166.6 262.228C166.476 262.078 166.315 261.962 166.134 261.892C166.014 261.873 165.89 261.887 165.778 261.932C165.665 261.977 165.566 262.052 165.492 262.148C165.39 262.292 165.308 262.449 165.249 262.615C165.139 262.902 165.075 263.206 165.06 263.513C165.028 264.033 165.123 264.552 165.337 265.026C165.715 265.83 166.228 266.101 166.249 266.06C166.269 266.02 165.904 265.655 165.647 264.898C165.495 264.465 165.439 264.004 165.485 263.547C165.514 263.283 165.577 263.024 165.674 262.777C165.776 262.507 165.931 262.297 166.032 262.351C166.134 262.405 166.35 262.635 166.411 262.885C166.497 263.138 166.56 263.398 166.6 263.662C166.665 264.126 166.665 264.596 166.6 265.06C166.438 265.878 166.195 266.364 166.262 266.364Z" fill="#263238"/>
<path d="M255.548 259.223L249.758 251.657L249.454 251.265L239.563 258.608L248.704 268.648L248.373 278.815C243.279 280.126 242.516 282.673 242.516 282.673H253.095L262.709 264.162L255.548 259.223Z" fill="#F86241"/>
<path opacity="0.6" d="M262.729 264.148L253.122 282.666L242.536 282.673L243.732 281.085L252.332 280.599L261.203 263.101L262.729 264.148Z" fill="white"/>
<path d="M248.454 274.154C248.535 274.262 249.13 273.917 249.961 273.937C250.792 273.958 251.379 274.302 251.46 274.194C251.541 274.086 250.967 273.519 249.967 273.471C248.967 273.424 248.346 274.073 248.454 274.154Z" fill="#263238"/>
<path d="M248.623 271.634C248.731 271.708 249.197 271.086 250.042 270.918C250.886 270.749 251.562 271.14 251.629 271.032C251.697 270.924 251.548 270.803 251.251 270.641C250.85 270.443 250.394 270.383 249.955 270.471C249.517 270.559 249.119 270.79 248.826 271.127C248.616 271.397 248.569 271.607 248.623 271.634Z" fill="#263238"/>
<path d="M248.555 268.391C248.67 268.452 249.028 267.837 249.765 267.58C250.501 267.323 251.163 267.58 251.217 267.445C251.271 267.31 251.116 267.249 250.819 267.141C250.428 267.001 250 267.001 249.609 267.141C249.221 267.282 248.891 267.548 248.67 267.898C248.508 268.175 248.495 268.391 248.555 268.391Z" fill="#263238"/>
<path d="M245.718 265.891C245.846 265.932 246.144 265.33 246.799 264.905C247.454 264.479 248.11 264.418 248.15 264.283C248.191 264.148 247.36 263.979 246.569 264.52C245.779 265.06 245.59 265.878 245.718 265.891Z" fill="#263238"/>
<path d="M244.34 263.716C244.394 263.75 244.738 263.324 245.259 262.608L246.157 261.338C246.359 261.076 246.523 260.787 246.644 260.48C246.68 260.369 246.693 260.252 246.683 260.136C246.672 260.02 246.638 259.907 246.583 259.804C246.518 259.694 246.423 259.604 246.31 259.546C246.196 259.487 246.068 259.462 245.941 259.473C245.569 259.544 245.226 259.723 244.955 259.987C244.695 260.195 244.467 260.441 244.279 260.716C243.978 261.178 243.789 261.703 243.725 262.25C243.614 262.742 243.699 263.258 243.961 263.689C243.964 263.224 243.994 262.759 244.049 262.297C244.15 261.812 244.347 261.352 244.63 260.946C244.797 260.713 244.992 260.502 245.211 260.318C245.419 260.128 245.669 259.991 245.941 259.919C245.981 259.914 246.022 259.921 246.058 259.939C246.094 259.957 246.124 259.985 246.144 260.02C246.179 260.116 246.179 260.222 246.144 260.318C246.034 260.578 245.896 260.825 245.731 261.054C245.461 261.507 245.191 261.946 244.921 262.405C244.658 262.808 244.462 263.251 244.34 263.716Z" fill="#263238"/>
<path d="M243.962 264.033C244.009 264.033 243.962 263.473 243.394 262.838C243.004 262.416 242.487 262.132 241.922 262.03C241.356 261.927 240.773 262.012 240.259 262.27C240.205 262.317 240.162 262.375 240.133 262.441C240.104 262.506 240.089 262.577 240.09 262.648C240.097 262.772 240.142 262.89 240.219 262.986C240.329 263.114 240.456 263.225 240.597 263.317C240.832 263.484 241.083 263.627 241.347 263.743C241.788 263.945 242.257 264.077 242.739 264.135C243.178 264.229 243.635 264.186 244.049 264.013C244.049 263.939 243.549 263.973 242.793 263.81C242.356 263.714 241.934 263.562 241.536 263.358C241.3 263.239 241.074 263.102 240.861 262.946C240.757 262.88 240.664 262.801 240.584 262.709C240.536 262.615 240.584 262.642 240.584 262.615C240.679 262.556 240.784 262.517 240.894 262.5C241.024 262.472 241.155 262.452 241.286 262.439C241.537 262.423 241.79 262.441 242.036 262.493C242.459 262.589 242.851 262.788 243.178 263.074C243.732 263.574 243.887 264.06 243.962 264.033Z" fill="#263238"/>
<path opacity="0.6" d="M254.284 263.831C254.284 264.079 254.358 264.322 254.496 264.529C254.634 264.735 254.831 264.896 255.06 264.992C255.29 265.087 255.542 265.112 255.786 265.063C256.03 265.015 256.254 264.895 256.43 264.719C256.605 264.543 256.725 264.32 256.773 264.076C256.822 263.832 256.797 263.579 256.702 263.35C256.607 263.12 256.446 262.924 256.239 262.786C256.032 262.648 255.79 262.574 255.541 262.574C255.208 262.574 254.888 262.706 254.652 262.942C254.417 263.178 254.284 263.497 254.284 263.831Z" fill="white"/>
<path opacity="0.3" d="M240.502 259.622L242.536 261.851L251.082 253.386L249.893 251.839L240.502 259.622Z" fill="black"/>
<path d="M214.195 83.4216C219.849 81.457 225.952 81.18 231.76 82.6244C234.334 83.2662 236.949 84.3336 238.597 86.4145C240.55 88.8736 240.793 92.2245 241.097 95.3525C241.707 101.715 242.879 108.011 244.596 114.168C246.029 119.289 247.839 124.301 248.616 129.591C249.393 134.881 249.035 140.482 246.353 145.076C242.218 152.156 233.429 155.284 225.234 155.426C220.924 155.493 216.506 154.865 212.682 152.865C208.858 150.866 205.676 147.373 204.744 143.164" fill="#1A3948"/>
<path d="M225.464 89.9073C226.351 90.6826 227.139 91.5654 227.808 92.5353C228.504 93.6118 229.114 94.7413 229.632 95.9133C230.267 97.3687 230.996 98.7814 231.814 100.142C232.655 101.522 233.813 102.68 235.192 103.52C236.345 104.209 237.702 104.475 239.03 104.27C239.919 104.143 240.752 103.761 241.428 103.169C241.608 103.007 241.767 102.823 241.901 102.622C241.995 102.487 242.036 102.412 242.023 102.406C242.009 102.399 241.793 102.662 241.347 103.034C240.668 103.549 239.863 103.871 239.016 103.966C237.762 104.115 236.495 103.834 235.422 103.169C234.109 102.341 233.006 101.219 232.199 99.8925C231.393 98.5461 230.664 97.1544 230.017 95.7241C229.472 94.543 228.823 93.4125 228.078 92.3462C227.572 91.6238 226.97 90.9737 226.288 90.414C226.044 90.199 225.766 90.0276 225.464 89.9073Z" fill="#E0E0E0"/>
<path d="M237.334 153.19C237.351 153.012 237.351 152.833 237.334 152.656C237.334 152.264 237.334 151.764 237.334 151.143C237.334 149.832 237.239 147.927 237.138 145.582C236.928 140.853 236.564 134.395 235.996 127.247C235.429 120.099 234.787 113.627 234.26 108.959C233.99 106.621 233.76 104.73 233.584 103.433C233.503 102.818 233.429 102.318 233.375 101.933C233.358 101.756 233.324 101.582 233.274 101.413C233.253 101.588 233.253 101.764 233.274 101.939C233.307 102.331 233.355 102.831 233.402 103.446C233.537 104.797 233.719 106.689 233.936 108.986C234.388 113.668 234.99 120.133 235.55 127.281C236.111 134.428 236.53 140.907 236.814 145.596C236.956 147.9 237.07 149.785 237.151 151.149L237.26 152.663C237.269 152.84 237.294 153.016 237.334 153.19Z" fill="#E0E0E0"/>
<path d="M235.652 124.491C235.652 124.605 238.239 124.578 241.401 124.18C244.563 123.781 247.076 123.187 247.056 123.079C247.035 122.971 244.495 123.362 241.347 123.754C238.199 124.146 235.645 124.342 235.652 124.491Z" fill="#E0E0E0"/>
<path d="M237.739 124.403C237.534 124.782 237.414 125.202 237.388 125.632C237.31 126.09 237.263 126.553 237.246 127.017C237.223 127.32 237.274 127.624 237.395 127.902C237.47 128.072 237.592 128.216 237.746 128.319C237.901 128.422 238.081 128.479 238.266 128.483C238.372 128.488 238.477 128.468 238.573 128.424C238.669 128.381 238.754 128.315 238.82 128.233C238.937 128.087 239.006 127.907 239.016 127.72C239.025 127.427 238.984 127.134 238.895 126.855C238.781 126.392 238.628 125.94 238.435 125.504C238.104 124.781 237.793 124.396 237.76 124.423C237.855 124.834 237.991 125.235 238.165 125.619C238.307 126.045 238.427 126.478 238.523 126.916C238.585 127.156 238.613 127.404 238.604 127.652C238.604 127.882 238.469 128.024 238.28 128.024C237.827 128.024 237.645 127.477 237.665 126.99C237.685 126.504 237.665 126.024 237.705 125.639C237.769 125.23 237.78 124.815 237.739 124.403Z" fill="#E0E0E0"/>
<path d="M208.622 85.8738L235.766 82.7044C239.32 82.2894 241.864 79.0719 241.449 75.5178L240.861 70.4784C240.446 66.9244 237.228 64.3797 233.674 64.7946L206.531 67.964C202.977 68.379 200.432 71.5965 200.847 75.1506L201.436 80.19C201.851 83.7441 205.068 86.2888 208.622 85.8738Z" fill="#455A64"/>
<path d="M233.22 65.2213C233.22 65.2213 233.138 65.1672 232.963 65.1132C232.703 65.0391 232.435 64.9982 232.166 64.9916C231.156 64.9957 230.177 65.3356 229.382 65.9577C228.165 66.8141 227.2 67.9804 226.585 69.3356C225.898 71.0114 225.634 72.8302 225.815 74.6322C225.913 76.4502 226.55 78.1977 227.646 79.6518C228.546 80.8394 229.781 81.7291 231.193 82.2056C232.132 82.5291 233.131 82.6398 234.118 82.5298C234.386 82.5003 234.651 82.446 234.909 82.3677C235.084 82.3137 235.172 82.2799 235.165 82.2664C235.158 82.2529 234.787 82.3204 234.105 82.3609C233.147 82.4026 232.192 82.2509 231.294 81.9151C229.963 81.4233 228.805 80.5519 227.963 79.4086C226.94 78.0048 226.346 76.3336 226.254 74.5984C226.069 72.8687 226.3 71.1196 226.93 69.4978C227.506 68.1998 228.407 67.0715 229.544 66.2212C230.28 65.6129 231.187 65.2492 232.139 65.1808C232.841 65.1335 233.213 65.2618 233.22 65.2213Z" fill="#263238"/>
<path d="M217.708 66.5927L221.897 66.1806C220.777 66.523 219.818 67.2568 219.194 68.2479C218.587 69.2333 218.196 70.3362 218.046 71.484C217.296 76.3009 219.856 81.4759 223.971 84.0837L220.593 84.5296C220.593 84.5296 210.932 75.9023 217.681 66.5927" fill="#263238"/>
<path d="M212.965 75.4564C214.045 75.7552 215.179 75.7971 216.278 75.5788C217.376 75.3605 218.409 74.888 219.292 74.1992C220.175 73.5104 220.885 72.6243 221.364 71.612C221.843 70.5997 222.079 69.4892 222.052 68.3695C222.005 66.2955 221.059 64.1741 221.708 62.1946C222.153 60.8435 223.288 59.776 223.674 58.4046C224.241 56.344 222.998 54.27 221.816 52.5C221.112 51.3239 220.235 50.2603 219.215 49.345C218.701 48.889 218.094 48.5515 217.435 48.3565C216.777 48.1615 216.083 48.1138 215.404 48.2167" fill="#263238"/>
<path d="M193.779 48.3991C193.894 49.9665 192.86 51.3717 191.813 52.5472C190.766 53.7228 189.61 54.9591 189.381 56.513C188.982 59.2761 191.684 61.8366 191.13 64.5727C190.826 66.0387 189.631 67.2143 189.414 68.6938C189.198 70.1733 189.975 71.5313 190.928 72.619C191.88 73.7067 193.036 74.6457 193.88 75.7942C194.682 77.0927 195.36 78.4634 195.907 79.8883C196.452 81.3237 197.445 82.5459 198.738 83.3743C200.764 84.4688 203.575 83.9553 205.115 85.6511C206.655 87.3468 208.439 87.5427 210.277 88.779" fill="#263238"/>
<path d="M217.944 50.7975C217.985 49.3787 216.668 48.2775 215.343 47.7573C214.019 47.2371 212.54 47.0345 211.358 46.2373C210.31 45.5617 209.608 44.4402 208.723 43.5349C207.628 42.4312 206.261 41.6378 204.759 41.2355C203.258 40.8333 201.676 40.8368 200.177 41.2455C198.677 41.6542 197.313 42.4536 196.223 43.5621C195.134 44.6705 194.358 46.0483 193.975 47.5547C193.468 49.5814 193.812 51.9798 195.414 53.3309C197.272 54.8915 200.021 54.547 202.399 54.0606C204.777 53.5742 207.466 53.0945 209.452 54.493C210.648 55.3307 211.33 56.7021 212.067 57.9722C212.803 59.2423 213.715 60.5327 215.1 61.0056C216.485 61.4785 218.363 60.6611 218.417 59.2018" fill="#263238"/>
<path d="M212.303 51.0947C212.896 51.1574 213.444 51.4411 213.837 51.8893C214.23 52.3375 214.44 52.9174 214.425 53.5134L213.006 85.6984C212.945 89.5019 207.392 91.6368 203.318 91.5422C199.211 91.4476 199.075 89.4276 199.028 85.8132C198.94 79.7735 198.947 77.5035 198.947 77.5373C198.947 77.571 193.752 76.6657 192.691 69.8896C192.164 66.5117 192.347 60.9921 192.644 56.4792C192.907 52.4257 195.61 47.4331 199.663 47.8654L212.303 51.0947Z" fill="#FFBE9D"/>
<path d="M193.927 60.3503C193.924 60.5774 194.01 60.7968 194.166 60.9611C194.323 61.1254 194.538 61.2215 194.765 61.2286C194.875 61.2359 194.985 61.2213 195.089 61.1858C195.193 61.1503 195.289 61.0944 195.371 61.0215C195.454 60.9487 195.521 60.8601 195.569 60.7612C195.616 60.6622 195.644 60.5547 195.65 60.4449C195.654 60.2189 195.569 60.0005 195.414 59.8364C195.258 59.6722 195.045 59.5754 194.819 59.5666C194.709 59.5584 194.598 59.5722 194.493 59.6073C194.388 59.6424 194.292 59.6981 194.209 59.7711C194.126 59.844 194.058 59.9329 194.01 60.0323C193.961 60.1318 193.933 60.2399 193.927 60.3503Z" fill="#263238"/>
<path d="M193.833 59.3504C193.941 59.4653 194.603 58.9788 195.535 58.9856C196.468 58.9924 197.157 59.4585 197.258 59.3437C197.359 59.2288 197.197 59.0869 196.9 58.8707C196.502 58.5972 196.032 58.449 195.549 58.4451C195.064 58.444 194.592 58.5953 194.198 58.8775C193.88 59.1005 193.779 59.3031 193.833 59.3504Z" fill="#263238"/>
<path d="M203.237 60.5867C203.233 60.8138 203.319 61.0332 203.476 61.1975C203.633 61.3618 203.848 61.4579 204.075 61.465C204.185 61.4742 204.295 61.4612 204.4 61.4269C204.505 61.3926 204.602 61.3376 204.685 61.2651C204.768 61.1927 204.836 61.1042 204.884 61.0051C204.933 60.906 204.961 60.7982 204.966 60.6881C204.97 60.4615 204.886 60.2423 204.73 60.0771C204.575 59.9118 204.362 59.8136 204.136 59.803C204.025 59.7948 203.914 59.8086 203.809 59.8436C203.703 59.8786 203.606 59.9342 203.522 60.0071C203.439 60.08 203.371 60.1688 203.322 60.2683C203.273 60.3678 203.244 60.476 203.237 60.5867Z" fill="#263238"/>
<path d="M203.028 59.5463C203.136 59.6612 203.791 59.1747 204.73 59.1815C205.669 59.1883 206.345 59.6544 206.446 59.5396C206.547 59.4247 206.392 59.2828 206.088 59.0667C205.692 58.7884 205.22 58.6397 204.737 58.641C204.252 58.6352 203.777 58.7869 203.386 59.0734C203.082 59.2896 202.974 59.499 203.028 59.5463Z" fill="#263238"/>
<path d="M199.616 66.4779C199.123 66.3202 198.612 66.2249 198.096 66.1941C197.859 66.1941 197.636 66.1266 197.596 65.9644C197.571 65.7175 197.626 65.4692 197.751 65.2551L198.467 63.4377C199.122 61.9056 199.655 60.3243 200.062 58.7086C199.954 58.6681 199.069 60.7354 198.089 63.3161C197.846 63.9917 197.623 64.566 197.413 65.147C197.26 65.4323 197.215 65.7632 197.285 66.0793C197.32 66.1634 197.373 66.2387 197.441 66.2995C197.509 66.3603 197.589 66.4051 197.677 66.4306C197.809 66.4677 197.945 66.4881 198.082 66.4914C198.592 66.5478 199.107 66.5433 199.616 66.4779Z" fill="#263238"/>
<path d="M198.947 77.5372C202.134 77.6029 205.277 76.7844 208.027 75.1727C208.027 75.1727 205.784 79.7869 199.028 79.1384L198.947 77.5372Z" fill="#EB996E"/>
<path d="M200.008 68.7276C200.187 68.5052 200.42 68.3317 200.685 68.2231C200.949 68.1145 201.237 68.0742 201.521 68.106C201.727 68.1266 201.927 68.188 202.109 68.2865C202.291 68.3851 202.452 68.519 202.582 68.6803C202.706 68.8367 202.779 69.0275 202.791 69.227C202.803 69.4264 202.754 69.6247 202.649 69.795C202.499 69.9616 202.302 70.0795 202.084 70.1336C201.866 70.1878 201.637 70.1757 201.426 70.099C200.984 69.9427 200.577 69.6992 200.231 69.3829C200.125 69.3097 200.035 69.2154 199.967 69.1059C199.93 69.056 199.911 68.9956 199.911 68.9336C199.911 68.8716 199.93 68.8113 199.967 68.7613" fill="#EB996E"/>
<path d="M202.366 67.1264C202.217 67.1264 202.21 68.1331 201.339 68.8492C200.467 69.5653 199.386 69.4572 199.379 69.5991C199.373 69.741 199.623 69.795 200.055 69.8085C200.65 69.8207 201.23 69.6194 201.69 69.241C202.135 68.8826 202.422 68.3632 202.487 67.7953C202.548 67.3764 202.406 67.1197 202.366 67.1264Z" fill="#263238"/>
<path d="M202.609 57.9114C202.696 58.1614 203.636 58.0465 204.73 58.1817C205.824 58.3168 206.716 58.614 206.858 58.3911C206.926 58.2762 206.77 58.0398 206.412 57.7898C205.938 57.4838 205.399 57.2939 204.838 57.2358C204.277 57.1683 203.708 57.2331 203.176 57.425C202.771 57.6074 202.568 57.7898 202.609 57.9114Z" fill="#263238"/>
<path d="M194.184 56.6481C194.346 56.8575 194.995 56.6481 195.765 56.6481C196.535 56.6481 197.197 56.7899 197.346 56.567C197.413 56.4657 197.312 56.2495 197.028 56.0468C196.643 55.8041 196.195 55.6816 195.74 55.6948C195.285 55.708 194.845 55.8564 194.475 56.1211C194.204 56.3238 194.11 56.5467 194.184 56.6481Z" fill="#263238"/>
<path d="M217.033 73.3824C216.096 73.5711 215.128 73.5342 214.209 73.2749C213.29 73.0156 212.446 72.5413 211.746 71.8911C211.046 71.2409 210.511 70.4335 210.185 69.5357C209.859 68.6379 209.752 67.6755 209.871 66.7278C210.087 65.0659 210.979 63.3499 210.405 61.796C209.642 59.7152 206.723 59.0937 205.946 56.9994C205.5 55.7901 205.906 54.3781 205.392 53.1958C204.879 52.0135 203.744 51.4393 202.602 51.0272C201.428 50.7243 200.308 50.2387 199.285 49.5882C198.325 48.845 197.731 47.4398 198.346 46.3994C203.408 47.0024 208.379 48.209 213.155 49.9935C214.256 50.4056 215.418 50.9056 216.073 51.8852C216.729 52.8648 216.749 54.27 216.674 55.5198L215.823 73.7607" fill="#263238"/>
<path d="M220.681 79.0168C220.678 78.436 220.558 77.8617 220.329 77.3278C220.049 76.7099 219.658 76.1488 219.174 75.6727C218.525 75.052 217.787 74.5307 216.985 74.1255C216.1 73.6459 215.08 73.2068 214.04 72.6122C212.893 72.0028 211.927 71.1037 211.236 70.0045C210.874 69.3898 210.678 68.6912 210.668 67.9777C210.698 67.2533 210.8 66.5336 210.972 65.8293C211.161 65.1364 211.209 64.413 211.114 63.7012C211.041 63.3511 210.891 63.0217 210.675 62.7366C210.458 62.4516 210.182 62.218 209.865 62.0528C209.189 61.6745 208.513 61.438 207.804 61.1137C207.078 60.8196 206.465 60.3012 206.054 59.6342C205.712 58.9723 205.536 58.2375 205.541 57.4926C205.541 56.7832 205.541 56.1009 205.541 55.4658C205.557 54.8312 205.465 54.1985 205.271 53.5944C205.074 53.0409 204.716 52.5587 204.244 52.2095C203.329 51.622 202.307 51.2203 201.237 51.0272C200.332 50.8469 199.466 50.5035 198.684 50.0138C198.093 49.6122 197.66 49.0174 197.461 48.3316C197.323 47.9056 197.323 47.447 197.461 47.021C197.513 46.8777 197.591 46.745 197.69 46.6291C197.69 46.6291 197.616 46.771 197.528 47.048C197.414 47.459 197.428 47.8951 197.569 48.2978C197.781 48.9359 198.202 49.4835 198.765 49.8517C199.539 50.308 200.387 50.6257 201.271 50.7907C202.379 50.9757 203.44 51.3775 204.392 51.973C204.914 52.3537 205.311 52.8802 205.534 53.4863C205.743 54.1227 205.846 54.7892 205.838 55.4591C205.838 56.1346 205.838 56.8102 205.838 57.4858C205.836 58.176 205.998 58.8567 206.311 59.472C206.688 60.0807 207.249 60.5539 207.912 60.8232C208.588 61.1407 209.311 61.3704 210.006 61.7758C210.356 61.9818 210.667 62.247 210.925 62.5595C211.173 62.8807 211.342 63.2556 211.418 63.6539C211.52 64.4129 211.47 65.1847 211.27 65.9239C211.099 66.6033 210.997 67.2981 210.966 67.998C210.969 68.6583 211.146 69.3062 211.479 69.8761C212.136 70.9325 213.056 71.8006 214.148 72.396C215.161 72.9906 216.175 73.4432 217.066 73.9431C217.881 74.3699 218.626 74.919 219.275 75.5713C219.765 76.0708 220.153 76.6604 220.417 77.3076C220.583 77.7156 220.673 78.1507 220.681 78.5912C220.689 78.7059 220.689 78.8211 220.681 78.9357C220.694 78.9763 220.687 79.0168 220.681 79.0168Z" fill="#263238"/>
<path d="M200.933 83.6648C200.829 83.7165 200.717 83.7508 200.602 83.7662C200.465 83.7996 200.324 83.8222 200.183 83.8337C199.993 83.8624 199.801 83.8759 199.609 83.8743C198.362 83.8755 197.145 83.4934 196.123 82.7798C195.409 82.2966 194.809 81.6624 194.366 80.9219C193.895 80.0583 193.588 79.1144 193.461 78.1385C193.339 77.0985 193.042 76.0867 192.583 75.1457C192.056 74.2066 191.076 73.5851 190.191 72.7811C189.287 71.9971 188.697 70.9126 188.529 69.7275C188.372 68.6262 188.593 67.5042 189.158 66.5454C189.708 65.7644 190.181 64.9318 190.57 64.0593C190.834 63.2799 190.933 62.4538 190.86 61.6339C190.726 60.4331 190.438 59.2546 190.002 58.1276C189.832 57.715 189.686 57.2932 189.563 56.8643C189.633 56.9572 189.69 57.0595 189.732 57.1683C189.827 57.3777 189.968 57.6817 190.131 58.0803C190.623 59.2057 190.953 60.3954 191.11 61.6136C191.202 62.4717 191.112 63.3394 190.847 64.1606C190.464 65.0543 189.994 65.9075 189.441 66.7076C188.918 67.6046 188.718 68.6536 188.874 69.6802C189.03 70.7853 189.582 71.7962 190.428 72.5244C191.272 73.2946 192.299 73.9431 192.88 74.97C193.359 75.9455 193.663 76.9973 193.779 78.0777C193.891 79.0221 194.175 79.938 194.616 80.7801C195.029 81.4935 195.591 82.109 196.265 82.5839C197.24 83.292 198.404 83.6941 199.609 83.7391C200.46 83.7594 200.926 83.6243 200.933 83.6648Z" fill="#263238"/>
<path d="M220.647 51.3717C220.713 51.4501 220.753 51.5468 220.762 51.6487C220.776 51.7947 220.76 51.9422 220.715 52.0817C220.67 52.2213 220.596 52.3499 220.498 52.4594C220.348 52.6395 220.163 52.787 219.954 52.8927C219.745 52.9984 219.516 53.0602 219.282 53.0742C218.678 53.0374 218.091 52.8617 217.566 52.5608C216.96 52.2222 216.286 52.0237 215.593 51.9798C214.788 51.9585 213.983 52.0311 213.195 52.196C212.306 52.3885 211.402 52.5038 210.493 52.5405C209.47 52.5811 208.472 52.217 207.716 51.5271C207.037 50.8078 206.497 49.9696 206.122 49.0545C205.776 48.2344 205.341 47.455 204.825 46.7304C204.384 46.1377 203.779 45.6865 203.086 45.4321C202.392 45.1777 201.639 45.1311 200.92 45.2982C199.939 45.5589 199.096 46.185 198.562 47.048C198.374 47.3704 198.207 47.7044 198.062 48.0478C198.062 48.0478 198.062 47.9465 198.116 47.7573C198.19 47.4833 198.299 47.22 198.44 46.9737C198.871 46.1778 199.564 45.5561 200.402 45.2148C201.24 44.8735 202.17 44.8337 203.034 45.1023C203.842 45.3542 204.551 45.8527 205.061 46.5278C205.598 47.268 206.051 48.0655 206.412 48.9058C206.774 49.7796 207.292 50.5807 207.939 51.2704C208.628 51.9024 209.539 52.2353 210.472 52.196C211.363 52.1616 212.249 52.0531 213.121 51.8717C213.935 51.7103 214.765 51.6468 215.593 51.6825C216.321 51.7544 217.025 51.9851 217.654 52.3581C218.143 52.6549 218.693 52.8395 219.262 52.8986C219.472 52.8921 219.679 52.844 219.87 52.757C220.061 52.67 220.234 52.5459 220.377 52.3919C220.47 52.298 220.544 52.1862 220.594 52.0632C220.644 51.9402 220.669 51.8085 220.667 51.6757C220.647 51.4663 220.593 51.3785 220.647 51.3717Z" fill="#455A64"/>
<path d="M216.816 49.4193C215.699 49.1627 214.704 48.5278 214.001 47.622C213.298 46.7162 212.93 45.5952 212.958 44.4489C212.987 43.3026 213.411 42.2015 214.158 41.3319C214.906 40.4623 215.931 39.8778 217.06 39.6773C217.593 39.5464 218.152 39.564 218.676 39.7284C219.2 39.8927 219.669 40.1975 220.032 40.6096C220.654 41.4541 220.613 42.7175 221.383 43.4066C222.153 44.0957 223.532 43.8254 224.626 44.0821C225.465 44.3214 226.192 44.8507 226.677 45.5757C227.162 46.3007 227.373 47.1744 227.274 48.0411C227.137 48.9026 226.775 49.7128 226.226 50.391C225.678 51.0691 224.96 51.5913 224.146 51.9054C222.498 52.507 220.695 52.5403 219.025 52C217.37 51.4632 215.796 50.6993 214.35 49.7301" fill="#263238"/>
<path d="M224.957 44.5213C224.893 44.9687 224.724 45.3946 224.464 45.7643C223.902 46.7021 223.123 47.4919 222.194 48.0681C221.265 48.648 220.211 48.9999 219.12 49.095C218.668 49.165 218.206 49.1303 217.769 48.9937C217.769 48.9328 218.282 48.9937 219.073 48.845C220.106 48.6881 221.097 48.3226 221.985 47.7708C222.87 47.2142 223.635 46.486 224.234 45.6292C224.7 44.9739 224.903 44.501 224.957 44.5213Z" fill="#455A64"/>
<path d="M221.376 52.0136C220.506 50.8664 219.414 49.9058 218.165 49.1886C216.917 48.4714 215.537 48.0123 214.107 47.8384C214.533 47.7555 214.971 47.7555 215.398 47.8384C217.49 48.1452 219.387 49.234 220.708 50.8853C221.007 51.2109 221.234 51.5951 221.376 52.0136Z" fill="#E8505B"/>
<path d="M172.146 125.592L161.195 123.47L163.168 126.274L158.493 128.612L154.581 126.781C154.885 127.58 155.268 128.347 155.723 129.071C156.581 130.497 157.75 131.645 158.466 131.699C158.706 132.686 159.205 133.591 159.912 134.32C160.547 134.954 161.337 135.412 162.202 135.649C163.068 135.885 163.98 135.893 164.85 135.672L172.207 133.01L172.146 125.592Z" fill="#FFBE9D"/>
<path d="M161.1 131.084C160.92 131.311 160.691 131.495 160.43 131.622C160.169 131.749 159.884 131.817 159.594 131.821C159.31 131.88 159.016 131.878 158.733 131.813C158.449 131.749 158.183 131.625 157.952 131.449C157.993 131.348 158.689 131.578 159.553 131.449C160.418 131.321 161.046 130.997 161.1 131.084Z" fill="#EB996E"/>
<path d="M162.546 133.415C162.614 133.483 162.141 134.01 161.33 134.219C161.095 134.31 160.843 134.348 160.592 134.329C160.341 134.31 160.097 134.236 159.878 134.111C159.878 134.01 160.553 134.07 161.229 133.881C161.905 133.692 162.465 133.341 162.546 133.415Z" fill="#EB996E"/>
<path d="M165.296 125.166C164.997 125.382 164.678 125.57 164.343 125.727C163.756 126.058 162.992 126.612 162.134 127.207C161.4 127.739 160.583 128.148 159.716 128.416C159.358 128.551 158.97 128.586 158.594 128.517C158.594 128.463 159.013 128.416 159.641 128.179C160.453 127.847 161.223 127.423 161.938 126.916C162.665 126.388 163.43 125.916 164.229 125.504C164.554 125.311 164.919 125.196 165.296 125.166Z" fill="#EB996E"/>
<path d="M231.727 143.772C231.727 143.772 232.098 144.008 233.03 145.664C235.888 150.764 237.043 162.986 226.275 173.896C212.344 187.989 196.029 211.054 196.029 211.054L183.192 265.209L163.844 261.013L173.815 204.73L201.156 154.007L231.727 143.772Z" fill="#263238"/>
<path d="M253.075 248.589L223.268 202.974L214.222 163.594L191.205 174.91L202.751 214.878L239.584 260.763L253.075 248.589Z" fill="#263238"/>
<path d="M183.206 265.209C183.21 265.117 183.226 265.026 183.253 264.939C183.294 264.749 183.348 264.493 183.415 264.162C183.577 263.486 183.8 262.466 184.091 261.182L186.624 250.251C188.793 241.009 191.786 228.274 195.096 214.209C195.353 213.114 195.61 212.027 195.853 211.013V210.966C204.298 200.156 211.993 190.597 217.654 183.807C220.492 180.429 222.809 177.727 224.45 175.876C225.254 174.95 225.917 174.261 226.356 173.788L226.856 173.255C226.97 173.133 227.031 173.072 227.038 173.079C226.992 173.148 226.94 173.214 226.883 173.275L226.403 173.829C225.984 174.322 225.342 175.025 224.545 175.964C222.937 177.821 220.654 180.551 217.843 183.963C212.229 190.793 204.568 200.379 196.13 211.182V211.114C195.893 212.128 195.637 213.216 195.373 214.31L186.868 250.312C185.753 254.899 184.841 258.622 184.226 261.216C183.908 262.486 183.665 263.486 183.49 264.175C183.408 264.506 183.341 264.756 183.294 264.945C183.273 265.036 183.243 265.124 183.206 265.209Z" fill="#455A64"/>
<path d="M218.161 158.169C218.023 158.283 217.865 158.37 217.695 158.425C217.248 158.619 216.784 158.77 216.31 158.878C214.73 159.239 213.084 159.19 211.529 158.737C209.973 158.285 208.558 157.442 207.419 156.291C207.076 155.945 206.764 155.569 206.487 155.169C206.297 154.879 206.21 154.71 206.23 154.696C206.25 154.683 206.703 155.291 207.581 156.108C208.729 157.176 210.111 157.96 211.615 158.399C213.12 158.837 214.707 158.918 216.249 158.635C217.445 158.419 218.14 158.115 218.161 158.169Z" fill="#455A64"/>
<path d="M234.598 146.109C222.937 152.251 204.014 155.919 197.961 153.426L197.751 130.963C197.751 130.963 189.462 117.296 189.428 112.127C189.381 104.696 198.657 87.6913 198.657 87.6913L212.58 83.9553C215.384 83.8956 218.158 84.5414 220.647 85.8335C223.251 87.2765 225.37 89.4577 226.737 92.1025C228.104 94.7473 228.657 97.7375 228.328 100.696L224.822 123.045L234.598 146.109Z" fill="#F86241"/>
<g opacity="0.3">
<path d="M219.654 85.8132C220.464 85.6916 220.762 87.009 220.188 87.59C219.613 88.171 218.701 88.198 217.897 88.3197C214.269 88.8871 211.466 91.9948 210.148 95.4201C208.831 98.8453 208.703 102.588 208.486 106.229C208.27 109.871 207.912 113.661 206.189 116.911C204.581 114.059 203.627 110.885 203.398 107.619C203.169 104.353 203.67 101.077 204.865 98.0291C206.06 94.981 207.919 92.2371 210.306 89.9968C212.693 87.7564 215.55 86.0758 218.667 85.0768" fill="black"/>
</g>
<path d="M220.647 85.8335C220.647 85.8335 218.62 82.5299 211.918 83.9621C207.432 84.9214 197.623 94.3459 200.359 109.486C203.095 124.626 210.432 129.99 210.432 129.99C210.432 129.99 203.676 106.81 207.432 96.6969C208.416 93.8417 210.171 91.3149 212.504 89.3972C214.837 87.4795 217.655 86.2459 220.647 85.8335Z" fill="#1A3948"/>
<g opacity="0.3">
<path d="M198.008 135.732C200.785 136.624 203.446 137.759 206.338 138.124C209.231 138.599 212.199 138.289 214.931 137.225C218.64 135.645 221.397 132.267 222.815 128.49C224.234 124.714 224.43 120.579 224.052 116.559C221.518 119.694 221.822 124.335 219.667 127.747C218.316 129.875 216.12 131.328 213.864 132.476C208.927 134.85 203.482 135.975 198.008 135.753" fill="black"/>
</g>
<path d="M206.358 112.783C206.358 112.783 205.453 129.835 226.254 126.443L228.349 131.375C228.349 131.375 206.48 135.996 203.352 117.863L206.358 112.783Z" fill="#1A3948"/>
<path d="M225.315 91.5895C226.19 92.8903 226.78 94.3617 227.046 95.907C227.311 97.4522 227.246 99.0362 226.855 100.555L221.674 123.747C219.451 130.274 213.107 134.239 209.162 134.766L172.214 138.678V124.889L206.514 119.795L208.121 101.014C208.263 98.4872 209.506 93.9473 211.114 91.9881C212.911 89.8059 215.675 86.8334 220.187 87.59C222.951 88.0494 224.126 89.8938 225.315 91.5895Z" fill="#F86241"/>
<path d="M226.383 101.46C226.388 101.634 226.377 101.808 226.349 101.98C226.308 102.325 226.247 102.824 226.16 103.473C225.984 104.77 225.714 106.635 225.302 108.932C224.889 111.229 224.363 113.965 223.667 116.971C223.322 118.471 222.951 120.052 222.498 121.7C222.056 123.388 221.449 125.029 220.687 126.598C219.918 128.177 218.859 129.598 217.566 130.787C216.361 131.89 214.994 132.801 213.513 133.489C211 134.615 208.317 135.312 205.574 135.55C203.244 135.786 201.352 135.8 200.048 135.813H198.542C198.369 135.829 198.194 135.829 198.021 135.813C198.193 135.783 198.367 135.769 198.542 135.773L200.041 135.712C201.345 135.658 203.237 135.604 205.547 135.334C208.253 135.067 210.897 134.355 213.371 133.226C214.823 132.555 216.165 131.666 217.35 130.591C218.606 129.422 219.636 128.032 220.39 126.49C221.139 124.941 221.739 123.323 222.18 121.66C222.633 120.052 223.011 118.478 223.369 116.978C224.045 113.978 224.64 111.263 225.072 108.972C225.504 106.682 225.822 104.824 226.038 103.568C226.146 102.953 226.227 102.46 226.288 102.088C226.304 101.877 226.335 101.667 226.383 101.46Z" fill="#263238"/>
<path d="M207.507 123.747C207.122 123.121 206.841 122.437 206.676 121.721C206.395 121.048 206.226 120.334 206.176 119.606C206.843 120.897 207.299 122.286 207.527 123.72L207.507 123.747Z" fill="#263238"/>
<path d="M209.608 123.221C208.878 122.878 208.234 122.378 207.723 121.754C207.129 121.213 206.667 120.543 206.372 119.795C206.949 120.334 207.49 120.909 207.993 121.518C208.57 122.048 209.109 122.617 209.608 123.221Z" fill="#263238"/>
<path d="M175.43 124.416L175.585 124.376L176.045 124.288L177.815 123.997L184.388 122.964L206.46 119.626L206.311 119.782C206.432 118.498 206.561 117.147 206.696 115.769C207.135 110.898 207.601 106.256 207.831 102.021C207.991 100.007 208.376 98.017 208.979 96.0889C209.464 94.3821 210.286 92.79 211.398 91.4071C213.587 89.0222 216.039 87.7589 217.843 87.5292C218.532 87.4311 219.233 87.4448 219.917 87.5697C220.147 87.617 220.323 87.6711 220.437 87.7048L220.613 87.7656C219.711 87.5586 218.778 87.5242 217.863 87.6643C216.107 87.9278 213.715 89.2046 211.587 91.5759C210.511 92.9373 209.72 94.5022 209.263 96.1767C208.674 98.0857 208.302 100.055 208.155 102.048C207.946 106.283 207.48 110.932 207.04 115.803C206.912 117.154 206.784 118.505 206.655 119.816V119.951H206.52L184.402 123.18L177.815 124.099L176.031 124.335L175.572 124.389L175.43 124.416Z" fill="#263238"/>
<path d="M196.576 135.651C196.481 135.651 196.089 132.537 195.704 128.679C195.319 124.822 195.083 121.673 195.177 121.66C195.59 123.969 195.884 126.299 196.055 128.639C196.349 130.966 196.523 133.306 196.576 135.651Z" fill="#FAFAFA"/>
<path d="M223.626 114.715C222.844 114.782 222.059 114.793 221.275 114.749C219.823 114.749 217.823 114.668 215.607 114.586C213.391 114.505 211.391 114.411 209.946 114.323C209.162 114.31 208.381 114.24 207.608 114.114C208.389 114.037 209.176 114.023 209.959 114.073C211.405 114.073 213.411 114.154 215.62 114.235C217.83 114.316 219.829 114.411 221.282 114.499C222.068 114.508 222.852 114.58 223.626 114.715Z" fill="#FAFAFA"/>
<path d="M200.17 110.303C199.669 110.432 199.154 110.5 198.636 110.506C197.69 110.573 196.373 110.621 194.92 110.594C193.468 110.567 192.151 110.465 191.205 110.357C190.689 110.334 190.178 110.246 189.685 110.094C190.197 110.043 190.713 110.043 191.225 110.094C192.171 110.141 193.481 110.195 194.927 110.222C196.373 110.249 197.684 110.222 198.629 110.222C199.144 110.192 199.661 110.219 200.17 110.303Z" fill="#FAFAFA"/>
<path d="M203.223 94.2783C203.169 94.3662 201.751 93.6027 199.913 92.9272C198.075 92.2516 196.535 91.8395 196.535 91.7381C198.937 92.0314 201.232 92.903 203.223 94.2783Z" fill="#FAFAFA"/>
<path d="M230.058 136.428C229.965 136.495 229.862 136.547 229.754 136.584L228.862 136.948C228.092 137.266 226.957 137.685 225.545 138.178C221.86 139.447 218.11 140.516 214.31 141.38C210.51 142.265 206.665 142.942 202.791 143.407C201.305 143.576 200.089 143.691 199.264 143.745L198.305 143.799C198.193 143.817 198.079 143.817 197.967 143.799C198.074 143.762 198.186 143.739 198.298 143.731L199.251 143.61C200.082 143.515 201.278 143.367 202.764 143.164C205.716 142.759 209.79 142.09 214.249 141.076C218.708 140.063 222.647 138.887 225.484 137.962C226.903 137.502 228.051 137.117 228.862 136.84L229.774 136.536C229.865 136.492 229.96 136.456 230.058 136.428Z" fill="#FAFAFA"/>
<path d="M227.855 96.0281C227.855 96.1227 223.869 96.0754 218.958 95.9132C214.046 95.7511 210.074 95.5484 210.074 95.4538C210.074 95.3593 214.06 95.4065 218.971 95.5619C223.883 95.7173 227.855 95.9267 227.855 96.0281Z" fill="#FAFAFA"/>
<path d="M180.247 137.658C179.987 135.415 179.842 133.16 179.814 130.902C179.668 128.653 179.641 126.398 179.733 124.146C179.993 126.389 180.138 128.644 180.166 130.902C180.312 133.151 180.339 135.406 180.247 137.658Z" fill="#FAFAFA"/>
<path d="M104.669 68.5654C110.684 67.4489 116.893 68.1013 122.545 70.4435C125.051 71.4907 127.537 72.9702 128.888 75.328C130.496 78.1115 130.24 81.5435 130.057 84.7525C129.704 91.2903 129.93 97.8466 130.733 104.345C131.408 109.749 132.469 115.154 132.449 120.559C132.429 125.963 131.212 131.652 127.801 135.895C122.538 142.427 113.168 144.265 104.831 143.15C100.453 142.569 96.0819 141.259 92.508 138.651C88.9342 136.043 86.2588 132.023 85.9548 127.619" fill="#455A64"/>
<path d="M115.086 76.8481C115.866 77.7698 116.528 78.7841 117.059 79.868C117.607 81.0618 118.059 82.2976 118.41 83.5635C118.832 85.1331 119.353 86.6743 119.971 88.1778C120.614 89.7072 121.615 91.0601 122.889 92.1232C123.952 92.9965 125.284 93.474 126.659 93.4744C127.572 93.4833 128.469 93.2275 129.24 92.738C129.446 92.6021 129.634 92.4409 129.801 92.2583C129.915 92.1367 129.969 92.0624 129.956 92.0556C129.942 92.0489 129.686 92.2786 129.145 92.5893C128.381 93.0074 127.516 93.2083 126.646 93.1704C125.353 93.1305 124.113 92.6543 123.126 91.8192C121.924 90.7825 120.98 89.4803 120.369 88.0156C119.755 86.5295 119.227 85.0092 118.788 83.4622C118.416 82.1838 117.932 80.9405 117.343 79.7464C116.938 78.9408 116.427 78.1933 115.823 77.5237C115.617 77.2582 115.368 77.0298 115.086 76.8481Z" fill="#263238"/>
<path d="M117.471 142.731C117.523 142.56 117.557 142.383 117.572 142.205C117.626 141.808 117.694 141.295 117.775 140.664C117.944 139.313 118.167 137.394 118.451 135.003C118.957 130.213 119.565 123.592 120.092 116.269C120.619 108.945 120.937 102.298 121.112 97.4806C121.2 95.0755 121.254 93.1298 121.275 91.7854C121.275 91.1503 121.275 90.6369 121.275 90.2383C121.295 90.0587 121.295 89.8774 121.275 89.6978C121.237 89.8733 121.216 90.0521 121.214 90.2315C121.214 90.6369 121.153 91.1436 121.112 91.7786C121.038 93.1771 120.937 95.1093 120.808 97.4671C120.552 102.277 120.173 108.912 119.66 116.235C119.147 123.558 118.572 130.179 118.147 134.969C117.937 137.327 117.768 139.252 117.647 140.644C117.593 141.279 117.552 141.792 117.525 142.191C117.486 142.368 117.468 142.55 117.471 142.731Z" fill="#263238"/>
<path d="M120.14 113.391C120.14 113.506 122.747 113.87 126.011 113.951C129.274 114.032 131.908 113.816 131.902 113.695C131.895 113.573 129.267 113.593 126.024 113.506C122.781 113.418 120.153 113.262 120.14 113.391Z" fill="#263238"/>
<path d="M122.261 113.681C121.997 114.034 121.813 114.44 121.721 114.87C121.574 115.312 121.457 115.764 121.369 116.221C121.295 116.523 121.295 116.838 121.369 117.14C121.42 117.324 121.522 117.49 121.663 117.619C121.804 117.748 121.979 117.835 122.166 117.87C122.272 117.886 122.38 117.879 122.483 117.848C122.586 117.818 122.681 117.765 122.761 117.694C122.906 117.565 123.003 117.392 123.038 117.201C123.085 116.906 123.085 116.605 123.038 116.309C122.991 115.834 122.9 115.363 122.768 114.904C122.688 114.468 122.508 114.056 122.241 113.701C122.267 114.134 122.342 114.562 122.464 114.978C122.545 115.425 122.599 115.876 122.626 116.33C122.663 116.58 122.663 116.835 122.626 117.086C122.572 117.316 122.43 117.444 122.247 117.417C121.781 117.336 121.68 116.742 121.775 116.275C121.869 115.809 121.943 115.296 122.025 114.924C122.155 114.522 122.235 114.104 122.261 113.681Z" fill="#263238"/>
<path d="M98.5001 70.2123L126.772 71.1453C130.348 71.2633 133.343 68.4598 133.461 64.8836L133.642 59.3873C133.76 55.811 130.957 52.8163 127.38 52.6982L99.1088 51.7653C95.5326 51.6473 92.5378 54.4508 92.4198 58.027L92.2384 63.5233C92.1204 67.0995 94.9239 70.0943 98.5001 70.2123Z" fill="#263238"/>
<path d="M126.7 53.0404C126.7 53.0404 126.625 52.9729 126.456 52.8918C126.205 52.7744 125.939 52.6925 125.666 52.6486C124.645 52.4956 123.603 52.6908 122.707 53.2026C121.347 53.8769 120.192 54.9034 119.363 56.1751C118.41 57.7653 117.864 59.5661 117.775 61.4177C117.597 63.2741 117.976 65.1415 118.863 66.7819C119.592 68.1221 120.708 69.212 122.065 69.9099C122.967 70.3786 123.961 70.6416 124.977 70.68C125.252 70.6915 125.528 70.6779 125.801 70.6395C125.897 70.6369 125.992 70.6139 126.078 70.5719C126.078 70.5314 125.686 70.5719 124.99 70.5044C124.014 70.4045 123.069 70.1056 122.214 69.6261C120.94 68.927 119.9 67.8701 119.221 66.5859C118.396 65.0079 118.049 63.2238 118.221 61.4515C118.307 59.6706 118.817 57.936 119.707 56.3913C120.49 55.167 121.574 54.1643 122.855 53.4795C123.692 52.9677 124.668 52.7314 125.646 52.804C126.335 52.8783 126.686 53.081 126.7 53.0404Z" fill="#455A64"/>
<path d="M110.79 52.0676L115.086 52.2837C113.905 52.4646 112.829 53.064 112.053 53.9727C111.287 54.8771 110.723 55.9342 110.398 57.0737C108.905 61.8028 110.708 67.4642 114.451 70.7273L110.972 70.6733C110.972 70.6733 102.507 60.4584 110.763 52.0676" fill="#455A64"/>
<path d="M89.7921 43.974C88.0356 39.7246 87.941 32.3472 90.6231 28.4355C93.3052 24.5238 98.3316 21.9904 102.946 21.004C103.705 20.7706 104.517 20.7706 105.277 21.004C105.646 21.1432 105.95 21.4164 106.128 21.7693C106.306 22.1223 106.344 22.5292 106.236 22.9092C107.133 22.2937 108.126 21.8324 109.175 21.5445C109.702 21.3956 110.258 21.3793 110.793 21.4972C111.328 21.6151 111.826 21.8634 112.242 22.2201C112.442 22.4036 112.604 22.6255 112.717 22.8726C112.83 23.1198 112.892 23.3872 112.9 23.6588C112.907 23.9305 112.86 24.2009 112.761 24.4539C112.662 24.707 112.513 24.9375 112.323 25.1319C112.973 24.8908 113.68 24.8463 114.355 25.004C115.031 25.1617 115.644 25.5147 116.121 26.0189C116.597 26.5231 116.914 27.1562 117.033 27.8394C117.151 28.5226 117.067 29.2257 116.789 29.861C116.157 31.1621 115.281 32.3295 114.208 33.2997C113.242 34.1915 113.08 35.1103 113.242 36.4142" fill="#263238"/>
<path d="M90.8934 36.1845L89.6774 62.1811C89.627 63.2289 89.7902 64.276 90.1572 65.2588C90.5242 66.2415 91.0872 67.1393 91.812 67.8977C92.5369 68.656 93.4084 69.259 94.3735 69.6699C95.3387 70.0809 96.3774 70.2912 97.4264 70.2882C99.4121 70.2781 101.318 69.5054 102.75 68.1298C104.182 66.7542 105.031 64.881 105.121 62.8972C105.209 60.938 105.29 59.3031 105.31 59.1072C105.31 59.1072 111.958 58.7964 112.742 52.2703C113.12 49.1153 113.377 42.5553 113.532 36.6169C113.614 33.5411 112.535 30.5472 110.51 28.2312C108.484 25.9151 105.661 24.4468 102.601 24.1185L101.973 24.0509C95.1496 23.7131 91.0421 29.334 90.8934 36.1845Z" fill="#FFBE9D"/>
<path d="M105.351 59.0126C102.329 58.7456 99.4543 57.5836 97.0953 55.6752C97.0953 55.6752 98.3992 59.7625 104.979 59.8774L105.351 59.0126Z" fill="#EB996E"/>
<path d="M111.202 40.7852C111.178 41.0297 111.059 41.255 110.871 41.4128C110.682 41.5707 110.44 41.6486 110.195 41.6297C110.076 41.6263 109.958 41.5989 109.849 41.5492C109.741 41.4994 109.643 41.4283 109.562 41.34C109.482 41.2518 109.419 41.1483 109.38 41.0355C109.34 40.9228 109.323 40.8032 109.33 40.6839C109.354 40.4407 109.472 40.2165 109.659 40.0588C109.846 39.9011 110.086 39.8224 110.33 39.8394C110.45 39.8437 110.567 39.8717 110.676 39.9217C110.784 39.9717 110.882 40.0427 110.963 40.1307C111.044 40.2186 111.107 40.3217 111.148 40.4341C111.189 40.5464 111.207 40.6658 111.202 40.7852Z" fill="#263238"/>
<path d="M111.803 39.6705C111.674 39.7786 111.026 39.1841 110.019 39.076C109.013 38.9679 108.229 39.3935 108.134 39.2584C108.04 39.1233 108.222 38.9882 108.574 38.7922C109.04 38.5393 109.573 38.4356 110.1 38.495C110.624 38.55 111.116 38.7701 111.506 39.1233C111.789 39.3665 111.877 39.6232 111.803 39.6705Z" fill="#263238"/>
<path d="M101.291 40.0421C101.267 40.2853 101.149 40.5095 100.962 40.6672C100.775 40.8249 100.535 40.9036 100.291 40.8866C100.171 40.8823 100.054 40.8543 99.9452 40.8043C99.8366 40.7543 99.739 40.6833 99.6579 40.5953C99.5769 40.5074 99.5141 40.4043 99.4731 40.2919C99.4322 40.1796 99.4139 40.0602 99.4193 39.9408C99.4417 39.6969 99.5591 39.4716 99.7462 39.3136C99.9333 39.1556 100.175 39.0775 100.419 39.0963C100.539 39.0988 100.658 39.1255 100.767 39.1749C100.877 39.2243 100.975 39.2952 101.056 39.3836C101.138 39.4719 101.201 39.5758 101.241 39.6889C101.281 39.8021 101.298 39.9222 101.291 40.0421Z" fill="#263238"/>
<path d="M101.912 38.7923C101.784 38.9004 101.135 38.3058 100.129 38.1977C99.1221 38.0897 98.3316 38.5153 98.237 38.3802C98.1425 38.245 98.3316 38.1167 98.6762 37.914C99.1454 37.6618 99.6803 37.5581 100.21 37.6167C100.732 37.6749 101.223 37.8945 101.615 38.245C101.892 38.5153 101.973 38.745 101.912 38.7923Z" fill="#263238"/>
<path d="M104.756 46.6358C105.303 46.5226 105.861 46.4818 106.418 46.5142C106.675 46.5142 106.925 46.5142 106.986 46.3251C107.039 46.0633 107.008 45.7916 106.898 45.5481L106.351 43.5214C105.594 40.6299 105.081 38.2586 105.196 38.2315C105.31 38.2045 106.02 40.5218 106.776 43.42C106.952 44.0956 107.128 44.8118 107.29 45.4468C107.409 45.7764 107.409 46.1373 107.29 46.4669C107.245 46.5542 107.179 46.6297 107.1 46.6872C107.02 46.7446 106.928 46.7826 106.831 46.798C106.685 46.8176 106.537 46.8176 106.391 46.798C105.842 46.8155 105.292 46.761 104.756 46.6358Z" fill="#263238"/>
<path d="M101.743 47.0141C101.906 47.0141 101.791 48.1086 102.642 48.9869C103.493 49.8651 104.669 49.8651 104.669 50.0205C104.669 50.1759 104.392 50.2029 103.899 50.1624C103.258 50.104 102.659 49.8189 102.21 49.3584C101.778 48.9205 101.536 48.3312 101.534 47.7168C101.5 47.2574 101.649 47.0006 101.743 47.0141Z" fill="#263238"/>
<path d="M102.595 34.8874C102.466 35.1509 101.48 34.8874 100.284 34.9279C99.0884 34.9684 98.102 35.1576 97.9736 34.9279C97.9196 34.7996 98.1088 34.5631 98.5209 34.3401C99.0672 34.0638 99.6719 33.9225 100.284 33.928C100.895 33.9222 101.499 34.0586 102.047 34.3266C102.46 34.5226 102.655 34.759 102.595 34.8874Z" fill="#263238"/>
<path d="M111.749 36.725C111.546 36.9344 110.884 36.6236 110.053 36.5223C109.222 36.421 108.499 36.5223 108.364 36.2521C108.303 36.1305 108.438 35.9143 108.769 35.7319C109.208 35.5246 109.697 35.4499 110.177 35.5172C110.657 35.5844 111.107 35.7905 111.472 36.1102C111.769 36.3737 111.837 36.6236 111.749 36.725Z" fill="#263238"/>
<path d="M90.934 41.0825C90.8259 41.0217 86.5899 39.2719 86.2454 43.7511C85.9008 48.2302 90.4813 47.656 90.4948 47.5276C90.5083 47.3992 90.934 41.0825 90.934 41.0825Z" fill="#FFBE9D"/>
<path d="M89.2315 45.7238C89.2315 45.7238 89.1504 45.7711 89.0086 45.8251C88.8217 45.8975 88.6145 45.8975 88.4276 45.8251C88.1517 45.6193 87.9355 45.3437 87.8014 45.0267C87.6672 44.7097 87.6198 44.3627 87.6642 44.0213C87.6831 43.6363 87.7869 43.2603 87.9682 42.9201C88.021 42.7843 88.1056 42.6631 88.215 42.5667C88.3243 42.4703 88.4551 42.4015 88.5965 42.3661C88.6883 42.3489 88.7833 42.3645 88.8648 42.4102C88.9463 42.4559 89.0091 42.5288 89.0424 42.6161C89.0964 42.7444 89.0424 42.8323 89.0829 42.839C89.1234 42.8458 89.1842 42.7715 89.164 42.5891C89.1455 42.4758 89.091 42.3716 89.0086 42.2918C88.8917 42.1883 88.7388 42.1349 88.583 42.1432C88.3964 42.1659 88.2189 42.2362 88.0674 42.3475C87.916 42.4587 87.7957 42.607 87.7182 42.7782C87.4959 43.1512 87.3705 43.5739 87.3534 44.0078C87.2987 44.4053 87.3632 44.8101 87.5388 45.1709C87.7144 45.5317 87.9932 45.8323 88.3398 46.0346C88.4582 46.0793 88.5852 46.0971 88.7114 46.0866C88.8377 46.0761 88.96 46.0375 89.0694 45.9737C89.2113 45.8319 89.245 45.7305 89.2315 45.7238Z" fill="#EB996E"/>
<path d="M117.059 28.3747C117.14 34.2253 109.796 36.1034 106.925 32.6174C105.574 31.0027 104.459 29.0233 102.534 28.199C101.875 27.943 101.172 27.8213 100.465 27.841C99.7585 27.8608 99.063 28.0215 98.4195 28.3139H98.3789C96.4603 29.1313 95.2037 31.1851 94.7578 33.2254C94.143 36.0696 94.4065 38.6301 93.4607 41.2176C93.3634 41.6055 93.14 41.9501 92.8256 42.1972C92.2581 42.5418 91.4744 42.1432 91.0893 41.6095C90.4988 40.7033 90.1865 39.6441 90.1908 38.5626C89.9825 36.1177 90.2627 33.6558 91.015 31.3203C91.7784 28.9785 93.2111 26.9117 95.1361 25.3751C97.6175 23.5437 100.713 22.7469 103.77 23.1524C106.817 23.5781 109.653 24.9512 111.877 27.0776C112.952 28.0132 113.776 29.2021 114.276 30.5366" fill="#263238"/>
<path d="M112.553 24.8144C112.763 24.7863 112.977 24.8119 113.174 24.8887C113.724 25.0727 114.211 25.4075 114.58 25.8548C115.149 26.5051 115.482 27.3288 115.525 28.1923C115.533 29.2575 115.146 30.2878 114.438 31.0838C113.757 31.8796 112.868 32.4693 111.87 32.7863C111.068 33.0434 110.227 33.1645 109.384 33.1444C108.822 33.1342 108.261 33.0754 107.709 32.9687C107.501 32.9488 107.299 32.8891 107.114 32.793C107.114 32.7322 107.986 32.9282 109.378 32.9011C110.191 32.8855 110.997 32.7465 111.769 32.489C112.701 32.1699 113.532 31.6078 114.174 30.8609C114.826 30.1291 115.191 29.1859 115.201 28.2058C115.18 27.4057 114.898 26.6345 114.397 26.0101C114.063 25.5826 113.623 25.2496 113.12 25.0441C112.776 24.8684 112.553 24.8481 112.553 24.8144Z" fill="#455A64"/>
<path d="M109.715 22.5309C109.715 22.5309 109.884 22.4903 110.141 22.639C110.313 22.7518 110.457 22.9012 110.565 23.0763C110.672 23.2515 110.74 23.4481 110.762 23.6523C110.806 24.2532 110.639 24.8505 110.29 25.3413C109.92 25.9445 109.465 26.4907 108.938 26.9627C107.978 27.8286 106.817 28.4416 105.56 28.7463C105.052 28.9044 104.516 28.955 103.986 28.8949C103.986 28.8273 104.581 28.8003 105.493 28.5098C106.677 28.1482 107.767 27.5326 108.688 26.706C109.195 26.2555 109.642 25.7424 110.019 25.1792C110.345 24.7495 110.52 24.2251 110.519 23.6861C110.508 23.5081 110.462 23.334 110.383 23.174C110.304 23.014 110.194 22.8712 110.06 22.7538C109.85 22.5917 109.709 22.5579 109.715 22.5309Z" fill="#455A64"/>
<path d="M90.7178 86.3671L92.8189 71.0043L62.6268 77.0846L35.1507 67.5385L27.726 75.1726L56.9654 90.2315C59.5733 91.477 62.5118 91.8535 65.3494 91.3057L90.7178 86.3671Z" fill="#FFBE9D"/>
<path d="M35.1507 67.5385C35.1507 67.5385 24.6453 62.5121 23.9697 62.3365C23.4495 62.2014 15.5181 61.7825 11.9037 61.5933C11.6204 61.5909 11.3465 61.6946 11.1357 61.8839C10.9249 62.0732 10.7926 62.3344 10.7646 62.6164C10.7367 62.8983 10.8152 63.1804 10.9847 63.4074C11.1542 63.6344 11.4025 63.7898 11.6808 63.843H11.8159C13.8426 64.0119 18.2745 65.0253 18.2745 65.0253L16.2477 69.7544C16.1495 69.9887 16.1327 70.2492 16.2001 70.4942C16.2675 70.7392 16.4151 70.9545 16.6193 71.1056L22.7334 75.6253C23.5339 75.9893 24.4163 76.136 25.2915 76.0506C26.1668 75.9652 27.0041 75.6507 27.7192 75.1389L30.4216 75.6929L35.1507 67.5385Z" fill="#FFBE9D"/>
<path d="M16.2274 70.0517C16.4166 70.9367 18.5244 72.7541 20.1256 72.7541C20.4787 72.7599 20.8219 72.6375 21.0917 72.4095C21.2197 72.2897 21.3092 72.1345 21.3489 71.9637C21.3886 71.7929 21.3767 71.6142 21.3146 71.4502C21.2018 71.2484 21.0419 71.0768 20.8484 70.9503L17.2948 68.1601" fill="#FFBE9D"/>
<path d="M17.2948 68.1601C17.8243 68.4432 18.3245 68.7782 18.7879 69.16L20.3485 70.3287C20.6458 70.5584 20.943 70.7543 21.2673 71.0516C21.3605 71.1382 21.4355 71.2426 21.4877 71.3586C21.5399 71.4747 21.5683 71.6 21.5713 71.7272C21.5721 71.9728 21.4886 72.2112 21.3349 72.4028C21.1796 72.5777 20.986 72.7144 20.7692 72.8023C20.5524 72.8902 20.3183 72.9269 20.085 72.9095C19.6811 72.8889 19.2846 72.7927 18.9163 72.6257C18.3045 72.3622 17.7407 71.9993 17.2476 71.5515C16.9112 71.2547 16.6218 70.9084 16.3896 70.5246C16.2342 70.2409 16.2274 70.0517 16.2477 70.0517C16.268 70.0517 16.322 70.2071 16.5044 70.4503C16.7684 70.7896 17.0724 71.0958 17.4097 71.3624C17.9022 71.7624 18.4508 72.0879 19.0379 72.3285C19.3746 72.4696 19.7337 72.5497 20.0985 72.5649C20.2766 72.5784 20.4555 72.5514 20.6216 72.4859C20.7878 72.4203 20.9369 72.318 21.0579 72.1866C21.1662 72.0633 21.2259 71.9048 21.2259 71.7407C21.2259 71.5766 21.1662 71.4181 21.0579 71.2948C20.8011 71.0516 20.4566 70.8151 20.1864 70.6192L18.646 69.3559C18.154 69.0069 17.701 68.606 17.2948 68.1601Z" fill="#EB996E"/>
<path d="M24.7264 72.7811C24.7264 72.7811 24.4899 72.6595 24.2737 72.3217C23.9914 71.8733 23.8329 71.3582 23.8143 70.8286C23.7871 70.303 23.8965 69.7793 24.1318 69.3086C24.321 68.9505 24.5102 68.7816 24.544 68.8086C24.3158 69.4611 24.1882 70.1445 24.1656 70.8354C24.2513 71.5089 24.4405 72.1652 24.7264 72.7811Z" fill="#EB996E"/>
<path d="M20.5106 70.3557C20.6564 70.6304 20.8925 70.8464 21.179 70.9672C21.4656 71.0881 21.785 71.1064 22.0835 71.0191C22.382 70.9318 22.6412 70.7442 22.8174 70.4879C22.9936 70.2317 23.0761 69.9225 23.0508 69.6126C22.9907 69.2361 22.8541 68.8758 22.6497 68.554C22.4452 68.2322 22.1771 67.9556 21.8618 67.7412L19.2338 65.3631" fill="#FFBE9D"/>
<path d="M19.2338 65.3361C19.6323 65.5688 20.0019 65.8477 20.335 66.1671L21.4632 67.1332C21.9552 67.5225 22.4078 67.9592 22.8144 68.4371C23.0235 68.7101 23.1627 69.0302 23.2197 69.3694C23.273 69.6977 23.211 70.0343 23.0441 70.3219C22.9144 70.5656 22.7191 70.7681 22.4803 70.9066C22.2416 71.0451 21.9688 71.114 21.6929 71.1056C21.3313 71.0883 20.9891 70.9365 20.7336 70.68C20.5579 70.4976 20.5174 70.3625 20.5309 70.3557C20.5444 70.349 20.639 70.4435 20.8214 70.5787C21.0768 70.7629 21.3848 70.8601 21.6997 70.8557C21.9207 70.8482 22.1358 70.7816 22.3223 70.6628C22.5089 70.544 22.6601 70.3773 22.7603 70.1801C22.8744 69.9308 22.9135 69.6536 22.8727 69.3825C22.8319 69.1113 22.713 68.858 22.5306 68.6532C22.1422 68.2006 21.7199 67.7783 21.2673 67.3899L20.1863 66.363C19.8236 66.0656 19.5032 65.7201 19.2338 65.3361Z" fill="#EB996E"/>
<path d="M25.0168 64.9375C22.8971 65.4439 20.8734 66.2904 19.0244 67.4439C18.9061 67.5016 18.8126 67.5999 18.7609 67.7209C18.7068 67.8966 18.842 68.0655 18.9838 68.1803C19.566 68.5743 20.2747 68.7358 20.9701 68.633C21.6548 68.5239 22.3449 68.4517 23.0374 68.4168C24.2399 68.4168 25.3479 69.0181 26.5099 69.3423C27.6719 69.6666 29.0771 69.6531 29.8878 68.7478" fill="#FFBE9D"/>
<path d="M29.8743 68.7478C29.8743 68.7478 29.8743 68.8154 29.7662 68.91C29.6382 69.0483 29.4902 69.1667 29.3271 69.2613C28.7085 69.598 27.9969 69.7237 27.3003 69.6193C26.3085 69.4483 25.3355 69.1813 24.3953 68.8221C23.8512 68.6525 23.2827 68.5749 22.7131 68.5924C22.1186 68.6262 21.5038 68.7748 20.8282 68.8154C20.1544 68.8943 19.4745 68.7315 18.9095 68.356C18.7455 68.2514 18.6253 68.0904 18.5717 67.9033C18.5452 67.7858 18.5645 67.6626 18.6258 67.5588C18.6791 67.4784 18.748 67.4095 18.8285 67.3561C19.0919 67.1872 19.3351 67.0521 19.5851 66.9102C20.4498 66.4158 21.3536 65.9932 22.2875 65.6469C22.9209 65.4106 23.5684 65.2143 24.2264 65.0591C24.4653 64.9857 24.713 64.9448 24.9628 64.9375C24.9628 64.9983 23.9427 65.2348 22.3753 65.8766C21.4598 66.2537 20.5706 66.6915 19.7135 67.1872C19.477 67.3291 19.2203 67.4845 18.9906 67.6331C18.8825 67.7142 18.8487 67.7615 18.869 67.829C18.9084 67.9337 18.9823 68.0218 19.0784 68.079C19.5821 68.3997 20.1814 68.5358 20.7742 68.4641C21.4024 68.4236 22.0307 68.2817 22.659 68.2546C23.2683 68.2368 23.8762 68.3237 24.4561 68.5114C25.3762 68.8782 26.3253 69.1675 27.2936 69.3761C27.9397 69.4867 28.604 69.4069 29.2055 69.1464C29.4358 69.0263 29.6591 68.8932 29.8743 68.7478Z" fill="#EB996E"/>
<path d="M63.093 82.3812C62.5044 80.6352 62.4503 78.7533 62.9376 76.9765C63.0389 76.9765 62.9376 78.206 62.9376 79.6788C62.9376 81.1516 63.1943 82.3609 63.093 82.3812Z" fill="#EB996E"/>
<path d="M89.5152 63.8769L80.9488 73.531C80.9488 73.531 76.3683 106.871 76.044 109.493C75.7197 112.114 74.8482 120.478 74.8482 122.768C74.8482 125.058 72.9498 141.428 72.9498 141.428C72.9498 141.428 109.303 148.981 115.39 141.428L113.492 127.409L115.14 92.6366C115.14 92.6366 117.843 68.4979 105.142 62.9108C105.121 62.8973 97.0953 67.7412 89.5152 63.8769Z" fill="#F86241"/>
<path d="M110.979 66.3157C110.979 66.3157 108.472 63.8431 100.46 65.9171C92.0217 68.0993 87.5696 75.9969 89.6504 98.3453C91.3799 116.789 98.6695 119.437 98.6695 119.437C98.6695 119.437 94.6768 91.6232 95.3659 79.9896C96.2306 65.2956 110.965 68.9505 110.965 68.9505C113.073 68.2884 110.979 66.3157 110.979 66.3157Z" fill="#263238"/>
<path d="M89.5219 63.8768L82.1107 65.9171L65.4507 76.1185L70.1934 91.1841L79.9826 90.1099L89.5219 63.8768Z" fill="#F86241"/>
<path d="M79.8746 74.3349C79.9759 74.3349 79.5503 79.7396 78.9355 86.3604C78.3208 92.9811 77.7397 98.3723 77.6452 98.3588C77.5506 98.3453 77.9694 92.9541 78.5842 86.3334C79.199 79.7126 79.78 74.3282 79.8746 74.3349Z" fill="#263238"/>
<path d="M113.789 121.16C113.789 121.16 111.425 128.76 103.068 116.208C94.7105 103.655 95.8793 109.27 95.8793 109.27L94.17 111.296C94.17 111.296 103.365 132.003 113.681 128.76L113.789 121.16Z" fill="#263238"/>
<path opacity="0.3" d="M79.5436 77.9629L72.9498 90.8801L78.4018 90.2856L79.5436 77.9629Z" fill="black"/>
<g opacity="0.3">
<path d="M76.5169 112.269C81.3648 117.545 87.0908 121.941 93.4404 125.261C96.0954 126.652 99.0343 127.875 102.007 127.49C105.277 127.071 108.087 124.707 109.621 121.795C111.154 118.883 110.972 117.478 111.316 114.208C111.722 110.601 111.722 105.784 111.911 102.493C111.911 101.912 111.951 101.237 111.951 100.595C111.951 99.9001 112.176 99.2236 112.591 98.6662C113.006 98.1087 113.589 97.7 114.255 97.5009C114.255 97.5009 112.228 96.5618 110.925 96.751C109.621 96.9401 108.58 98.0548 107.884 99.2033C104.175 105.317 105.79 114.282 98.7167 118.12C96.3789 119.315 93.7126 119.706 91.1299 119.235C85.3401 118.289 80.9082 114.505 76.6385 110.776" fill="black"/>
</g>
<path d="M84.5159 99.6155C86.2882 99.6155 87.725 95.2962 87.725 89.9681C87.725 84.64 86.2882 80.3207 84.5159 80.3207C82.7436 80.3207 81.3069 84.64 81.3069 89.9681C81.3069 95.2962 82.7436 99.6155 84.5159 99.6155Z" fill="#FAFAFA"/>
<path d="M86.2049 257.757L86.9412 273.64C86.9412 273.64 71.0447 279.72 70.8893 282.673L101.737 282.355L101.608 257.561L86.2049 257.757Z" fill="#F86241"/>
<g opacity="0.6">
<path d="M96.4941 272.208C96.7905 272.296 97.0443 272.49 97.2074 272.753C97.3705 273.015 97.4316 273.329 97.3791 273.633C97.3021 273.934 97.1129 274.194 96.8504 274.36C96.5878 274.526 96.2718 274.585 95.9671 274.525C95.6536 274.428 95.3861 274.221 95.2146 273.941C95.043 273.661 94.9791 273.328 95.0348 273.005C95.1493 272.7 95.3765 272.451 95.6695 272.309C95.9624 272.167 96.2987 272.143 96.6089 272.242" fill="white"/>
</g>
<path opacity="0.6" d="M101.743 282.355V279.883L72.112 281.099C72.112 281.099 70.7609 281.707 70.9095 282.673L101.743 282.355Z" fill="white"/>
<path d="M86.4616 273.492C86.4616 273.64 87.225 273.701 87.9681 274.167C88.7113 274.633 89.1166 275.268 89.2585 275.208C89.4004 275.147 89.1639 274.282 88.2451 273.721C87.3263 273.161 86.4278 273.35 86.4616 273.492Z" fill="#263238"/>
<path d="M83.2458 274.863C83.212 275.012 83.8673 275.262 84.3808 275.89C84.8942 276.518 85.0563 277.194 85.205 277.187C85.3536 277.18 85.4414 276.322 84.7861 275.552C84.1308 274.782 83.2458 274.721 83.2458 274.863Z" fill="#263238"/>
<path d="M81.4757 278.754C81.6108 278.754 81.8135 278.031 81.4149 277.207C81.0163 276.383 80.3137 276.065 80.2529 276.194C80.1921 276.322 80.6312 276.755 80.9285 277.437C81.2257 278.119 81.2933 278.741 81.4757 278.754Z" fill="#263238"/>
<path d="M86.6981 269.85C86.7656 269.992 87.4547 269.776 88.306 269.85C89.1572 269.924 89.8193 270.161 89.9003 270.033C89.9814 269.904 89.3329 269.357 88.3262 269.323C87.3196 269.289 86.6237 269.742 86.6981 269.85Z" fill="#263238"/>
<path opacity="0.3" d="M86.3805 260.905L86.5089 263.736L101.669 263.446L101.662 260.892L86.3805 260.905Z" fill="black"/>
<path d="M86.6102 266.648C87.1165 266.787 87.6511 266.787 88.1573 266.648C88.7117 266.541 89.2514 266.368 89.7652 266.134C90.0705 265.994 90.3661 265.834 90.6502 265.655C90.8186 265.554 90.9731 265.431 91.1096 265.29C91.2048 265.18 91.2622 265.043 91.2731 264.898C91.2841 264.753 91.2481 264.609 91.1704 264.486C91.0933 264.379 90.9916 264.293 90.874 264.234C90.7564 264.176 90.6263 264.146 90.4949 264.148C90.2977 264.146 90.1016 264.176 89.9139 264.236C89.5856 264.316 89.2664 264.429 88.9613 264.574C88.4407 264.811 87.9617 265.13 87.5425 265.52C86.8332 266.195 86.5967 266.756 86.6508 266.79C86.7048 266.824 87.0629 266.357 87.7857 265.803C88.202 265.485 88.6558 265.22 89.1369 265.013C89.4251 264.898 89.7208 264.803 90.0219 264.729C90.3462 264.641 90.63 264.641 90.6975 264.783C90.7651 264.925 90.6975 264.858 90.6638 264.959C90.5659 265.064 90.4519 265.153 90.326 265.222C90.0648 265.397 89.7942 265.557 89.5152 265.702C89.0388 265.943 88.5413 266.14 88.029 266.29C87.5483 266.376 87.0742 266.496 86.6102 266.648Z" fill="#263238"/>
<path d="M86.8061 266.857C87.0977 266.416 87.2355 265.891 87.198 265.364C87.22 264.792 87.1423 264.221 86.9683 263.675C86.8684 263.351 86.7348 263.039 86.5697 262.743C86.4846 262.54 86.3485 262.362 86.1744 262.227C86.0004 262.092 85.7945 262.005 85.5766 261.973C85.4382 261.97 85.3024 262.011 85.1876 262.088C85.0728 262.165 84.9846 262.276 84.9348 262.405C84.8556 262.586 84.8033 262.777 84.7794 262.973C84.725 263.317 84.725 263.668 84.7794 264.013C84.8702 264.592 85.1022 265.14 85.455 265.607C86.063 266.398 86.6981 266.574 86.7048 266.519C86.7116 266.465 86.2319 266.161 85.759 265.398C85.4894 264.958 85.3188 264.465 85.259 263.952C85.219 263.654 85.219 263.352 85.259 263.054C85.3063 262.729 85.4279 262.459 85.5495 262.493C85.6712 262.527 85.9684 262.736 86.0968 262.993C86.2521 263.26 86.3832 263.54 86.4886 263.831C86.6626 264.325 86.7672 264.841 86.7994 265.364C86.8805 266.269 86.7251 266.837 86.8061 266.857Z" fill="#263238"/>
<path d="M116.12 248.123L128.591 257.98C128.591 257.98 122.761 273.971 124.889 276.018L144.873 252.521L126.065 236.354L116.12 248.123Z" fill="#F86241"/>
<g opacity="0.6">
<path d="M133.753 249.846C134.014 249.678 134.327 249.612 134.634 249.661C134.941 249.709 135.218 249.869 135.415 250.109C135.591 250.364 135.663 250.677 135.617 250.983C135.57 251.29 135.409 251.567 135.165 251.758C134.886 251.931 134.555 251.996 134.232 251.943C133.909 251.889 133.616 251.72 133.408 251.467C133.25 251.182 133.208 250.846 133.293 250.531C133.377 250.216 133.581 249.946 133.861 249.778" fill="white"/>
</g>
<path opacity="0.6" d="M144.873 252.515L143.002 250.9L124.484 274.073C124.484 274.073 124.051 275.505 124.889 276.011L144.873 252.515Z" fill="white"/>
<path d="M128.145 258.257C128.267 258.352 128.821 257.818 129.659 257.581C130.496 257.345 131.246 257.44 131.287 257.298C131.327 257.156 130.523 256.757 129.503 257.081C128.483 257.406 128.024 258.189 128.145 258.257Z" fill="#263238"/>
<path d="M127.071 261.588C127.159 261.709 127.747 261.378 128.598 261.398C129.449 261.419 130.023 261.75 130.111 261.628C130.199 261.507 129.618 260.885 128.605 260.878C127.591 260.872 126.963 261.493 127.071 261.588Z" fill="#263238"/>
<path d="M128.828 265.493C128.943 265.412 128.503 264.763 127.625 264.526C126.747 264.29 126.044 264.608 126.098 264.736C126.152 264.864 126.774 264.824 127.49 265.033C128.206 265.243 128.72 265.601 128.828 265.493Z" fill="#263238"/>
<path d="M125.558 255.69C125.7 255.73 125.99 255.075 126.585 254.46C127.179 253.845 127.814 253.521 127.767 253.372C127.72 253.224 126.896 253.372 126.206 254.102C125.517 254.832 125.389 255.669 125.558 255.69Z" fill="#263238"/>
<path opacity="0.3" d="M118.593 250.069L120.815 251.825L130.537 240.192L128.605 238.523L118.593 250.069Z" fill="black"/>
<path d="M123.078 253.656C123.119 253.697 123.578 253.305 124.072 252.474C124.359 251.985 124.586 251.464 124.747 250.92C124.84 250.598 124.912 250.271 124.963 249.941C124.992 249.746 124.992 249.548 124.963 249.353C124.943 249.209 124.877 249.075 124.775 248.972C124.673 248.868 124.54 248.8 124.396 248.779C124.27 248.77 124.143 248.791 124.026 248.839C123.909 248.887 123.804 248.961 123.72 249.056C123.592 249.204 123.485 249.37 123.403 249.549C123.254 249.854 123.13 250.17 123.031 250.495C122.873 251.045 122.802 251.618 122.822 252.19C122.787 252.716 122.914 253.239 123.187 253.69C123.274 253.69 123.139 253.102 123.187 252.19C123.239 251.35 123.469 250.53 123.862 249.785C124.011 249.481 124.186 249.272 124.349 249.299C124.511 249.326 124.43 249.299 124.463 249.434C124.483 249.58 124.483 249.727 124.463 249.873C124.42 250.182 124.362 250.489 124.288 250.792C124.158 251.312 123.979 251.819 123.754 252.305C123.493 252.737 123.267 253.188 123.078 253.656Z" fill="#263238"/>
<path d="M123.362 253.65C123.409 253.65 123.193 253.042 122.491 252.373C122.072 251.981 121.59 251.664 121.065 251.434C120.752 251.298 120.426 251.194 120.092 251.123C119.883 251.055 119.66 251.043 119.445 251.086C119.229 251.13 119.029 251.229 118.863 251.373C118.776 251.479 118.721 251.608 118.705 251.744C118.688 251.881 118.71 252.019 118.768 252.143C118.855 252.32 118.967 252.484 119.099 252.629C119.328 252.893 119.594 253.12 119.89 253.305C120.386 253.613 120.949 253.796 121.531 253.839C122.531 253.893 123.078 253.535 123.045 253.487C122.557 253.522 122.067 253.522 121.579 253.487C121.069 253.402 120.583 253.208 120.153 252.92C119.901 252.752 119.674 252.55 119.478 252.319C119.261 252.069 119.14 251.805 119.241 251.731C119.351 251.666 119.474 251.626 119.601 251.612C119.728 251.598 119.856 251.611 119.977 251.65C120.279 251.708 120.575 251.792 120.862 251.9C121.346 252.094 121.8 252.353 122.214 252.67C122.97 253.204 123.295 253.697 123.362 253.65Z" fill="#263238"/>
<path d="M81.5365 190.563C81.5365 190.563 82.3607 152.622 81.5365 152.622C80.7123 152.622 74.8617 149.285 74.8617 149.285L67.5519 205.662C67.5519 205.662 66.8763 211.993 74.7266 216.472C82.5769 220.951 117.579 252.069 117.579 252.069L129.442 237.618C129.442 237.618 106.398 213.601 97.0143 205.662C89.5828 199.481 81.5365 190.563 81.5365 190.563Z" fill="#263238"/>
<path d="M103 181.72L103.804 175.714C103.804 175.714 109.573 163.553 110.398 158.378C111.222 153.203 110.681 141.988 110.681 141.988H74.2334C74.2334 141.988 74.3888 183.138 78.7869 194.684C78.7869 194.684 81.0163 216.776 81.3473 218.627C82.0229 222.559 84.4753 262.783 84.4753 262.783L102.851 262.108C102.851 262.108 104.446 225.126 103.169 214.628C102.541 209.426 102.243 203.886 102.101 199.305C101.928 193.429 102.229 187.548 103 181.72Z" fill="#263238"/>
<path d="M75.2265 153.994C75.2334 154.052 75.2334 154.111 75.2265 154.169C75.2265 154.311 75.2265 154.487 75.2603 154.703C75.2603 155.196 75.3143 155.885 75.3549 156.73C75.4224 158.506 75.5575 161.08 75.7399 164.256C76.1048 170.606 76.7871 179.369 77.7667 189.023C78.7463 198.677 79.8475 207.399 80.6245 213.716C81.0095 216.85 81.3 219.397 81.5365 221.194C81.6378 222.059 81.7189 222.735 81.7729 223.221C81.7729 223.437 81.8135 223.613 81.827 223.755C81.8405 223.897 81.827 223.937 81.827 223.937C81.8049 223.881 81.789 223.822 81.7797 223.761L81.6986 223.235L81.3946 221.208C81.1514 219.417 80.8001 216.87 80.3677 213.743C79.53 207.433 78.4153 198.711 77.4086 189.05C76.402 179.389 75.767 170.62 75.463 164.262C75.3076 161.08 75.2197 158.506 75.1927 156.73C75.1927 155.858 75.1927 155.176 75.1589 154.703V154.176C75.1751 154.113 75.1977 154.052 75.2265 153.994Z" fill="#455A64"/>
<path d="M102.068 202.697C102.12 202.892 102.156 203.09 102.176 203.291C102.23 203.71 102.311 204.284 102.412 205.007C102.595 206.507 102.824 208.676 103.034 211.358C103.466 216.729 103.79 224.194 103.912 232.382C104.034 240.57 103.912 248.049 103.588 253.427C103.453 256.129 103.277 258.291 103.135 259.791C103.054 260.513 102.986 261.088 102.939 261.513C102.925 261.716 102.896 261.917 102.851 262.115C102.833 261.912 102.833 261.709 102.851 261.507C102.885 261.081 102.926 260.507 102.98 259.777C103.081 258.277 103.216 256.102 103.324 253.413C103.547 248.042 103.642 240.577 103.54 232.389C103.439 224.201 103.135 216.742 102.763 211.378C102.588 208.676 102.399 206.52 102.257 205.021C102.182 204.298 102.122 203.724 102.081 203.298C102.06 203.098 102.056 202.897 102.068 202.697Z" fill="#455A64"/>
<path d="M109.236 65.4712C109.236 65.4712 115.201 67.0588 116.471 75.9496C117.741 84.8403 115.39 87.3805 115.39 87.3805C115.39 87.3805 116.356 70.8286 108.945 68.5722L109.236 65.7955" fill="#263238"/>
<path d="M68.5923 94.508L37.799 93.9135L38.157 95.4066L68.4436 95.8524L68.5923 94.508Z" fill="#263238"/>
<path d="M105.932 68.2614C104.777 67.9795 103.561 68.0864 102.473 68.5654C99.9801 69.6126 95.4131 72.619 95.0888 81.1584L94.5619 94.9201L114.255 97.5009C114.255 97.5009 115.931 70.9232 105.932 68.2614Z" fill="#F86241"/>
<path d="M69.6867 97.4198L94.6835 104.932L95.055 94.8796L110.013 97.055L109.175 113.404C109.09 115.737 108.24 117.978 106.757 119.781C105.274 121.584 103.239 122.849 100.966 123.383C98.3526 123.994 95.6045 123.596 93.2715 122.268L66.7411 107.182L69.6867 97.4198Z" fill="#FFBE9D"/>
<path d="M114.255 97.5008C114.255 97.5008 114.255 97.413 114.255 97.2644C114.255 97.1158 114.255 96.8725 114.221 96.5888C114.221 95.9875 114.174 95.143 114.134 94.0621C114.066 91.8664 113.965 88.7317 113.843 84.8606C113.782 82.9284 113.722 80.8071 113.661 78.5371C113.661 77.9696 113.627 77.3886 113.607 76.8008C113.607 76.5171 113.553 76.2266 113.519 75.9293C113.485 75.6321 113.418 75.3483 113.336 75.0578C112.838 73.1733 111.751 71.4973 110.233 70.2746C108.715 69.0519 106.846 68.3465 104.898 68.2614C103.5 68.2479 102.127 68.6398 100.946 69.3896C99.7266 70.1667 98.6858 71.1937 97.8925 72.4027C96.7596 74.1414 95.9941 76.0933 95.6428 78.1385C95.2975 80.0986 95.0921 82.0809 95.028 84.0702C94.9199 87.948 94.8186 91.5962 94.724 94.9133L94.5957 94.758L108.83 96.7036L112.83 97.2644L113.904 97.4671L112.87 97.3522L108.891 96.8658L94.5349 95.0687H94.4065V94.9336C94.4876 91.6097 94.5484 87.9683 94.6767 84.0837C94.7307 82.0764 94.9317 80.0758 95.278 78.098C95.6365 76.0041 96.4206 74.006 97.5818 72.2271C98.4044 70.9795 99.4819 69.9204 100.744 69.1194C101.98 68.3327 103.419 67.9241 104.885 67.9439C106.257 68.0023 107.601 68.3604 108.82 68.9929C110.04 69.6255 111.106 70.5172 111.945 71.6056C112.729 72.6049 113.299 73.7546 113.62 74.9835C113.695 75.2808 113.742 75.5848 113.803 75.8888C113.863 76.1928 113.863 76.4901 113.89 76.7941C113.89 77.3818 113.89 77.9696 113.931 78.5439C113.978 80.8409 114.019 82.9825 114.059 84.9349C114.127 88.8128 114.181 91.9543 114.221 94.1499C114.221 95.2106 114.221 96.0483 114.255 96.6361V97.3117C114.261 97.3746 114.261 97.4379 114.255 97.5008Z" fill="#263238"/>
<path d="M70.1934 97.7171L64.1941 93.2784C63.0997 92.4677 61.3972 92.6029 60.0393 92.515C57.3369 92.2718 52.9253 93.8662 52.7564 94.177L54.567 95.6227L42.9064 95.2647C43.3065 96.0582 43.9141 96.7286 44.6648 97.2044C45.4154 97.6802 46.2809 97.9438 47.1693 97.967C47.1693 97.967 47.5409 100.602 50.9256 101.102C50.9256 101.102 51.8039 103.237 53.6888 103.858C53.6888 103.858 54.0603 106.243 57.0667 106.115L67.2883 107.256L70.1934 97.7171Z" fill="#FFBE9D"/>
<path d="M54.4522 98.3791C53.222 98.4863 51.9842 98.4727 50.7567 98.3386C49.5239 98.33 48.295 98.1988 47.0883 97.9467C48.3165 97.8475 49.5512 97.8611 50.777 97.9873C52.0115 98.0048 53.2417 98.1359 54.4522 98.3791Z" fill="#EB996E"/>
<path d="M57.4113 101.19C56.3441 101.363 55.2616 101.422 54.1819 101.365C53.1023 101.422 52.0197 101.363 50.9526 101.19C52.0193 101.012 53.1023 100.953 54.1819 101.014C55.2616 100.953 56.3446 101.012 57.4113 101.19Z" fill="#EB996E"/>
<path d="M60.5798 103.838C59.5131 104.015 58.4301 104.074 57.3505 104.014C56.2731 104.074 55.1923 104.015 54.1279 103.838C55.1927 103.664 56.2731 103.605 57.3505 103.662C58.4301 103.606 59.5127 103.665 60.5798 103.838Z" fill="#EB996E"/>
<path d="M96.3387 110.033C95.8456 109.277 95.4719 108.45 95.2307 107.581C94.8684 106.753 94.6404 105.872 94.5551 104.973C94.967 105.768 95.2953 106.603 95.5347 107.466C95.893 108.291 96.1625 109.151 96.3387 110.033Z" fill="#EB996E"/>
<path d="M98.1154 109.06C97.4212 108.417 96.7901 107.709 96.2305 106.946C95.58 106.261 94.9984 105.515 94.4943 104.716C95.2698 105.284 95.9534 105.967 96.521 106.743C97.1628 107.433 97.7 108.214 98.1154 109.06Z" fill="#EB996E"/>
</g>
<defs>
<clipPath id="clip0_11_157">
<rect width="308.419" height="283.22" fill="white" transform="translate(0.790283)"/>
</clipPath>
</defs>
</svg>
