<svg width="348" height="260" viewBox="0 0 348 260" fill="none" xmlns="http://www.w3.org/2000/svg">
<path d="M348 228.413H0.00012207V228.587H348V228.413Z" fill="#EBEBEB"/>
<path d="M313.13 239.612H290.079V239.786H313.13V239.612Z" fill="#EBEBEB"/>
<path d="M230.529 241.505H224.481V241.679H230.529V241.505Z" fill="#EBEBEB"/>
<path d="M289.383 233.153H276.026V233.327H289.383V233.153Z" fill="#EBEBEB"/>
<path d="M66.5724 234.323H36.5122V234.497H66.5724V234.323Z" fill="#EBEBEB"/>
<path d="M77.1794 234.323H72.7737V234.497H77.1794V234.323Z" fill="#EBEBEB"/>
<path d="M156.705 237.26H91.5034V237.434H156.705V237.26Z" fill="#EBEBEB"/>
<path d="M164.952 197.372H30.5617C29.5089 197.37 28.4998 196.951 27.756 196.205C27.0122 195.46 26.5945 194.451 26.5945 193.398V4.48251C26.6036 3.43574 27.0254 2.43486 27.7682 1.69727C28.5111 0.959679 29.5149 0.544945 30.5617 0.543152H164.952C166.006 0.543152 167.017 0.961857 167.762 1.70716C168.508 2.45246 168.926 3.4633 168.926 4.51731V193.398C168.926 194.452 168.508 195.463 167.762 196.208C167.017 196.953 166.006 197.372 164.952 197.372ZM30.5617 0.682352C29.555 0.684196 28.5902 1.08538 27.8791 1.79785C27.1679 2.51032 26.7685 3.47585 26.7685 4.48251V193.398C26.7685 194.404 27.1679 195.37 27.8791 196.082C28.5902 196.795 29.555 197.196 30.5617 197.198H164.952C165.96 197.196 166.925 196.795 167.637 196.083C168.35 195.371 168.751 194.405 168.752 193.398V4.48251C168.751 3.47521 168.35 2.50969 167.637 1.79742C166.925 1.08515 165.96 0.684192 164.952 0.682352H30.5617Z" fill="#EBEBEB"/>
<path d="M315.504 197.372H181.106C180.053 197.37 179.043 196.951 178.298 196.206C177.553 195.461 177.134 194.451 177.132 193.398V4.48251C177.143 3.43511 177.566 2.43424 178.31 1.69684C179.054 0.959435 180.059 0.544925 181.106 0.543152H315.504C316.549 0.546774 317.551 0.962317 318.293 1.69971C319.034 2.43711 319.455 3.43695 319.464 4.48251V193.398C319.464 194.449 319.047 195.458 318.305 196.203C317.563 196.948 316.555 197.368 315.504 197.372ZM181.106 0.682352C180.099 0.684192 179.133 1.08515 178.421 1.79742C177.709 2.50969 177.308 3.47521 177.306 4.48251V193.398C177.308 194.405 177.709 195.371 178.421 196.083C179.133 196.795 180.099 197.196 181.106 197.198H315.504C316.511 197.196 317.477 196.795 318.189 196.083C318.901 195.371 319.302 194.405 319.304 193.398V4.48251C319.302 3.47521 318.901 2.50969 318.189 1.79742C317.477 1.08515 316.511 0.684192 315.504 0.682352H181.106Z" fill="#EBEBEB"/>
<path d="M233.438 94.3917C249.41 94.3917 262.357 81.4444 262.357 65.473C262.357 49.5015 249.41 36.5542 233.438 36.5542C217.467 36.5542 204.52 49.5015 204.52 65.473C204.52 81.4444 217.467 94.3917 233.438 94.3917Z" fill="#F5F5F5"/>
<path d="M285.047 59.7727C285.047 58.5231 284.55 57.3246 283.667 56.4409C282.783 55.5572 281.584 55.0608 280.335 55.0608C279.877 55.0594 279.422 55.1275 278.984 55.2627C279.051 54.7829 279.086 54.2993 279.089 53.815C279.091 52.3469 278.769 50.8964 278.146 49.5673C277.522 48.2382 276.613 47.0634 275.482 46.127C274.351 45.1906 273.028 44.5157 271.606 44.1506C270.184 43.7855 268.699 43.7393 267.257 44.0153C266.273 42.4002 264.791 41.1486 263.034 40.4492C261.277 39.7497 259.341 39.6404 257.516 40.1376C255.691 40.6347 254.078 41.7115 252.919 43.2056C251.759 44.6997 251.117 46.5301 251.089 48.421H250.943C248.852 48.4825 246.869 49.3561 245.412 50.8563C243.955 52.3565 243.14 54.3652 243.14 56.4563C243.14 58.5474 243.955 60.5561 245.412 62.0563C246.869 63.5565 248.852 64.4301 250.943 64.4916H280.488C281.712 64.4518 282.873 63.9369 283.724 63.056C284.575 62.1752 285.049 60.9975 285.047 59.7727Z" fill="#EBEBEB"/>
<path d="M210.617 85.6917C210.617 84.4433 210.121 83.2458 209.239 82.3624C208.357 81.4789 207.16 80.9817 205.912 80.9798C205.44 80.9755 204.971 81.0436 204.52 81.1817C204.734 79.7637 204.638 78.3162 204.24 76.9386C203.842 75.561 203.15 74.2859 202.212 73.2008C201.275 72.1158 200.113 71.2465 198.808 70.6526C197.503 70.0587 196.085 69.7543 194.65 69.7603C194.034 69.7617 193.419 69.82 192.813 69.9343C191.826 68.3349 190.347 67.0977 188.599 66.4073C186.851 65.7169 184.926 65.6104 183.112 66.1036C181.298 66.5968 179.693 67.6632 178.535 69.1439C177.377 70.6245 176.728 72.4399 176.687 74.3191H176.541C174.45 74.3806 172.466 75.2542 171.01 76.7544C169.553 78.2546 168.738 80.2634 168.738 82.3544C168.738 84.4455 169.553 86.4543 171.01 87.9545C172.466 89.4547 174.45 90.3282 176.541 90.3897H206.016C207.245 90.3625 208.414 89.8557 209.273 88.9778C210.133 88.0999 210.615 86.9205 210.617 85.6917Z" fill="#EBEBEB"/>
<path d="M80.736 94.6075C80.736 93.359 80.2405 92.1616 79.3584 91.2781C78.4762 90.3947 77.2795 89.8974 76.031 89.8956C75.56 89.8929 75.0912 89.9586 74.639 90.0905C74.7115 89.6136 74.7487 89.1321 74.7504 88.6497C74.7466 87.1834 74.4204 85.7359 73.795 84.4097C73.1696 83.0834 72.2602 81.911 71.1312 80.9753C70.0023 80.0396 68.6814 79.3635 67.2621 78.9951C65.8429 78.6266 64.3599 78.5747 62.9184 78.8431C61.9362 77.2258 60.4542 75.9722 58.6964 75.2717C56.9387 74.5712 55.0006 74.4619 53.1753 74.9603C51.3499 75.4587 49.7363 76.5377 48.5785 78.0343C47.4206 79.5309 46.7813 81.3637 46.7573 83.2557H46.6111C44.521 83.3173 42.537 84.1908 41.0803 85.691C39.6236 87.1912 38.8088 89.2 38.8088 91.2911C38.8088 93.3821 39.6236 95.3909 41.0803 96.8911C42.537 98.3913 44.521 99.2649 46.6111 99.3264H76.1146C77.3508 99.3062 78.5294 98.7995 79.3945 97.9162C80.2596 97.0328 80.7416 95.8439 80.736 94.6075Z" fill="#EBEBEB"/>
<path d="M282.325 117.081C282.325 116.326 282.025 115.602 281.492 115.068C280.958 114.535 280.234 114.235 279.479 114.235C279.201 114.234 278.924 114.274 278.657 114.353C278.782 113.497 278.721 112.623 278.479 111.793C278.237 110.962 277.818 110.193 277.253 109.538C276.687 108.883 275.987 108.358 275.2 107.997C274.413 107.637 273.558 107.45 272.693 107.449C272.321 107.448 271.951 107.483 271.586 107.553C270.987 106.588 270.092 105.842 269.035 105.427C267.978 105.012 266.815 104.95 265.719 105.25C264.624 105.549 263.654 106.195 262.956 107.091C262.257 107.986 261.866 109.083 261.842 110.219H261.696C260.404 110.219 259.165 110.732 258.251 111.646C257.337 112.559 256.824 113.799 256.824 115.091C256.824 116.383 257.337 117.622 258.251 118.536C259.165 119.449 260.404 119.963 261.696 119.963H279.527C279.9 119.957 280.269 119.878 280.611 119.731C280.953 119.583 281.263 119.369 281.523 119.102C281.783 118.834 281.988 118.518 282.125 118.171C282.263 117.825 282.331 117.454 282.325 117.081Z" fill="#EBEBEB"/>
<path d="M110.267 25.5365C110.271 25.0921 110.169 24.6531 109.971 24.2553C109.773 23.8574 109.484 23.5119 109.128 23.2468C108.771 22.9817 108.357 22.8044 107.919 22.7294C107.481 22.6544 107.031 22.6838 106.606 22.8151C106.731 21.9588 106.67 21.0856 106.428 20.2548C106.185 19.424 105.767 18.6551 105.201 18.0003C104.636 17.3454 103.936 16.8199 103.149 16.4594C102.362 16.0988 101.507 15.9118 100.642 15.9108C100.268 15.9101 99.8952 15.945 99.5281 16.0152C98.9292 15.0502 98.0344 14.3046 96.9771 13.8895C95.9199 13.4745 94.7569 13.4121 93.6614 13.7118C92.5658 14.0115 91.5965 14.6572 90.8978 15.5527C90.1991 16.4481 89.8085 17.5454 89.7841 18.6809H89.7006C88.4085 18.6809 87.1693 19.1942 86.2556 20.1079C85.3419 21.0216 84.8286 22.2608 84.8286 23.5529C84.8286 24.845 85.3419 26.0843 86.2556 26.9979C87.1693 27.9116 88.4085 28.4249 89.7006 28.4249H107.532C108.275 28.3959 108.977 28.0775 109.488 27.5378C109.999 26.998 110.279 26.2798 110.267 25.5365Z" fill="#EBEBEB"/>
<path d="M62.5425 131.85L81.3902 217.465L84.8145 215.858L65.0202 131.37L62.5425 131.85Z" fill="#EBEBEB"/>
<path d="M278.943 217.055C278.943 217.055 267.264 136.611 293.517 53.4391L289.404 50.2654C289.404 50.2654 258.668 113.184 263.144 219.338L278.943 217.055Z" fill="#E6E6E6"/>
<path d="M300.672 31.5708C310.291 25.2651 324.524 35.2944 326.48 50.9683C325.066 50.1532 323.588 49.4549 322.06 48.8803C321.315 44.934 320.598 41.4471 320.598 41.4471L321.114 48.5254C320.264 48.2191 319.339 47.9199 318.33 47.6484L317.634 43.8413L317.32 47.3979C315.958 47.0798 314.577 46.8473 313.186 46.7019L311.39 35.5659L310.486 46.4791C309.061 46.4396 307.635 46.5024 306.219 46.667L305.119 39.1085V46.8202C303.901 47.0171 302.697 47.2938 301.514 47.6484L300.199 36.3732C300.199 36.3732 300.234 42.7138 300.164 48.0938C296.76 49.3273 293.613 51.177 290.879 53.5505L290.775 52.1585C290.775 52.1585 291.882 37.3198 300.672 31.5708Z" fill="#E0E0E0"/>
<path d="M287.371 26.5318C279.715 17.9362 263.373 23.894 257.395 38.5099C258.971 38.0868 260.58 37.7958 262.204 37.6399C263.951 34.0277 265.559 30.847 265.559 30.847L263.213 37.5425C264.111 37.4729 265.079 37.4311 266.116 37.4311L267.751 33.9511L267.125 37.4659C268.523 37.504 269.918 37.6295 271.301 37.8418L275.943 27.5827L273.98 38.3707C275.368 38.7004 276.729 39.1331 278.052 39.6653L281.094 32.6566L279.096 40.0759C280.224 40.5801 281.315 41.1639 282.36 41.8229L286.585 31.2785C286.585 31.2785 284.887 37.3894 283.55 42.5955C286.513 44.6792 289.066 47.2911 291.081 50.3002L291.547 48.9847C291.547 48.9847 294.338 34.3827 287.371 26.5318Z" fill="#E0E0E0"/>
<path d="M280.015 46.9176C287.671 39.4495 293.42 45.9502 293.42 45.9502C290.545 46.6949 287.977 48.5393 285.764 50.8848L284.727 49.5346L284.894 51.8383C284.365 52.4508 283.85 53.0911 283.356 53.7523L281.602 49.7643L282.353 55.1652C281.657 56.1953 280.961 57.2532 280.384 58.3111L279.611 54.3579L279.674 59.5987C279.033 60.7819 278.463 61.9442 277.955 63.037L277.119 55.7777L277.008 65.1667C275.783 68.0621 275.143 70.0944 275.143 70.0944C275.143 70.0944 272.359 54.3927 280.015 46.9176Z" fill="#E0E0E0"/>
<path d="M300.672 64.5751L299.092 65.4869C298.862 64.2689 298.591 62.9952 298.292 61.7006L299.364 59.731L298.013 60.5662C297.909 60.1347 297.791 59.7101 297.679 59.2786L299.071 55.4227L296.983 56.9609C295.87 53.4809 294.45 50.4255 292.675 48.9639C292.675 48.9639 310.228 54.5736 300.331 73.4978C300.331 73.4978 300.011 70.505 299.308 66.5726L300.672 64.5751Z" fill="#E0E0E0"/>
<path d="M283.411 49.0891L280.627 43.7995L281.783 49.3119C281.504 49.3536 281.219 49.4093 280.934 49.465L277.293 44.934L278.191 50.1471C276.947 50.5237 275.727 50.9746 274.537 51.4973C273.24 52.0787 271.974 52.7268 270.744 53.4391L268.969 48.8107L269.798 53.989C268.593 54.685 267.417 55.4715 266.318 56.2649L265.441 52.1863L265.524 56.8287C264.132 57.8309 262.838 58.8471 261.64 59.8423L261.752 52.4508L260.673 60.6567C259.448 61.7007 258.341 62.7029 257.402 63.5938L257.27 58.4643L255.968 64.9788C254.618 66.3221 253.845 67.1782 253.845 67.1782C254.541 49.2283 261.501 42.1222 273.013 40.1734C284.525 38.2246 292.821 50.2027 292.821 50.2027C292.821 50.2027 289.244 48.5045 283.411 49.0891Z" fill="#E0E0E0"/>
<path d="M316.986 71.027L315.935 76.4071C315.427 75.0778 314.738 73.3726 313.847 71.4725L314.794 63.6425L313.068 69.816C311.719 67.0087 310.155 64.3095 308.391 61.7424L310.033 56.3136L307.375 60.3434C306.839 59.6474 306.289 58.9514 305.718 58.3111L306.651 54.8938L305.21 57.7543C304.82 57.3228 304.417 56.9122 304.006 56.5154L305.14 51.9566L303.338 55.903C302.216 54.8769 300.981 53.9826 299.656 53.2373L301.486 47.6693L298.619 52.7222C296.816 51.8765 294.84 51.4642 292.849 51.5182C292.849 51.5182 296.329 45.9502 302.725 44.0362C309.122 42.1222 322.909 53.7036 316.924 79.2538C316.924 79.2538 316.743 78.6761 316.381 77.6808L316.986 71.027Z" fill="#E0E0E0"/>
<path d="M306.435 21.3814L307.527 24.6247C307.124 24.6476 306.724 24.7058 306.33 24.7987L305.015 20.574L305.892 24.9031C305.057 25.1526 304.261 25.5156 303.525 25.9819L301.716 20.2817L302.76 26.497C302.468 26.7127 302.175 26.9494 301.876 27.193L299.83 21.8407L301.368 27.6871C299.856 29.2011 298.564 30.9209 297.533 32.7958L296.997 24.9031L296.092 35.6146C294.592 38.9641 293.381 42.4359 292.473 45.9919C292.473 45.9919 291.359 17.4559 298.229 14.2543C305.098 11.0527 309.184 24.757 309.184 24.757C308.878 24.667 308.563 24.6155 308.244 24.6039L306.435 21.3814Z" fill="#E0E0E0"/>
<path d="M296.621 53.1259L296.009 58.5339L293.921 53.3208L291.137 57.3994L290.037 53.5992L286.822 56.2997C286.822 56.2997 287.218 49.4023 289.271 46.2495C291.325 43.0966 297.491 45.3099 296.621 53.1259Z" fill="#E0E0E0"/>
<path d="M210.888 140.084V102.375C210.888 102.375 203.232 110.511 198.172 109.397C193.112 108.284 186.528 112.133 186.528 112.133C186.528 112.133 193.161 111.165 195.625 113.859C198.089 116.552 209.085 116.838 209.085 116.838V141.462L210.888 140.084Z" fill="#EBEBEB"/>
<path d="M244.644 128.524H242.904V130.897H237.169V128.524H231.531V130.897H225.796V128.524H220.166V130.897H214.424V128.524H208.793V130.897H203.058V128.524H197.42V130.897H191.685V128.524H186.048V130.897H180.313V128.524H178.385L172.796 173.207L250.421 172.887L244.644 128.524Z" fill="#E0E0E0"/>
<path d="M256.991 160.957H254.604V164.214H246.725V160.957H238.985V164.214H231.1V160.957H223.36V164.214H215.482V160.957H207.742V164.214H199.856V160.957H192.117V164.214H184.231V160.957H176.492V164.214H168.613V160.957H165.961L158.277 222.351L264.939 221.906L256.991 160.957Z" fill="#EBEBEB"/>
<path d="M296.391 215.12C294.742 213.262 293.19 211.361 291.464 209.552C291.374 209.462 291.293 209.364 291.22 209.26C290.652 208.892 290.059 208.564 289.445 208.278C289.334 208.243 288.972 208.097 288.603 207.958C287.907 207.707 287.211 207.436 286.515 207.158C282.193 205.418 278.309 203.399 275.045 199.968C273.256 198.089 271.83 195.896 269.978 194.073C269.93 194.135 269.568 193.941 269.394 193.801L268.002 193.62C267.257 193.62 266.505 193.62 265.76 193.669C264.696 193.718 263.631 193.801 262.566 193.899C258.39 199.968 253.17 208.257 250.859 209.35C247.275 211.048 214.243 219.79 211.807 219.254C209.371 218.718 196.62 219.769 193.418 219.651C190.217 219.533 184.419 218.113 176.018 214.25C167.618 210.387 163.038 210.366 152.925 207.144C142.812 203.921 136.033 202.696 130.117 207.652C124.201 212.607 107.95 202.146 102.883 200.657C97.8158 199.168 88.1274 190.586 81.5154 194.588C74.9034 198.59 69.405 200.497 61.1435 207.652C52.882 214.807 36.4912 228.636 36.4912 228.636H315.587L312.379 223.033C309.321 222.847 306.331 222.051 303.585 220.692C300.84 219.333 298.394 217.438 296.391 215.12Z" fill="#F5F5F5"/>
<path d="M30.0535 146.703C30.0535 146.703 38.1758 132.087 60.1833 119.476C60.1833 119.476 78.0983 117.951 98.3241 126.77C98.3241 126.77 102.424 133.577 97.7603 136.263C93.0971 138.95 89.2343 133.549 89.2343 133.549C89.2343 133.549 88.3713 141.775 82.2743 142.012C76.1774 142.249 74.4095 136.263 74.4095 136.263C74.4095 136.263 73.811 143.815 66.5517 145.722C60.2738 147.399 56.3762 142.012 56.3762 142.012C56.3762 142.012 55.1234 148.22 49.4788 150.009C44.9409 151.443 41.8228 147.538 41.8228 147.538C41.8228 147.538 40.5213 154.276 35.705 154.276C31.5638 154.276 30.0535 146.703 30.0535 146.703Z" fill="#E0E0E0"/>
<path d="M174 259.845C248.529 259.845 308.948 256.317 308.948 251.966C308.948 247.615 248.529 244.087 174 244.087C99.4707 244.087 39.0527 247.615 39.0527 251.966C39.0527 256.317 99.4707 259.845 174 259.845Z" fill="#FFEEEB"/>
<path opacity="0.4" d="M253.901 233.327C248.472 235.019 244.296 224.899 244.296 224.899L249.265 223.507C249.265 223.507 250.121 224.968 251.082 224.606C252.042 224.244 251.653 222.567 251.653 222.567L256.525 220.611C256.525 220.611 259.462 231.615 253.901 233.327Z" fill="white"/>
<path opacity="0.6" d="M237.162 239.584C237.164 241.939 236.509 244.247 235.269 246.249C234.029 248.251 232.255 249.867 230.146 250.915C229.857 250.682 229.62 250.39 229.45 250.059C231.789 243.238 229.45 239.584 229.45 239.584V239.515L229.617 238.422V238.22C229.979 236.195 230.891 232.402 232.868 230.105C234.215 231.29 235.295 232.748 236.035 234.382C236.776 236.017 237.16 237.79 237.162 239.584Z" fill="white"/>
<path opacity="0.6" d="M214.779 237.392C214.779 237.392 212.559 239.612 213.213 245.354C211.89 242.77 211.494 239.811 212.092 236.97C212.69 234.13 214.245 231.581 216.498 229.75C215.27 232.104 214.677 234.738 214.779 237.392Z" fill="white"/>
<path opacity="0.2" d="M230.139 250.915C227.719 252.126 224.974 252.527 222.309 252.06C219.644 251.592 217.199 250.281 215.335 248.319C217.709 249.711 222.56 251.709 229.443 250.052C229.612 250.385 229.849 250.68 230.139 250.915Z" fill="white"/>
<path d="M79.1978 219.672C79.1978 219.672 81.6755 215.948 86.0812 215.677C90.4869 215.405 94.2035 221.022 94.2035 221.022H92.8115C92.8115 221.022 89.2549 217.187 86.7076 217.187C84.1602 217.187 81.6825 220.354 81.6825 220.354L79.1978 219.672Z" fill="#263238"/>
<path d="M41.8157 249.057C43.3399 246.516 60.4128 248.166 64.2686 246.649L66.3566 250.233C66.3566 250.233 63.4125 251.862 58.5266 251.284C53.6407 250.706 46.2561 250.553 44.3282 252.251L41.8157 249.057Z" fill="#263238"/>
<path opacity="0.3" d="M41.8157 249.057C43.3399 246.516 60.4128 248.166 64.2686 246.649L66.3566 250.233C66.3566 250.233 63.4125 251.862 58.5266 251.284C53.6407 250.706 46.2561 250.553 44.3282 252.251L41.8157 249.057Z" fill="black"/>
<path d="M113.726 241.31C113.587 241.916 113.434 242.507 113.26 243.085C111.868 247.825 109.724 251.66 108.165 252.251H63.9066C63.298 252.252 62.6975 252.112 62.151 251.845C61.6045 251.577 61.1265 251.187 60.7537 250.706L60.7189 250.658C60.5555 250.442 60.4177 250.209 60.3083 249.962C57.2529 243.579 54.1696 230.815 58.5057 224.996C58.9592 224.389 59.4825 223.838 60.0647 223.354L60.19 223.256C61.1083 222.507 62.1246 221.886 63.2106 221.412H63.2454C66.2939 220.02 70.0384 219.4 73.6854 219.129C74.7503 219.045 75.7734 218.997 76.8453 218.976C79.5596 218.899 82.0931 218.976 84.1115 219.024C91.2246 219.205 96.8204 221.321 100.635 220.952C102.035 220.806 103.451 220.919 104.811 221.286C105.202 221.396 105.588 221.526 105.966 221.676C107.702 222.41 109.316 223.403 110.754 224.62C115.111 228.079 115.174 235.172 113.726 241.31Z" fill="#263238"/>
<path opacity="0.1" d="M113.726 241.31C113.587 241.916 113.434 242.507 113.26 243.085C111.868 247.825 109.724 251.66 108.165 252.251H63.9066C63.298 252.252 62.6975 252.112 62.151 251.845C61.6045 251.577 61.1265 251.187 60.7537 250.706L60.7189 250.658C60.5555 250.442 60.4177 250.209 60.3083 249.962C57.2529 243.579 54.1696 230.815 58.5057 224.996C58.9592 224.389 59.4825 223.838 60.0647 223.354L60.19 223.256C61.1083 222.507 62.1246 221.886 63.2106 221.412H63.2454C66.2939 220.02 70.0384 219.4 73.6854 219.129C74.7503 219.045 75.7734 218.997 76.8453 218.976C79.5596 218.899 82.0931 218.976 84.1115 219.024C91.2246 219.205 96.8204 221.321 100.635 220.952C102.035 220.806 103.451 220.919 104.811 221.286C105.202 221.396 105.588 221.526 105.966 221.676C107.702 222.41 109.316 223.403 110.754 224.62C115.111 228.079 115.174 235.172 113.726 241.31Z" fill="white"/>
<path opacity="0.2" d="M106.947 240.872C103.78 240.872 97.4468 242.382 88.0856 240.322C83.7211 239.285 79.1783 239.252 74.799 240.225C74.6946 238.833 74.5833 237.28 74.458 235.596C73.6297 224.286 67.1778 219.539 63.2454 221.419H63.2106C62.1437 221.929 61.1316 222.547 60.19 223.263L60.0647 223.36C59.4825 223.845 58.9592 224.396 58.5057 225.003C54.1696 230.822 57.2529 243.586 60.3083 249.969C60.4177 250.216 60.5555 250.449 60.7189 250.665L60.7537 250.713C61.13 251.14 61.5926 251.481 62.111 251.715C62.6294 251.949 63.1917 252.07 63.7605 252.07H71.6879C74.9243 252.07 75.3071 249.106 74.9452 242.737C75.495 242.424 76.1701 242.041 76.9218 241.526C78.8915 240.245 86.5544 240.879 89.8604 242.118C93.1664 243.357 101.839 243.906 106.035 243.224C108.423 242.87 110.847 242.826 113.246 243.092C113.42 242.514 113.573 241.923 113.712 241.317C112.279 241.157 109.272 240.872 106.947 240.872Z" fill="black"/>
<path opacity="0.2" d="M78.1745 224.899C80.1024 231.921 81.4248 234.399 81.9329 235.088C82.441 235.777 96.4584 237.441 99.0893 237.434C102.126 237.407 105.154 237.109 108.137 236.543C109.926 236.09 110.504 227.084 105.994 221.683C105.615 221.533 105.23 221.403 104.838 221.293C107.295 226.806 107.351 233.557 107.058 234.517C106.641 235.854 102.514 235.659 100.586 235.617C98.6578 235.575 86.6657 234.831 85.4407 234.343C84.258 233.852 83.2512 233.015 82.5523 231.942C81.5849 230.703 81.4527 226.437 79.7057 222.755C78.9641 221.356 77.9977 220.089 76.8451 219.004C75.8081 219.004 74.7571 219.073 73.6853 219.157C74.786 219.757 75.7521 220.575 76.5242 221.563C77.2962 222.551 77.8579 223.686 78.1745 224.899Z" fill="black"/>
<path d="M64.2686 231.365L60.4128 232.311C60.4128 232.311 57.6775 240.162 59.3131 243.447C60.9487 246.732 48.1771 251.305 41.8157 249.015L44.3074 252.21C44.3074 252.21 59.4523 251.256 62.3407 245.493C65.2291 239.73 61.1018 238.84 60.8304 237.218C60.5589 235.596 64.2686 231.365 64.2686 231.365Z" fill="#263238"/>
<path opacity="0.1" d="M64.2686 231.365L60.4128 232.311C60.4128 232.311 57.6775 240.162 59.3131 243.447C60.9487 246.732 48.1771 251.305 41.8157 249.015L44.3074 252.21C44.3074 252.21 59.4523 251.256 62.3407 245.493C65.2291 239.73 61.1018 238.84 60.8304 237.218C60.5589 235.596 64.2686 231.365 64.2686 231.365Z" fill="white"/>
<path d="M98.324 69.4471C98.324 69.4471 83.4296 61.0951 80.3464 58.9514C77.2631 56.8078 60.7679 40.6119 59.8492 40.1595C59.8492 40.1595 60.4616 38.3081 59.0766 37.2293C57.6916 36.1505 52.2906 32.6079 51.525 32.6079C50.7594 32.6079 48.741 40.1595 49.0542 42.0108C49.3674 43.8622 56.919 44.3215 56.919 44.3215C56.919 44.3215 72.6416 62.6263 75.1055 65.2015C77.5693 67.7767 94.3708 78.7109 94.3708 78.7109L98.324 69.4471Z" fill="#E9AB8C"/>
<path d="M104.435 70.9853C104.435 70.9853 107.699 77.5764 99.7717 88.0442L82.2952 75.1961L89.2552 62.5637L104.435 70.9853Z" fill="#F86241"/>
<path opacity="0.6" d="M99.7718 88.0442L91.5173 81.9751L90.4385 81.1817L85.7822 77.7991L82.3022 75.2309L84.8705 70.5886L86.3042 67.9159L89.2622 62.5637L92.1158 64.1506L94.5797 65.5426L104.421 71.0131C104.744 71.7771 104.944 72.5876 105.013 73.4143C105.34 76.1914 104.867 81.3139 99.7718 88.0442Z" fill="white"/>
<path opacity="0.2" d="M99.7716 88.0442L91.5171 81.9751C94.3498 76.1148 101.679 74.0477 105.026 73.3865C105.34 76.1914 104.866 81.3139 99.7716 88.0442Z" fill="black"/>
<g opacity="0.2">
<path d="M94.5932 65.5147L92.1294 66.9485V64.1506L94.5932 65.5147Z" fill="white"/>
<path d="M89.2342 68.779L86.1439 73.1151L84.8633 70.5538L86.3179 67.9159L89.2342 68.779Z" fill="white"/>
<path d="M91.517 75.3005L90.4382 81.1817L85.782 77.7643L91.517 75.3005Z" fill="white"/>
<path d="M93.6538 71.9458L95.3729 76.3514L98.9434 71.4934L93.6538 71.9458Z" fill="white"/>
</g>
<path d="M136.917 67.8672C136.917 67.8672 151.812 59.5152 154.895 57.3715C157.978 55.2278 174.473 39.0319 175.399 38.5795C175.399 38.5795 174.78 36.7282 176.165 35.6494C177.55 34.5706 182.951 31.0279 183.716 31.0279C184.482 31.0279 186.5 38.5795 186.187 40.4309C185.874 42.2823 178.322 42.7416 178.322 42.7416C178.322 42.7416 162.6 61.0534 160.136 63.6216C157.672 66.1898 140.871 77.1031 140.871 77.1031L136.917 67.8672Z" fill="#E9AB8C"/>
<path d="M119.121 156.064C119.121 156.064 118.8 161.319 118.32 168.349C118 172.72 117.624 177.766 117.172 182.645C116.587 189.201 115.926 195.451 115.265 199.349C114.659 202.919 106.62 247.261 106.62 247.261H101.233C102.932 205.912 105.563 189.876 105.66 187.468C105.66 186.681 105.723 185.589 105.757 184.287C105.862 179.568 105.952 172.114 106.008 166.692C106.05 162.781 106.071 159.934 106.071 159.934L119.121 156.064Z" fill="#E9AB8C"/>
<path d="M139.896 189.521C139.708 193.133 137.558 247.066 137.558 247.066H131.635C128.607 204.109 129.755 189.194 129.213 186.215C128.287 181.148 127.417 174.487 126.818 169.511C126.338 165.537 126.039 162.676 126.039 162.676L138.114 157.456C138.114 157.456 138.845 163.72 139.395 171.223C139.666 174.982 139.903 179.067 139.973 182.867C140.028 185.248 140.014 187.517 139.896 189.521Z" fill="#E9AB8C"/>
<path opacity="0.2" d="M105.98 166.678L118.32 168.349C118 172.72 117.624 177.766 117.172 182.645L105.729 184.287C105.834 179.554 105.924 172.1 105.98 166.678Z" fill="black"/>
<path opacity="0.2" d="M139.979 182.895L129.219 186.208C128.294 181.141 127.424 174.48 126.825 169.504L139.402 171.216C139.673 174.982 139.896 179.067 139.979 182.895Z" fill="black"/>
<path d="M107.88 245.591H100.76C100.643 245.592 100.531 245.633 100.44 245.706C100.349 245.779 100.285 245.881 100.259 245.994L99.1105 251.2C99.0629 251.424 99.1058 251.657 99.2298 251.849C99.3537 252.04 99.5485 252.175 99.7717 252.224C99.8365 252.23 99.9018 252.23 99.9666 252.224C102.263 252.189 103.941 252.043 106.822 252.043C108.604 252.043 113.97 252.231 116.42 252.231C118.87 252.231 119.204 249.808 118.195 249.579C113.685 248.597 110.288 247.24 108.848 245.946C108.582 245.708 108.236 245.581 107.88 245.591Z" fill="#F86241"/>
<path d="M138.003 245.41H130.897C130.78 245.408 130.667 245.447 130.576 245.519C130.485 245.592 130.421 245.693 130.396 245.806L129.24 251.019C129.218 251.132 129.218 251.249 129.242 251.361C129.265 251.474 129.31 251.581 129.375 251.676C129.439 251.772 129.522 251.853 129.619 251.916C129.715 251.979 129.823 252.022 129.936 252.043H130.124C132.428 252.008 134.098 251.869 136.987 251.869C138.761 251.869 144.128 252.05 146.584 252.05C149.041 252.05 149.368 249.627 148.352 249.405C143.842 248.423 140.453 247.059 139.012 245.765C138.875 245.642 138.716 245.547 138.543 245.486C138.37 245.425 138.186 245.399 138.003 245.41Z" fill="#F86241"/>
<path d="M119.608 179.603C119.663 179.13 119.719 178.636 119.775 178.079C120.471 170.952 121.229 162.398 121.863 154.157C124.264 160.616 125.301 169.699 126.554 179.603H141.17C139.959 153.969 136.785 133.117 135.101 124.222H104.101C104.059 127.41 103.704 158.326 102.904 179.603H119.608Z" fill="#263238"/>
<path opacity="0.2" d="M119.608 179.603C119.663 179.13 119.719 178.636 119.775 178.079C120.471 170.952 121.229 162.398 121.863 154.157C124.264 160.616 125.301 169.699 126.554 179.603H141.17C139.959 153.969 136.785 133.117 135.101 124.222H104.101C104.059 127.41 103.704 158.326 102.904 179.603H119.608Z" fill="white"/>
<path d="M123.888 60.7402C123.82 61.0208 123.737 61.2973 123.638 61.5684C123.083 63.1161 122.074 64.4601 120.742 65.4242C120.407 65.6699 120.054 65.8887 119.684 66.0785C118.273 66.8335 116.653 67.1061 115.072 66.8548C113.491 66.6035 112.036 65.842 110.929 64.6865C107.998 61.7285 108.075 58.3111 107.741 52.5274C107.653 51.2845 107.855 50.0382 108.332 48.8873C108.732 47.9265 109.316 47.0539 110.053 46.3191C110.79 45.5843 111.664 45.0019 112.625 44.6051C113.587 44.2082 114.618 44.0047 115.658 44.0062C116.698 44.0078 117.728 44.2142 118.689 44.6139C124.34 46.9246 125.12 55.5271 123.888 60.7402Z" fill="#E9AB8C"/>
<path opacity="0.2" d="M120.721 65.4243C120.386 65.6699 120.033 65.8887 119.663 66.0785C118.694 66.5952 117.622 66.8884 116.525 66.9366C115.427 66.9848 114.333 66.7867 113.323 66.3569C113.585 65.6617 113.933 65.0022 114.36 64.3942C116.535 64.1214 118.743 64.4789 120.721 65.4243Z" fill="black"/>
<path d="M109.077 72.9271C111.931 75.5162 118.912 74.5627 118.912 74.5627C118.912 74.5627 123.269 73.3656 122.35 72.0084C119.789 71.5838 118.543 70.3867 118.028 68.8486C117.75 67.8983 117.662 66.9026 117.77 65.9184C117.811 65.3696 117.883 64.8235 117.986 64.2828L109.356 57.8935C110.483 62.1113 111.868 69.8717 109.077 72.9271Z" fill="#E9AB8C"/>
<path d="M120.721 55.4784L121.967 55.9447L121.348 53.3974C121.348 53.3974 123.171 50.6134 121.348 48.1983C121.348 48.1983 126.387 46.6671 123.54 44.0223C122.482 43.0339 121.167 44.0223 117.687 42.5119C115.801 41.6837 109.898 41.6211 109.606 44.0223C109.606 44.0223 105.354 44.0223 104.894 51.2607C104.76 53.3814 105.094 55.5057 105.872 57.4831C106.65 59.4605 107.854 61.2425 109.397 62.7029C109.397 62.7029 114.534 63.9139 117.053 61.8538C119.573 59.7936 120.721 55.4784 120.721 55.4784Z" fill="#263238"/>
<path d="M117.436 55.8891C117.545 56.4332 117.774 56.9462 118.106 57.3906C118.438 57.8349 118.866 58.1994 119.357 58.4573C120.533 58.9584 121.313 57.3019 121.139 55.5619C120.979 54.0168 120.179 51.8453 118.919 52.1376C117.659 52.4299 117.026 54.33 117.436 55.8891Z" fill="#E9AB8C"/>
<path opacity="0.2" d="M121.891 154.122C121.229 162.363 120.499 170.938 119.803 178.065C118.745 167.771 117.45 160.435 117.45 160.435C117.45 160.435 116.239 159.44 112.905 154.122C109.571 148.805 112.905 138.866 112.905 138.866C112.752 148.095 121.891 154.122 121.891 154.122Z" fill="black"/>
<path d="M142.249 178.399L141.608 180.814H126.046V178.58L142.249 178.399Z" fill="#F86241"/>
<path d="M120.359 178.733L119.893 180.967H102.27L101.205 178.733H120.359Z" fill="#F86241"/>
<path d="M122.531 71.2498C122.531 71.2498 119.997 67.2478 113.615 66.9624C107.233 66.677 106.746 71.0688 106.746 71.0688L122.531 71.2498Z" fill="#F86241"/>
<path opacity="0.5" d="M122.531 71.2498C122.531 71.2498 119.997 67.2478 113.615 66.9624C107.233 66.677 106.746 71.0688 106.746 71.0688L122.531 71.2498Z" fill="white"/>
<path d="M99.6118 68.7511C101.537 90.4196 101.304 112.226 98.9158 133.848L136.312 131.565C135.894 93.4034 130.779 69.3636 130.779 69.3636C130.779 69.3636 121.139 71.389 113.295 71.0966C108.655 70.8812 104.059 70.0934 99.6118 68.7511Z" fill="#F86241"/>
<path d="M130.806 69.3914C130.806 69.3914 135.804 81.0703 136.34 92.8884C136.875 104.706 116.044 120.951 116.044 120.951C116.044 120.951 99.9874 109.899 87.5986 110.901C75.2098 111.903 71.354 116.309 71.354 116.309C71.354 116.309 80.9866 95.7002 97.7602 88.5175C97.7602 88.5175 94.2802 76.6507 99.6116 68.8068C99.6116 68.7511 111.207 72.5513 130.806 69.3914Z" fill="#F86241"/>
<path opacity="0.6" d="M136.34 92.8884C136.357 93.2222 136.357 93.5568 136.34 93.8906C136.311 94.4069 136.248 94.9208 136.152 95.4288C135.925 96.6242 135.568 97.7912 135.087 98.9088C133.6 102.18 131.66 105.226 129.324 107.957C128.141 109.404 126.888 110.796 125.649 112.091C122.649 115.255 119.44 118.215 116.044 120.951C111.827 118.16 107.344 115.793 102.66 113.887C101.234 113.316 99.751 112.78 98.2407 112.328C94.8107 111.217 91.2061 110.746 87.6058 110.936C84.1694 111.164 80.776 111.829 77.5069 112.912C76.9431 113.107 76.4211 113.316 75.9409 113.518L75.5094 113.706C74.4633 114.159 73.4654 114.717 72.5305 115.369C72.4261 115.439 72.3286 115.515 72.2382 115.585C72.1477 115.655 71.911 115.836 71.7858 115.947L71.6187 116.093C71.5761 116.127 71.5365 116.164 71.5004 116.204L71.4169 116.288L71.3682 116.337C71.3682 116.302 71.4517 116.156 71.577 115.905L71.7718 115.522C71.9667 115.133 72.2382 114.611 72.5931 113.977L72.7462 113.699L73.0177 113.219C73.1082 113.052 73.2056 112.878 73.31 112.704C73.7137 112.008 74.187 111.2 74.702 110.344C77.563 105.715 80.9495 101.431 84.794 97.5794C86.1647 96.2165 87.6149 94.936 89.137 93.7445C91.7678 91.6507 94.6595 89.9077 97.7396 88.5593C96.9412 85.5028 96.578 82.349 96.6608 79.1911C96.6811 78.1964 96.7625 77.2039 96.9044 76.2192C97.2236 73.5555 98.1499 71.0006 99.6118 68.7511C101.322 69.2483 103.067 69.6182 104.832 69.8578C107.138 70.2096 109.461 70.4419 111.792 70.5538C116.479 70.7636 121.176 70.5984 125.837 70.0596C127.424 69.8879 129.073 69.6559 130.786 69.3636L130.946 69.7534C132.053 72.5319 133.008 75.3688 133.806 78.2515C134.113 79.3582 134.419 80.5414 134.711 81.7802C135.003 83.0191 135.226 84.1258 135.449 85.3577C135.909 87.8459 136.207 90.3615 136.34 92.8884Z" fill="white"/>
<g opacity="0.2">
<path d="M131.544 102.375L129.345 107.999C128.162 109.446 126.909 110.838 125.67 112.133L121.195 103.781L131.544 102.375Z" fill="white"/>
<path d="M93.6539 97.0017L84.8147 97.5098C86.1854 96.1469 87.6356 94.8663 89.1577 93.6749L93.6539 97.0017Z" fill="white"/>
<path d="M103.85 74.7367L102.904 83.9239L96.6396 79.1842C96.66 78.1895 96.7413 77.197 96.8832 76.2122L103.85 74.7367Z" fill="white"/>
<path d="M106.746 98.9436L103.85 90.1183L112.655 88.4897L106.746 98.9436Z" fill="white"/>
<path d="M121.891 90.5359V97.1409L128.21 94.872L121.891 90.5359Z" fill="white"/>
<path d="M105.632 109.669L102.66 113.845C101.233 113.274 99.751 112.738 98.2406 112.286L95.9995 107.177L105.632 109.669Z" fill="white"/>
<path d="M83.0537 103.335L87.5986 105.263L83.0537 108.36V103.335Z" fill="white"/>
<path d="M77.4997 112.85C72.9757 114.43 71.354 116.281 71.354 116.281C72.364 114.221 73.4863 112.218 74.7157 110.281L77.4997 112.85Z" fill="white"/>
<path d="M114.638 104.303L110.727 108.36L116.643 109.397L114.638 104.303Z" fill="white"/>
<path d="M114.638 78.8292L119.239 85.0236L122.531 78.0079L114.638 78.8292Z" fill="white"/>
<path d="M135.47 85.3855L129.588 81.5158L133.827 78.2794C134.426 80.423 135.024 82.8382 135.47 85.3855Z" fill="white"/>
<path d="M136.333 93.8906C136.206 95.6318 135.782 97.3383 135.08 98.9366L132.616 92.8745L136.333 93.8906Z" fill="white"/>
<path d="M130.966 69.7812L127.243 73.6231L125.851 70.0874C127.438 69.9158 129.087 69.6838 130.799 69.3914L130.966 69.7812Z" fill="white"/>
<path d="M111.813 70.5607L109.077 76.3514L104.832 69.8856C107.146 70.2311 109.476 70.4565 111.813 70.5607Z" fill="white"/>
</g>
<path opacity="0.2" d="M136.34 92.8884C136.357 93.2222 136.357 93.5568 136.34 93.8906C136.311 94.4069 136.248 94.9208 136.152 95.4288C131.28 87.7032 132.435 80.7154 132.435 80.7154L134.739 81.8081C135.003 82.9565 135.254 84.1536 135.477 85.3855C135.926 87.8652 136.215 90.3714 136.34 92.8884Z" fill="black"/>
<path d="M116.601 38.6352C124.863 35.7886 126.937 46.7923 118.731 54.2326C110.525 61.6728 101.101 62.5846 100.029 58.8122C98.9575 55.0399 103.99 42.9991 116.601 38.6352Z" fill="#F86241"/>
<path d="M108.326 38.0784C112.564 38.0784 118.585 42.3936 118.585 42.3936C118.585 42.3936 119.448 46.9872 115.223 51.024C110.998 55.0608 107.184 55.7011 104.832 54.1351C102.479 52.5691 101.825 46.4791 101.825 46.4791C102.039 45.7588 102.425 45.101 102.948 44.5617C103.472 44.0224 104.118 43.6177 104.832 43.3819C104.832 43.3819 105.528 38.1271 108.326 38.0784Z" fill="#F86241"/>
<path opacity="0.2" d="M115.223 51.024C110.998 55.0608 107.198 55.7011 104.832 54.1421C104.419 53.8526 104.069 53.4834 103.802 53.0563C102.27 50.7526 101.825 46.5 101.825 46.5C105.862 51.372 110.539 46.3399 111.186 42.9434C111.378 42.1367 111.38 41.2966 111.193 40.4888C111.006 39.681 110.634 38.9275 110.107 38.2872C112.891 38.8858 115.94 40.6675 117.513 41.6767C118.209 42.1013 118.585 42.3727 118.585 42.3727C118.585 42.3727 119.448 46.9872 115.223 51.024Z" fill="black"/>
<path opacity="0.6" d="M115.223 51.024C110.998 55.0608 107.198 55.7011 104.832 54.1421C104.419 53.8526 104.069 53.4834 103.802 53.0563C108.033 54.3161 113.072 52.2211 115.78 48.4558C117.215 46.5066 117.837 44.0757 117.513 41.6767C118.209 42.1013 118.585 42.3727 118.585 42.3727C118.585 42.3727 119.448 46.9872 115.223 51.024Z" fill="white"/>
<path d="M130.806 69.3914C130.806 69.3914 127.542 75.9895 135.47 86.4504L152.946 73.6231L145.986 60.9907L130.806 69.3914Z" fill="#F86241"/>
<path opacity="0.6" d="M152.946 73.6231L148.387 76.9709L141.643 81.9334L135.47 86.4713C135.066 85.9423 134.697 85.4203 134.349 84.9122C133.642 83.8767 133.001 82.7982 132.428 81.6828C131.016 79.0917 130.236 76.2038 130.152 73.2542C130.105 71.9317 130.342 70.6144 130.848 69.3914L134.732 67.2338L141.42 63.5242L144.357 61.8886L146.014 60.9698L152.946 73.6231Z" fill="white"/>
<g opacity="0.2">
<path d="M148.387 76.95L141.643 81.9125L138.671 75.3005L148.387 76.95Z" fill="white"/>
<path d="M147.761 66.3151L141.538 68.779L141.378 63.5242L144.316 61.8886L147.761 66.3151Z" fill="white"/>
<path d="M136.917 71.4934L130.152 73.2542C130.105 71.9317 130.342 70.6144 130.848 69.3914L134.732 67.2338L136.917 71.4934Z" fill="white"/>
<path d="M135.469 79.9358L134.328 84.8914C133.621 83.8559 132.98 82.7773 132.407 81.6619L135.469 79.9358Z" fill="white"/>
</g>
<path d="M178.482 188.192L167.736 187.343L171.285 142.026L182.066 142.868L178.482 188.192ZM169.942 185.408L176.561 185.923L179.784 144.768L173.172 144.253L169.942 185.408Z" fill="#263238"/>
<path d="M171.056 246.607L172.448 246.718C172.835 246.713 173.22 246.788 173.577 246.94C173.933 247.091 174.254 247.315 174.519 247.598C174.785 247.881 174.988 248.216 175.116 248.582C175.244 248.947 175.294 249.336 175.264 249.722C175.233 250.108 175.122 250.484 174.938 250.825C174.753 251.166 174.5 251.465 174.194 251.702C173.888 251.94 173.535 252.111 173.159 252.204C172.783 252.297 172.391 252.311 172.01 252.244L170.618 252.133C170.23 252.14 169.845 252.065 169.488 251.914C169.13 251.763 168.809 251.539 168.543 251.257C168.277 250.975 168.074 250.64 167.945 250.274C167.816 249.908 167.765 249.519 167.795 249.133C167.826 248.746 167.936 248.37 168.12 248.029C168.304 247.687 168.557 247.388 168.864 247.15C169.17 246.913 169.523 246.741 169.899 246.648C170.275 246.554 170.667 246.54 171.049 246.607H171.056Z" fill="#263238"/>
<path opacity="0.1" d="M168.028 249.099C167.983 249.656 168.104 250.214 168.377 250.703C168.649 251.191 169.06 251.588 169.558 251.843C170.056 252.097 170.619 252.198 171.174 252.133C171.73 252.068 172.253 251.839 172.679 251.476C173.104 251.113 173.413 250.632 173.564 250.094C173.716 249.556 173.705 248.984 173.532 248.453C173.359 247.921 173.032 247.452 172.592 247.106C172.153 246.76 171.62 246.553 171.063 246.509C170.693 246.475 170.319 246.515 169.965 246.628C169.61 246.74 169.282 246.922 168.999 247.164C168.716 247.405 168.485 247.701 168.318 248.033C168.151 248.365 168.053 248.728 168.028 249.099Z" fill="white"/>
<path d="M163.456 246.015L164.848 246.12C165.235 246.113 165.62 246.188 165.977 246.339C166.335 246.49 166.656 246.713 166.922 246.996C167.188 247.278 167.391 247.613 167.52 247.979C167.649 248.345 167.7 248.733 167.67 249.12C167.64 249.507 167.529 249.883 167.345 250.224C167.161 250.565 166.908 250.865 166.601 251.102C166.295 251.34 165.942 251.511 165.566 251.605C165.19 251.699 164.798 251.713 164.416 251.646L163.024 251.542C162.636 251.548 162.251 251.473 161.894 251.323C161.537 251.172 161.215 250.948 160.949 250.665C160.684 250.383 160.48 250.048 160.351 249.682C160.223 249.316 160.172 248.928 160.202 248.541C160.232 248.155 160.343 247.779 160.527 247.437C160.711 247.096 160.964 246.797 161.27 246.559C161.576 246.321 161.929 246.15 162.305 246.056C162.682 245.963 163.073 245.949 163.456 246.015Z" fill="#263238"/>
<path opacity="0.2" d="M160.428 248.507C160.384 249.064 160.507 249.622 160.78 250.11C161.053 250.597 161.465 250.993 161.963 251.247C162.462 251.5 163.024 251.6 163.579 251.534C164.134 251.468 164.657 251.239 165.082 250.875C165.507 250.512 165.814 250.031 165.965 249.493C166.117 248.954 166.105 248.383 165.931 247.852C165.758 247.32 165.431 246.852 164.991 246.507C164.552 246.161 164.02 245.954 163.462 245.911C162.716 245.855 161.978 246.097 161.41 246.583C160.841 247.07 160.488 247.761 160.428 248.507Z" fill="white"/>
<path d="M162.189 246.851L172.958 247.694C173.989 247.775 174.89 247.005 174.97 245.974L180.099 180.521C180.18 179.49 179.409 178.589 178.378 178.508L167.61 177.664C166.579 177.584 165.678 178.354 165.597 179.385L160.469 244.838C160.388 245.869 161.158 246.77 162.189 246.851Z" fill="#263238"/>
<path opacity="0.2" d="M167.565 247.262L172.963 247.685C173.994 247.766 174.895 246.996 174.976 245.965L180.104 180.512C180.185 179.481 179.415 178.58 178.384 178.499L172.986 178.076C171.955 177.996 171.054 178.766 170.973 179.797L165.844 245.25C165.764 246.281 166.534 247.182 167.565 247.262Z" fill="white"/>
<path d="M171.788 143.544L180.871 144.27C181.64 144.332 182.313 143.758 182.375 142.99L182.443 142.133C182.505 141.365 181.931 140.692 181.162 140.63L172.08 139.903C171.311 139.842 170.638 140.415 170.576 141.184L170.508 142.04C170.446 142.809 171.02 143.482 171.788 143.544Z" fill="#263238"/>
<path opacity="0.2" d="M171.788 143.544L180.871 144.27C181.64 144.332 182.313 143.758 182.375 142.99L182.443 142.133C182.505 141.365 181.931 140.692 181.162 140.63L172.08 139.903C171.311 139.842 170.638 140.415 170.576 141.184L170.508 142.04C170.446 142.809 171.02 143.482 171.788 143.544Z" fill="white"/>
<path opacity="0.2" d="M171.997 144.448L172.753 144.507C173.52 144.567 174.189 143.994 174.249 143.227L174.316 142.374C174.376 141.607 173.803 140.938 173.037 140.878L172.28 140.819C171.514 140.759 170.844 141.331 170.784 142.098L170.717 142.951C170.658 143.718 171.23 144.388 171.997 144.448Z" fill="black"/>
<path d="M200.128 185.429L195.492 244.589C195.411 245.633 194.918 246.602 194.121 247.284C193.325 247.965 192.291 248.302 191.247 248.222L169.671 246.53C168.939 246.468 168.262 246.12 167.786 245.56C167.31 245.001 167.075 244.277 167.13 243.545L171.912 182.039C171.972 181.307 172.319 180.629 172.877 180.152C173.435 179.675 174.159 179.438 174.891 179.492L196.467 181.183C196.986 181.22 197.494 181.359 197.959 181.593C198.425 181.827 198.84 182.15 199.18 182.545C199.52 182.939 199.779 183.397 199.942 183.892C200.104 184.387 200.168 184.909 200.128 185.429Z" fill="#407F9D"/>
<path opacity="0.2" d="M200.128 185.429L195.492 244.589C195.411 245.633 194.918 246.602 194.121 247.284C193.325 247.965 192.291 248.302 191.247 248.222L169.671 246.53C168.939 246.468 168.262 246.12 167.786 245.56C167.31 245.001 167.075 244.277 167.13 243.545L171.912 182.039C171.972 181.307 172.319 180.629 172.877 180.152C173.435 179.675 174.159 179.438 174.891 179.492L196.467 181.183C196.986 181.22 197.494 181.359 197.959 181.593C198.425 181.827 198.84 182.15 199.18 182.545C199.52 182.939 199.779 183.397 199.942 183.892C200.104 184.387 200.168 184.909 200.128 185.429Z" fill="white"/>
<path opacity="0.2" d="M185.289 180.306V180.389L184.516 180.327C183.783 180.273 183.059 180.511 182.5 180.99C181.942 181.468 181.596 182.148 181.538 182.881L176.721 244.366C176.677 244.983 176.84 245.597 177.184 246.111C177.528 246.626 178.034 247.011 178.621 247.205L169.65 246.509C168.918 246.449 168.24 246.102 167.763 245.544C167.286 244.986 167.049 244.263 167.102 243.531L171.912 182.046C171.971 181.313 172.317 180.633 172.875 180.155C173.433 179.676 174.158 179.438 174.891 179.492L185.289 180.306Z" fill="black"/>
<path opacity="0.2" d="M185.107 182.461L184.787 182.436C184.37 182.403 184.004 182.715 183.972 183.133L179.249 243.41C179.216 243.828 179.528 244.193 179.946 244.225L180.265 244.25C180.683 244.283 181.048 243.971 181.081 243.553L185.804 183.277C185.836 182.859 185.524 182.494 185.107 182.461Z" fill="black"/>
<path opacity="0.2" d="M189.428 183.096L189.109 183.071C188.691 183.038 188.326 183.35 188.294 183.768L183.571 244.045C183.538 244.463 183.85 244.828 184.268 244.86L184.587 244.885C185.005 244.918 185.37 244.606 185.403 244.188L190.125 183.912C190.158 183.494 189.846 183.129 189.428 183.096Z" fill="black"/>
<path opacity="0.2" d="M193.752 183.356L193.433 183.331C193.015 183.298 192.65 183.61 192.617 184.028L187.894 244.305C187.862 244.722 188.174 245.087 188.591 245.12L188.911 245.145C189.328 245.178 189.693 244.866 189.726 244.448L194.449 184.171C194.482 183.754 194.169 183.388 193.752 183.356Z" fill="black"/>
<path opacity="0.2" d="M198.062 183.608L197.743 183.583C197.325 183.551 196.96 183.863 196.927 184.281L192.205 244.557C192.172 244.975 192.484 245.34 192.902 245.373L193.221 245.398C193.639 245.431 194.004 245.119 194.036 244.701L198.759 184.424C198.792 184.006 198.48 183.641 198.062 183.608Z" fill="black"/>
</svg>
