<svg width="346" height="204" viewBox="0 0 346 204" fill="none" xmlns="http://www.w3.org/2000/svg">
<g clip-path="url(#clip0_16_593)">
<path d="M49.8034 90.5726L68.3462 49.4653L97.2553 92.4485L108.26 81.0017L184.12 143.367L212.038 106.375L226.77 113.25L261.395 67.9884L295.058 73.3066C295.058 73.3066 342.107 147.497 341.022 148.931C339.936 150.365 341.022 201.746 341.022 201.746H4.94434L49.8034 90.5726Z" fill="#F5F5F5"/>
<path d="M163.054 9.39902C163.358 7.21377 160.274 5.42137 157.961 5.23476C156.856 5.14637 155.712 5.31333 154.666 4.94994C152.397 4.15932 151.494 1.23256 149.264 0.299529C147.609 -0.397788 145.709 0.220957 144.103 1.03122C142.497 1.84148 140.921 2.85308 139.129 2.96603C137.572 3.06424 135.883 2.47496 134.518 3.25085C133.506 3.81558 132.971 4.98432 132.038 5.67673C131.105 6.36913 129.926 6.4919 128.792 6.55574C127.657 6.61958 126.479 6.6294 125.443 7.10082C124.406 7.57225 123.557 8.66733 123.768 9.78697L163.054 9.39902Z" fill="#E0E0E0"/>
<path d="M128.217 35.5729C128.649 32.4399 124.22 29.8569 120.895 29.5917C119.309 29.4641 117.659 29.7047 116.157 29.1792C112.901 28.0449 111.604 23.8413 108.427 22.5007C106.05 21.5186 103.315 22.3878 101.012 23.5467C98.7089 24.7056 96.4353 26.1641 93.8621 26.331C91.6277 26.4734 89.1969 25.6435 87.2376 26.7386C85.7644 27.5538 85.0179 29.2333 83.6724 30.2252C82.3269 31.2172 80.6425 31.3989 79.0072 31.4873C77.372 31.5756 75.6876 31.5953 74.1997 32.273C72.7118 32.9506 71.4841 34.527 71.7935 36.1328L128.217 35.5729Z" fill="#EBEBEB"/>
<path d="M337.358 44.1077C337.79 40.9698 333.366 38.3917 330.037 38.1216C328.45 37.9939 326.805 38.2395 325.303 37.714C322.047 36.5797 320.745 32.3712 317.568 31.0306C315.192 30.0485 312.461 30.9226 310.158 32.0815C307.855 33.2404 305.591 34.6792 303.008 34.8658C300.769 35.0082 298.338 34.1783 296.384 35.2685C294.91 36.0837 294.159 37.7631 292.814 38.7551C291.468 39.7471 289.784 39.9337 288.153 40.0221C286.523 40.1105 284.829 40.1252 283.341 40.8078C281.853 41.4903 280.625 43.0569 280.935 44.6627L337.358 44.1077Z" fill="#F5F5F5"/>
<path d="M60.2237 11.0244C60.43 9.55123 58.3331 8.31865 56.7568 8.19097C56.0055 8.12713 55.2247 8.24499 54.5126 7.99455C52.9707 7.45928 52.3568 5.46554 50.8493 4.83207C49.7247 4.341 48.4332 4.77805 47.343 5.32313C46.2529 5.86822 45.1725 6.56063 43.9547 6.6392C42.8939 6.70795 41.7448 6.31509 40.8167 6.83563C40.1292 7.21866 39.7658 8.01419 39.1275 8.48562C38.4649 8.89196 37.6997 9.09986 36.9226 9.08472C36.1462 9.06339 35.373 9.19005 34.644 9.45793C34.2827 9.59772 33.9765 9.85078 33.7711 10.1792C33.5657 10.5077 33.4723 10.8938 33.5047 11.2798L60.2237 11.0244Z" fill="#F5F5F5"/>
<path d="M294.645 14.8351C294.851 13.3619 292.755 12.1293 291.178 12.0016C290.427 11.9427 289.651 12.0556 288.939 11.8052C287.397 11.2699 286.778 9.27621 285.276 8.64273C284.151 8.15166 282.855 8.59362 281.764 9.1338C280.674 9.67397 279.599 10.3762 278.381 10.4548C277.32 10.5186 276.171 10.1258 275.243 10.6463C274.551 11.0293 274.187 11.8248 273.554 12.2963C272.89 12.7048 272.123 12.9129 271.344 12.8954C270.568 12.8773 269.795 13.0039 269.065 13.2686C268.704 13.4099 268.398 13.6641 268.193 13.9932C267.988 14.3223 267.894 14.7088 267.926 15.0954L294.645 14.8351Z" fill="#EBEBEB"/>
<path d="M218.741 11.1914C218.549 11.161 218.359 11.1201 218.171 11.0687C217.659 10.9648 217.132 10.9499 216.614 11.0245C215.848 11.1313 215.126 11.4473 214.527 11.9379C213.794 12.5373 213.277 13.3598 213.054 14.2803V14.3048L212.961 14.6535L212.828 14.3245C212.472 13.4509 211.859 12.706 211.07 12.1883C210.426 11.765 209.684 11.5131 208.914 11.4566C208.2 11.4199 207.485 11.5113 206.803 11.7267C206.966 11.6178 207.147 11.538 207.338 11.491C207.977 11.2928 208.651 11.234 209.314 11.3187C209.977 11.4035 210.615 11.6297 211.183 11.9821C212.02 12.5144 212.67 13.2934 213.044 14.2115H212.823V14.187C213.055 13.2172 213.605 12.3529 214.385 11.7316C214.916 11.3205 215.535 11.0382 216.194 10.907C216.853 10.7758 217.533 10.7992 218.181 10.9754C218.378 11.0158 218.567 11.0888 218.741 11.1914Z" fill="#E0E0E0"/>
<path d="M154.524 44.9524C154.524 44.9524 154.298 44.8885 153.885 44.805C153.307 44.6864 152.712 44.6698 152.127 44.7559C151.263 44.8772 150.448 45.2321 149.77 45.7823C148.943 46.4603 148.361 47.3897 148.11 48.4291V48.4586L148.017 48.8023L147.884 48.4733C147.487 47.4918 146.802 46.6531 145.92 46.0671C145.187 45.5848 144.341 45.3006 143.465 45.2421C142.878 45.1957 142.288 45.2438 141.717 45.3845C141.309 45.4827 141.093 45.5711 141.083 45.5564C141.073 45.5416 141.132 45.5171 141.235 45.4729C141.383 45.4019 141.535 45.3428 141.692 45.2961C142.413 45.0758 143.173 45.0145 143.92 45.1162C144.667 45.2179 145.383 45.4803 146.018 45.8854C146.957 46.4836 147.686 47.3588 148.105 48.3898H147.884V48.3604C148.144 47.2704 148.761 46.2988 149.638 45.6006C150.231 45.1288 150.926 44.8018 151.667 44.6458C152.409 44.4898 153.177 44.509 153.91 44.7019C154.068 44.7418 154.222 44.7943 154.371 44.859C154.427 44.8806 154.479 44.9122 154.524 44.9524Z" fill="#E0E0E0"/>
<path d="M345.505 201.765C345.505 201.839 268.265 201.898 173.012 201.898C77.7598 201.898 0.5 201.839 0.5 201.765C0.5 201.692 77.7352 201.642 173.002 201.642C268.27 201.642 345.505 201.692 345.505 201.765Z" fill="#263238"/>
<path d="M298.608 132.407L282.083 41.1171L256.18 125.925L263.771 122.983L245.018 173.632L255.733 168.923L242.783 201.903H300.837L295.927 171.275L300.837 180.109L290.098 126.681L298.608 132.407Z" fill="#263238"/>
<path d="M78.6879 135.049L61.6037 19.0043L37.9587 128.827L45.2462 125.998L27.2387 174.629L37.5315 170.106L25.0977 201.77H80.8339L76.1197 172.365L80.8339 180.846L70.5215 129.549L78.6879 135.049Z" fill="#263238"/>
<path d="M308.93 156.499L302.502 152.806L300.366 141.732L298.573 142.228L300.13 152.688L293.967 148.519L292.617 150.066L300.773 155.256L308.93 159.077V156.499Z" fill="#455A64"/>
<path d="M312.746 140.342H308.036V201.446H312.746V140.342Z" fill="#455A64"/>
<path d="M309.107 23.6302C309.107 24.2686 296.467 64.1335 296.467 64.1335L302.787 57.7054L293.678 85.5637L299.678 77.2156L292.607 112.15L296.044 108.506L290.044 133.153L295.19 126.725L290.034 145.17L330.753 142.169L321.109 107.451L326.938 113.879L319.395 88.5887L323.269 90.7101L314.484 58.1327L318.555 60.917L309.107 23.6302Z" fill="#455A64"/>
<path d="M310.502 94.7811C310.448 94.9826 310.379 95.1796 310.295 95.3703L309.662 96.986C309.082 98.4002 308.297 100.33 307.383 102.569L307.28 102.815L307.153 102.579C306.513 101.389 305.958 100.155 305.493 98.8864C305.311 98.3953 305.144 97.9043 305.002 97.4132H305.252C304.128 100.276 303.028 102.771 302.198 104.543C301.785 105.427 301.441 106.135 301.216 106.616C301.103 106.837 301.009 107.018 300.926 107.171C300.842 107.323 300.823 107.357 300.813 107.352C300.9 107.087 301.005 106.828 301.127 106.577C301.363 106.046 301.677 105.334 302.055 104.47C302.841 102.682 303.911 100.178 305.002 97.315L305.139 96.9663L305.247 97.3248C305.395 97.7913 305.557 98.2824 305.738 98.7735C306.199 100.032 306.745 101.258 307.374 102.442H307.143C308.095 100.217 308.911 98.302 309.515 96.8976C309.799 96.2444 310.035 95.7141 310.217 95.3114C310.295 95.1263 310.391 94.9487 310.502 94.7811Z" fill="#263238"/>
<path d="M314.813 79.9016C314.72 79.7667 314.643 79.6217 314.582 79.4695C314.425 79.1454 314.233 78.7378 313.998 78.2517C313.507 77.2155 312.755 75.7963 311.793 74.1561L312.029 74.1218C311.822 74.9075 311.606 75.7521 311.375 76.6262C311.233 77.1762 311.096 77.7066 310.958 78.2222L310.865 78.5807L310.713 78.2418C309.843 76.3119 309.092 74.6079 308.567 73.3852C308.321 72.8057 308.115 72.3245 307.958 71.9414C307.869 71.773 307.804 71.5928 307.766 71.4062C307.873 71.5611 307.965 71.7255 308.041 71.8972L308.719 73.3066C309.288 74.5097 310.074 76.199 310.948 78.124H310.703C310.84 77.6329 310.978 77.078 311.12 76.5329C311.351 75.6588 311.572 74.8142 311.783 74.0285L311.862 73.7338L312.014 73.999C312.802 75.3444 313.513 76.733 314.145 78.1583C314.376 78.6838 314.548 79.111 314.661 79.4057C314.733 79.5635 314.784 79.7303 314.813 79.9016Z" fill="#263238"/>
<path d="M309.028 49.3621C308.827 49.8516 308.587 50.3245 308.311 50.7764C307.82 51.6456 307.157 52.8536 306.377 54.2139L306.2 54.5282L306.136 54.1746C306.062 53.7768 305.989 53.3643 305.915 52.9469L305.591 50.8845L305.822 50.9286C305.095 52.0827 304.466 53.0648 304.005 53.7572C303.78 54.1367 303.525 54.4979 303.244 54.8376C303.422 54.4334 303.632 54.0442 303.872 53.6737C304.294 52.9617 304.898 51.9599 305.61 50.7961L305.782 50.5162L305.841 50.8403C305.959 51.4885 306.082 52.1858 306.215 52.9077C306.288 53.33 306.362 53.7376 306.431 54.1353L306.19 54.096C306.981 52.7309 307.688 51.5425 308.203 50.6978C308.445 50.2329 308.721 49.7864 309.028 49.3621Z" fill="#263238"/>
<path d="M35.2922 163.496H28.7119V201.77H35.2922V163.496Z" fill="#455A64"/>
<path d="M30.5925 37.6256C30.5925 38.3278 16.7984 81.8218 16.7984 81.8218L23.6734 74.8093L13.7636 105.202L20.3096 96.0873L12.5949 134.199L16.3368 130.221L9.79089 157.112L15.3989 150.08L9.79089 170.214L54.2129 166.939L43.6893 129.063L50.0438 136.075L41.8233 108.487L46.0317 110.824L36.4412 75.2758L40.8608 78.3155L30.5925 37.6256Z" fill="#455A64"/>
<path d="M37.2123 107.927C37.2123 107.927 37.1582 107.893 37.0649 107.804L36.6623 107.416L35.1891 105.943L30.0378 100.718L30.2489 100.654C29.9543 102.358 29.64 104.224 29.3061 106.174C29.1145 107.269 28.9329 108.335 28.7512 109.361L28.6726 109.813L28.5056 109.39C27.3871 106.613 26.5338 103.735 25.957 100.797C25.7409 99.6967 25.6034 98.8324 25.5298 98.1989C25.4856 97.8944 25.4659 97.6538 25.4512 97.4967C25.4414 97.4151 25.4414 97.3327 25.4512 97.2511C25.4837 97.3259 25.5037 97.4055 25.5101 97.4868L25.6329 98.1842C25.736 98.7931 25.8981 99.6574 26.1239 100.762C26.754 103.675 27.633 106.529 28.7512 109.292L28.5007 109.317C28.6775 108.29 28.8592 107.225 29.0507 106.13C29.3895 104.165 29.7137 102.319 30.0328 100.615L30.0721 100.369L30.244 100.546C32.2869 102.677 34.04 104.509 35.3118 105.83C35.906 106.468 36.3922 106.979 36.7507 107.362L37.1239 107.775C37.1594 107.822 37.189 107.873 37.2123 107.927Z" fill="#263238"/>
<path d="M21.0511 142.464C21.0893 141.473 21.2126 140.487 21.4194 139.517C21.5423 138.528 21.7527 137.552 22.048 136.6C21.8964 138.59 21.5677 140.562 21.0659 142.493L21.0511 142.464Z" fill="#263238"/>
<path d="M36.2301 127.54C36.2034 127.654 36.1638 127.764 36.1123 127.869L35.7292 128.797L34.256 132.21C32.9842 135.108 31.231 139.085 29.2766 143.529L29.1145 143.898L29.0261 143.505C28.9574 143.181 28.8788 142.837 28.8003 142.488C28.1422 139.488 27.5235 136.659 26.9833 134.204L27.1945 134.248L23.1333 140.229L21.9695 141.904L21.6552 142.341C21.6199 142.393 21.5804 142.442 21.5374 142.488C21.5582 142.429 21.588 142.372 21.6257 142.321L21.9106 141.865L23.0155 140.151L27.0029 134.116L27.1552 133.875L27.2141 134.145C27.7592 136.6 28.3927 139.424 29.0605 142.425C29.1391 142.768 29.2127 143.117 29.2864 143.436L29.036 143.412C31.0002 138.992 32.7976 135.019 34.0891 132.117C34.7373 130.708 35.2578 129.559 35.6359 128.738C35.8127 128.36 35.9551 128.061 36.0681 127.83C36.114 127.729 36.1682 127.632 36.2301 127.54Z" fill="#263238"/>
<path d="M39.7265 161.743C38.6147 160.532 37.5688 159.261 36.5935 157.937C35.5392 156.672 34.5556 155.349 33.6471 153.974C34.7588 155.184 35.8047 156.453 36.7801 157.775C37.8345 159.043 38.8182 160.367 39.7265 161.743Z" fill="#263238"/>
<path d="M35.5033 71.7205C35.3776 71.5829 35.2657 71.4332 35.1694 71.2736L34.3002 69.9723L31.3096 65.3857L31.5306 65.3415C31.231 66.8589 30.9511 68.558 30.7449 70.3553C30.5828 71.7794 30.4797 73.1593 30.4159 74.4213V74.9124L30.1998 74.4803C29.2748 72.6302 28.552 70.6858 28.044 68.6808C27.8574 67.9393 27.7346 67.3451 27.6659 66.9375C27.6189 66.7293 27.591 66.5172 27.5824 66.304C27.6536 66.5054 27.7078 66.7123 27.7444 66.9227C27.8427 67.3254 27.9851 67.9049 28.1913 68.6415C28.7512 70.6172 29.4994 72.5346 30.4257 74.3673L30.1851 74.4164C30.2391 73.1495 30.3373 71.7647 30.4993 70.3357C30.7105 68.5285 30.9904 66.8245 31.3145 65.3022L31.3784 65.0076L31.5355 65.2629L34.4426 69.9035C34.7765 70.4535 35.0466 70.8857 35.2578 71.2392C35.3513 71.3934 35.4334 71.5543 35.5033 71.7205Z" fill="#263238"/>
<path d="M216 26.1837C220.6 26.1837 224.329 22.4549 224.329 17.8552C224.329 13.2555 220.6 9.52669 216 9.52669C211.401 9.52669 207.672 13.2555 207.672 17.8552C207.672 22.4549 211.401 26.1837 216 26.1837Z" fill="#E7AE33"/>
<path d="M215.524 27.1069C215.652 28.248 215.695 29.397 215.652 30.5444C215.695 31.6918 215.652 32.8408 215.524 33.9819C215.399 32.8406 215.356 31.6918 215.396 30.5444C215.356 29.397 215.399 28.2482 215.524 27.1069Z" fill="#E7AE33"/>
<path d="M210.869 25.9725C210.49 26.6147 210.038 27.2112 209.523 27.7502C209.074 28.3472 208.557 28.8894 207.981 29.3658C208.365 28.7256 208.818 28.1295 209.332 27.5881C209.78 26.992 210.296 26.4499 210.869 25.9725Z" fill="#E7AE33"/>
<path d="M206.13 21.003C205.037 21.7271 203.9 22.3831 202.727 22.9673C201.593 23.6318 200.417 24.2207 199.206 24.7302C200.294 23.9935 201.429 23.3291 202.604 22.7414C203.74 22.0857 204.918 21.505 206.13 21.003Z" fill="#E7AE33"/>
<path d="M204.465 15.066C203.581 15.2601 202.679 15.367 201.774 15.3852C200.875 15.4917 199.967 15.5115 199.063 15.4441C199.949 15.256 200.85 15.1508 201.755 15.1298C202.654 15.0262 203.562 15.0048 204.465 15.066Z" fill="#E7AE33"/>
<path d="M207.22 11.0294C206.192 10.1999 205.218 9.306 204.303 8.35307C203.328 7.46108 202.413 6.50638 201.563 5.49506C202.591 6.32138 203.565 7.212 204.48 8.16156C205.455 9.05671 206.37 10.0147 207.22 11.0294Z" fill="#E7AE33"/>
<path d="M212.347 7.89143C212.028 7.46812 211.778 6.99754 211.605 6.49679C211.366 6.03437 211.2 5.53728 211.114 5.02359C211.436 5.44568 211.688 5.91651 211.861 6.41822C212.098 6.88109 212.262 7.37811 212.347 7.89143Z" fill="#E7AE33"/>
<path d="M216.933 0.206207C217.041 1.41934 217.064 2.63851 217.002 3.85484C217.026 5.07216 216.965 6.28964 216.82 7.49857C216.712 6.28549 216.688 5.0664 216.747 3.84993C216.72 2.63244 216.783 1.41463 216.933 0.206207Z" fill="#E7AE33"/>
<path d="M225.331 5.11201C225.021 5.78576 224.636 6.42176 224.182 7.00754C223.795 7.64044 223.337 8.22699 222.816 8.75574C223.126 8.08131 223.514 7.4452 223.97 6.86022C224.353 6.22577 224.81 5.63894 225.331 5.11201Z" fill="#E7AE33"/>
<path d="M233.247 7.12048C231.958 8.06777 230.618 8.94479 229.235 9.7477C227.896 10.626 226.511 11.4309 225.085 12.1588C226.377 11.2137 227.718 10.3367 229.102 9.53163C230.44 8.65529 231.823 7.85044 233.247 7.12048Z" fill="#E7AE33"/>
<path d="M223.43 29.5033C222.969 29.0724 222.6 28.553 222.345 27.9761C222.016 27.4401 221.795 26.8443 221.697 26.223C222.028 26.7459 222.32 27.2925 222.571 27.8583C222.895 28.3859 223.182 28.9356 223.43 29.5033Z" fill="#E7AE33"/>
<path d="M231.744 27.9761C230.374 27.3634 229.041 26.6715 227.752 25.9038C226.42 25.2098 225.128 24.4426 223.882 23.6056C225.252 24.2183 226.585 24.9102 227.874 25.6779C229.206 26.3719 230.498 27.1391 231.744 27.9761Z" fill="#E7AE33"/>
<path d="M230.855 21.7101C229.997 21.4922 229.162 21.193 228.361 20.8164C227.526 20.5203 226.721 20.1436 225.959 19.6918C226.818 19.9065 227.653 20.2042 228.454 20.5807C229.29 20.8771 230.094 21.2554 230.855 21.7101Z" fill="#E7AE33"/>
<path d="M232.245 15.562C231.3 15.7891 230.337 15.9321 229.367 15.9892C228.405 16.1284 227.432 16.1859 226.46 16.1611C227.405 15.9334 228.368 15.7904 229.338 15.7338C230.3 15.5946 231.273 15.5371 232.245 15.562Z" fill="#E7AE33"/>
<path d="M39.2649 179.952C39.4069 180.216 39.5253 180.492 39.6185 180.777C39.8345 181.312 40.1095 182.098 40.4631 183.075C41.1457 185.039 42.0001 187.755 42.7662 190.814C43.5323 193.874 44.0675 196.683 44.3916 198.726C44.5488 199.747 44.6666 200.577 44.7305 201.151C44.775 201.447 44.8013 201.746 44.8091 202.045C44.725 201.758 44.6642 201.464 44.6274 201.166C44.5193 200.552 44.3769 199.742 44.205 198.755C43.8367 196.727 43.2769 193.933 42.5109 190.898C41.7448 187.863 40.9198 185.118 40.2863 183.154C39.972 182.206 39.7167 181.42 39.5252 180.831C39.4159 180.545 39.3289 180.251 39.2649 179.952Z" fill="#FAFAFA"/>
<path d="M44.2688 184.337C44.3693 184.554 44.4498 184.779 44.5094 185.01C44.6518 185.452 44.8433 186.09 45.0742 186.886C45.5308 188.472 46.125 190.672 46.7241 193.118C47.3232 195.563 47.8192 197.788 48.1433 199.408C48.3103 200.213 48.438 200.881 48.5165 201.328C48.5727 201.562 48.604 201.8 48.6098 202.04C48.5274 201.815 48.4617 201.583 48.4134 201.348C48.2956 200.857 48.1433 200.213 47.9616 199.447C47.5884 197.842 47.0679 195.622 46.4884 193.181C45.909 190.741 45.3197 188.531 44.9121 186.935C44.7157 186.174 44.5585 185.535 44.421 185.039C44.3466 184.811 44.2956 184.576 44.2688 184.337Z" fill="#FAFAFA"/>
<path d="M52.1652 179.053C52.1378 179.348 52.0886 179.64 52.0179 179.927C51.905 180.487 51.7478 181.302 51.576 182.304C50.6542 187.551 50.3493 192.887 50.6675 198.205C50.7264 199.226 50.7853 200.047 50.8344 200.616C50.8722 200.911 50.887 201.208 50.8786 201.505C50.8061 201.218 50.7568 200.926 50.7313 200.631C50.6478 200.061 50.5594 199.236 50.4809 198.22C50.2693 195.558 50.2398 192.886 50.3925 190.22C50.5424 187.558 50.8705 184.908 51.3746 182.289C51.576 181.283 51.7577 180.473 51.9001 179.923C51.9626 179.626 52.0513 179.335 52.1652 179.053Z" fill="#FAFAFA"/>
<path d="M54.8907 192.283C54.8317 192.763 54.7398 193.239 54.6157 193.707C54.1431 195.983 53.9404 198.307 54.0117 200.631C54.057 201.112 54.0652 201.597 54.0362 202.08C53.9109 201.61 53.8401 201.127 53.8251 200.641C53.7295 199.471 53.7295 198.295 53.8251 197.125C53.9287 195.957 54.1257 194.799 54.4143 193.663C54.521 193.186 54.6808 192.723 54.8907 192.283Z" fill="#FAFAFA"/>
<path d="M214.331 175.709C214.331 175.709 214.331 175.709 214.331 175.773C214.331 175.837 214.36 175.886 214.385 175.965C214.429 176.131 214.512 176.377 214.596 176.696C214.782 177.33 215.023 178.253 215.259 179.412C215.834 182.436 216.089 185.512 216.02 188.59C215.961 192.194 215.598 195.465 215.337 197.793C215.205 198.956 215.092 199.904 215.013 200.577C214.979 200.896 214.954 201.146 214.93 201.333C214.93 201.412 214.93 201.476 214.93 201.53C214.93 201.584 214.93 201.598 214.93 201.598V201.53C214.93 201.48 214.94 201.417 214.959 201.338C214.989 201.151 215.023 200.901 215.072 200.582C215.166 199.929 215.293 198.981 215.441 197.807C215.849 194.75 216.091 191.673 216.167 188.59C216.239 185.503 215.967 182.419 215.357 179.392C215.111 178.233 214.866 177.31 214.655 176.677C214.557 176.362 214.468 176.122 214.409 175.955C214.385 175.881 214.36 175.817 214.345 175.768L214.331 175.709Z" fill="#65969C"/>
<path d="M215.897 183.095C216.035 183.237 216.943 182.574 217.763 181.484C218.583 180.394 218.971 179.338 218.795 179.245C218.618 179.152 217.96 179.996 217.174 181.042C216.388 182.088 215.75 182.947 215.897 183.095Z" fill="#65969C"/>
<path d="M213.128 180.08C213 180.237 213.521 180.861 214.247 181.514C214.974 182.167 215.642 182.623 215.789 182.496C215.937 182.368 215.485 181.656 214.738 180.988C213.992 180.32 213.27 179.918 213.128 180.08Z" fill="#65969C"/>
<path d="M215.524 180.158C215.696 180.252 216.447 179.176 216.933 177.629C217.42 176.082 217.424 174.776 217.238 174.752C217.051 174.727 216.698 175.94 216.231 177.408C215.765 178.877 215.337 180.06 215.524 180.158Z" fill="#65969C"/>
<path d="M211.797 175.744C211.645 175.881 212.327 176.878 213.319 177.973C214.311 179.068 215.234 179.839 215.387 179.706C215.539 179.574 214.856 178.572 213.864 177.477C212.872 176.382 211.934 175.616 211.797 175.744Z" fill="#65969C"/>
<path d="M216.064 186.675C216.202 186.822 217.248 186.071 218.284 184.887C219.32 183.704 219.939 182.569 219.757 182.456C219.575 182.343 218.731 183.252 217.719 184.421C216.707 185.589 215.927 186.527 216.064 186.675Z" fill="#65969C"/>
<path d="M213.761 183.021C213.604 183.144 213.972 183.905 214.596 184.715C215.22 185.526 215.848 186.085 216.01 185.963C216.172 185.84 215.799 185.084 215.18 184.268C214.562 183.453 213.923 182.898 213.761 183.021Z" fill="#65969C"/>
<path d="M216.069 190.348C216.207 190.49 217.199 189.729 218.078 188.482C218.957 187.235 219.345 186.051 219.163 185.968C218.981 185.884 218.318 186.871 217.474 188.06C216.629 189.248 215.922 190.22 216.069 190.348Z" fill="#65969C"/>
<path d="M213.854 187.077C213.707 187.215 214.1 187.873 214.684 188.585C215.269 189.297 215.838 189.818 216.005 189.695C216.172 189.572 215.858 188.855 215.254 188.118C214.65 187.382 214.002 186.935 213.854 187.077Z" fill="#65969C"/>
<path d="M215.809 193.496C215.961 193.628 216.899 192.813 217.906 191.674C218.912 190.535 219.6 189.503 219.448 189.366C219.295 189.228 218.357 190.048 217.351 191.188C216.344 192.327 215.657 193.358 215.809 193.496Z" fill="#65969C"/>
<path d="M213.049 190.638C212.892 190.77 213.417 191.649 214.169 192.641C214.92 193.633 215.617 194.384 215.789 194.272C215.961 194.159 215.519 193.211 214.758 192.199C213.997 191.188 213.201 190.51 213.049 190.638Z" fill="#65969C"/>
<path d="M215.455 197.488C215.593 197.635 216.732 196.776 217.994 195.573C219.256 194.37 220.165 193.265 220.022 193.118C219.88 192.97 218.745 193.83 217.483 195.038C216.221 196.246 215.313 197.341 215.455 197.488Z" fill="#65969C"/>
<path d="M213.039 193.972C212.862 194.06 213.137 194.954 213.82 195.892C214.503 196.83 215.293 197.365 215.416 197.208C215.539 197.051 215.048 196.329 214.434 195.455C213.82 194.581 213.226 193.879 213.039 193.972Z" fill="#65969C"/>
<path d="M204.671 174.143C204.72 174.225 204.757 174.315 204.779 174.408C204.853 174.614 204.937 174.899 205.045 175.189C205.27 175.861 205.57 176.848 205.924 178.071C206.631 180.527 207.5 183.93 208.246 187.745C208.993 191.561 209.469 195.052 209.72 197.567C209.852 198.834 209.945 199.86 209.99 200.567C209.99 200.901 210.029 201.171 210.039 201.387C210.052 201.482 210.052 201.577 210.039 201.672C210.007 201.582 209.988 201.488 209.985 201.392C209.985 201.176 209.926 200.901 209.887 200.577C209.798 199.835 209.68 198.824 209.533 197.586C209.224 195.062 208.713 191.585 207.971 187.765C207.23 183.944 206.39 180.546 205.727 178.091C205.398 176.893 205.128 175.91 204.932 175.189C204.843 174.869 204.775 174.604 204.716 174.398C204.692 174.315 204.677 174.229 204.671 174.143Z" fill="#263238"/>
<path d="M203.788 188.565C203.898 188.717 203.988 188.882 204.058 189.056C204.215 189.381 204.431 189.852 204.691 190.436C205.207 191.61 205.884 193.25 206.557 195.087C207.23 196.923 207.775 198.608 208.134 199.84C208.315 200.454 208.453 200.955 208.541 201.313C208.599 201.492 208.637 201.677 208.654 201.864C208.562 201.701 208.491 201.528 208.443 201.348C208.31 200.95 208.148 200.474 207.952 199.909C207.544 198.696 206.97 197.022 206.302 195.19C205.634 193.358 204.986 191.713 204.514 190.525L203.94 189.096C203.866 188.927 203.814 188.748 203.788 188.565Z" fill="#263238"/>
<path d="M207.161 201.878C206.546 200.68 205.86 199.519 205.109 198.401C204.282 197.34 203.391 196.33 202.442 195.376C202.792 195.571 203.112 195.814 203.395 196.098C204.831 197.394 205.98 198.977 206.768 200.744C206.952 201.102 207.084 201.483 207.161 201.878Z" fill="#263238"/>
<path d="M236.684 201.701C236.625 201.625 236.577 201.541 236.542 201.451C236.448 201.25 236.33 201.004 236.183 200.7C236.036 200.395 235.844 199.973 235.653 199.496C235.461 199.02 235.221 198.49 235 197.881C234.533 196.678 234.042 195.219 233.566 193.579C233.089 191.939 232.672 190.102 232.323 188.177C231.975 186.252 231.783 184.367 231.656 182.663C231.528 180.959 231.508 179.417 231.543 178.125C231.543 177.482 231.582 176.898 231.606 176.387C231.631 175.876 231.66 175.434 231.7 175.076C231.739 174.717 231.759 174.467 231.778 174.246C231.784 174.149 231.8 174.054 231.827 173.961C231.839 174.057 231.839 174.154 231.827 174.251C231.827 174.472 231.827 174.742 231.798 175.081C231.768 175.419 231.754 175.881 231.749 176.392C231.744 176.902 231.714 177.487 231.724 178.13C231.724 179.417 231.773 180.949 231.896 182.643C232.019 184.337 232.25 186.198 232.584 188.133C232.918 190.068 233.355 191.885 233.797 193.535C234.239 195.185 234.73 196.634 235.172 197.842C235.378 198.451 235.604 198.986 235.785 199.467C235.967 199.948 236.134 200.351 236.276 200.685L236.591 201.451C236.632 201.53 236.663 201.614 236.684 201.701Z" fill="#65969C"/>
<path d="M233.664 193.486C234.298 189.646 235.569 180.924 239.4 175.739C237.447 176.949 235.862 178.671 234.818 180.718C233.788 182.758 232.965 184.897 232.363 187.102C232.363 187.102 233.635 193.668 233.664 193.486Z" fill="#65969C"/>
<path d="M234.278 195.44C234.063 193.846 234.388 192.225 235.2 190.836C236.013 189.447 237.266 188.369 238.761 187.775C237.377 189.479 235.923 191.35 235.815 193.545C235.73 195.43 235.645 197.316 235.56 199.202C235.108 197.984 234.72 196.663 234.268 195.44" fill="#65969C"/>
<path d="M233.36 192.15C232.429 190.851 231.399 189.624 230.281 188.482C229.284 187.337 228.028 186.446 226.617 185.884C229.73 188.962 232.377 192.477 234.475 196.319" fill="#65969C"/>
<path d="M231.587 180.035C230.934 177.633 229.485 175.525 227.477 174.054C227.643 174.499 227.849 174.928 228.091 175.336C229.357 177.634 230.448 179.937 231.715 182.235" fill="#65969C"/>
<path d="M231.749 175.331C232.146 173.499 232.895 171.761 233.954 170.214C235.025 168.652 236.577 167.483 238.374 166.885C235.208 169.752 232.882 173.427 231.646 177.516" fill="#65969C"/>
<path d="M232.039 174.698C232.004 172.704 231.337 170.617 229.804 169.34C229.513 169.069 229.144 168.897 228.749 168.849C228.55 168.827 228.35 168.873 228.181 168.981C228.012 169.088 227.885 169.249 227.82 169.438C227.798 169.591 227.814 169.747 227.866 169.893C227.918 170.039 228.005 170.169 228.12 170.273C228.351 170.479 228.607 170.655 228.881 170.798C229.669 171.297 230.331 171.97 230.817 172.765C231.303 173.56 231.6 174.457 231.685 175.385" fill="#65969C"/>
<path d="M79.233 181.376C79.7365 181.511 80.2076 181.746 80.6177 182.067C81.0279 182.389 81.3687 182.79 81.6196 183.247C82.1191 184.163 82.4014 185.181 82.4446 186.223C82.587 188.231 81.8357 190.422 80.9272 192.214C79.0022 191.075 78.1576 188.629 77.804 187.357C77.2491 185.354 77.4602 181.391 79.233 181.376Z" fill="#65969C"/>
<path d="M83.4513 195.101C83.2359 194.559 83.1678 193.97 83.2541 193.393C83.3403 192.816 83.5778 192.272 83.9424 191.816C84.3115 191.367 84.7666 190.995 85.2809 190.724C85.7952 190.452 86.3585 190.286 86.9379 190.235C87.2016 190.182 87.4737 190.187 87.7351 190.251C87.9964 190.315 88.2406 190.435 88.4504 190.603C88.6191 190.791 88.7345 191.02 88.7846 191.267C88.8347 191.514 88.8176 191.77 88.7352 192.008C88.5635 192.482 88.2686 192.903 87.8807 193.226C86.6138 194.389 85.1749 195.288 83.4611 195.101" fill="#65969C"/>
<path d="M82.4446 201.515C82.432 201.378 82.432 201.24 82.4446 201.102C82.4446 200.808 82.4446 200.43 82.4446 199.973C82.4098 198.724 82.5756 197.477 82.9356 196.28C83.3186 195.08 84.0114 194.003 84.9441 193.157C85.2322 192.91 85.5467 192.696 85.8821 192.518C85.9999 192.455 86.0981 192.42 86.162 192.391C86.2258 192.361 86.2602 192.351 86.2651 192.356C85.8174 192.604 85.3976 192.898 85.0129 193.235C84.1151 194.086 83.4477 195.15 83.0731 196.329C82.7228 197.513 82.549 198.743 82.5575 199.978C82.5575 200.469 82.5575 200.837 82.5133 201.102C82.5041 201.242 82.4811 201.38 82.4446 201.515Z" fill="#263238"/>
<path d="M79.3411 184.406C79.3624 184.463 79.3788 184.523 79.3902 184.583C79.4245 184.71 79.4638 184.877 79.5178 185.074C79.621 185.506 79.7634 186.139 79.9352 186.92C80.279 188.487 80.721 190.657 81.158 193.059C81.5951 195.46 81.9339 197.655 82.1647 199.236C82.2776 200.032 82.3611 200.675 82.4151 201.117L82.4741 201.633C82.4806 201.691 82.4806 201.751 82.4741 201.809C82.4538 201.752 82.4407 201.693 82.4348 201.633C82.4348 201.505 82.3808 201.333 82.3464 201.142C82.2727 200.68 82.1696 200.046 82.0468 199.271C81.7915 197.689 81.433 195.504 81.0009 193.103C80.5687 190.701 80.1366 188.526 79.8223 186.96L79.4442 185.098C79.4049 184.892 79.3754 184.72 79.3509 184.607C79.3367 184.541 79.3334 184.473 79.3411 184.406Z" fill="#263238"/>
<path d="M80.8093 196.825C80.3889 195.671 79.6997 194.634 78.7988 193.8C77.8979 192.966 76.8111 192.358 75.6285 192.027C75.0294 191.865 74.2732 191.826 73.8951 192.322C73.5169 192.818 73.7527 193.54 74.0817 194.07C74.7876 195.166 75.8024 196.029 76.998 196.549C78.1936 197.069 79.5164 197.223 80.7995 196.992" fill="#65969C"/>
<path d="M76.2619 193.844C76.3908 193.86 76.5176 193.889 76.6401 193.933C76.7892 193.967 76.9353 194.013 77.0771 194.07C77.2441 194.134 77.4405 194.193 77.6418 194.291C77.8669 194.389 78.0866 194.499 78.2999 194.62C78.5461 194.755 78.7854 194.903 79.0168 195.062C79.5538 195.435 80.0478 195.867 80.49 196.349C80.9121 196.838 81.2778 197.374 81.5802 197.945C81.7095 198.197 81.8243 198.456 81.9239 198.721C82.0171 198.947 82.0942 199.18 82.1547 199.418C82.2125 199.611 82.2585 199.808 82.2922 200.007C82.3273 200.156 82.3519 200.307 82.3659 200.459C82.3779 200.588 82.3779 200.718 82.3659 200.847C82.3364 200.847 82.2922 200.297 82.032 199.447C81.9637 199.215 81.8817 198.987 81.7864 198.765C81.6858 198.506 81.5693 198.253 81.4378 198.009C81.1358 197.449 80.7718 196.925 80.3525 196.447C79.9295 195.972 79.4552 195.546 78.9383 195.175C78.6976 195.008 78.4472 194.851 78.2409 194.723C78.0326 194.599 77.8179 194.486 77.5976 194.385C76.753 194.006 76.2325 193.874 76.2619 193.844Z" fill="#263238"/>
<path d="M157.981 162.288C158.219 161.44 158.371 160.57 158.432 159.691C158.409 158.808 158.292 157.931 158.084 157.073C158.498 157.883 158.706 158.784 158.688 159.694C158.67 160.604 158.427 161.495 157.981 162.288Z" fill="#455A64"/>
<path d="M159.508 161.262C159.566 160.523 159.577 159.782 159.542 159.042C159.423 158.314 159.259 157.594 159.051 156.886C159.507 157.508 159.772 158.248 159.812 159.018C159.933 159.779 159.828 160.56 159.508 161.262Z" fill="#455A64"/>
<path d="M133.098 172.257C133.408 172.429 139.482 177.001 141.068 180.738C142.286 183.591 143.494 191.654 143.494 191.654L142.232 199.58C142.232 199.58 139.025 199.948 138.795 201.927L144.079 201.824C144.079 201.824 146.568 192.381 147.781 191.566C147.781 191.566 146.092 180.433 147.231 176.411C147.755 174.397 148.435 172.427 149.264 170.519L135.023 169.811L133.098 172.257Z" fill="#455A64"/>
<path d="M101.336 172.768C101.645 172.944 102.019 177.678 102.456 180.738C102.893 183.797 103.438 191.384 103.438 191.384L102.632 198.637C102.632 198.637 99.3029 199.978 99.0967 201.859L105.481 201.775C105.481 201.775 106.423 195.686 107.636 194.871C107.636 194.871 107.514 180.433 108.648 176.411C109.174 174.398 109.856 172.427 110.686 170.519L99.7351 169.306L101.336 172.768Z" fill="#455A64"/>
<path d="M103.487 174.177C103.816 174.319 105.972 177.87 106.743 180.875C107.514 183.881 108.889 191.33 108.889 191.33V198.647C108.889 198.647 105.795 199.934 105.795 201.824H111.938C111.938 201.824 112.326 195.298 113.441 194.355C113.441 194.355 111.722 180.016 112.41 175.896C112.711 173.84 113.171 171.811 113.785 169.826H102.78L103.487 174.177Z" fill="#455A64"/>
<path d="M82.3021 143.829C83.3648 143.327 84.4648 142.908 85.5923 142.577C86.7021 142.331 89.069 141.462 89.457 140.981C89.7624 140.543 90.0209 140.074 90.2279 139.581C90.2279 139.581 92.4967 138.177 93.9011 137.936C95.7625 137.719 97.6428 137.719 99.5042 137.936C100.423 138.128 101.243 139.532 101.243 139.532C101.243 139.532 103.899 142.14 104.577 144.119C105.255 146.098 107.862 150.837 107.862 150.837L98.6841 160.167C98.6841 160.167 96.7493 156.199 96.7199 154.893C96.6904 153.586 95.1042 150.208 95.1042 150.208V149.486L90.827 148.897C90.3441 149.141 89.8191 149.291 89.2802 149.339C88.7498 149.29 87.8315 148.519 87.8315 148.519C87.8315 148.519 86.9623 149.177 86.2355 148.897C85.5088 148.617 83.7066 147.988 83.078 146.54C82.4494 145.091 81.9142 144.006 82.3021 143.829Z" fill="#455A64"/>
<path d="M82.8865 146.088C82.9776 146.066 83.0631 146.026 83.1379 145.969C83.2126 145.913 83.2749 145.842 83.321 145.76C83.3671 145.679 83.3959 145.588 83.4056 145.495C83.4153 145.402 83.4058 145.308 83.3776 145.219C83.353 145.15 83.3138 145.071 83.353 145.008C83.3869 144.966 83.4335 144.937 83.4856 144.924C83.6497 144.859 83.7909 144.747 83.8914 144.602C83.9919 144.457 84.0472 144.285 84.0504 144.109C84.044 143.932 83.977 143.763 83.8608 143.63C83.7446 143.497 83.5861 143.408 83.412 143.377C83.1375 143.375 82.8682 143.452 82.6361 143.598C82.3807 143.726 82.1008 143.898 82.0566 144.178C82.0468 144.332 82.0772 144.486 82.145 144.625C82.3535 145.133 82.5997 145.626 82.8816 146.098" fill="#263238"/>
<path d="M92.4033 141.983C92.3788 142.012 92.256 141.933 92.0645 141.811C91.8419 141.643 91.5796 141.537 91.3033 141.501C91.1706 141.5 91.0393 141.528 90.9181 141.582C90.797 141.637 90.6889 141.716 90.6011 141.816C90.444 141.968 90.3458 142.076 90.3163 142.056C90.2868 142.037 90.3163 141.899 90.4636 141.698C90.5466 141.575 90.6535 141.469 90.7779 141.388C90.9383 141.285 91.1275 141.235 91.3181 141.246C91.6458 141.28 91.9506 141.429 92.1775 141.668C92.3493 141.835 92.4279 141.958 92.4033 141.983Z" fill="#263238"/>
<path d="M98.6694 160.093C98.8223 160.629 98.8223 161.197 98.6694 161.733C98.3895 162.372 98.3895 165.564 98.6694 166.84C98.9493 168.117 100.143 171.952 101.901 173.308C103.659 174.663 109.723 176.254 111.079 176.583C112.434 176.912 129.739 172.989 132.553 172.827C135.367 172.665 139.34 173.318 141.417 176.181C143.494 179.044 145.409 183.547 148.68 184.406C151.95 185.265 157.622 190.151 158.261 191.91C158.899 193.668 159.218 199.187 159.218 199.187C159.218 199.187 156.763 200.11 157.048 201.873L162.577 201.839L161.708 188.158C161.708 188.158 155.638 183.846 154.283 180.792C152.928 177.737 151.489 173.529 151.489 173.529C151.489 173.529 151.327 163.707 149.495 162.352C147.663 160.997 143.892 157.741 134.699 158.379C125.506 159.018 119.967 157.103 119.623 156.955C119.28 156.808 114.752 155.202 112.355 154.5C109.959 153.798 107.833 150.817 107.833 150.817L98.6694 160.093Z" fill="#455A64"/>
<path d="M148.169 162.21C150.014 162.413 151.868 161.922 153.37 160.832C154.873 159.743 155.916 158.133 156.296 156.317C157.529 157.201 157.593 158.281 156.723 160.005C156.159 161.174 155.271 162.158 154.165 162.838C152.519 163.735 150.789 164.467 148.999 165.024" fill="#455A64"/>
<path d="M97.8052 158.861L108.024 150.787L108.962 152.123L98.7186 160.329L97.8052 158.861Z" fill="#263238"/>
<path d="M90.8221 141.575C90.8197 141.745 90.8567 141.913 90.9302 142.066C90.9582 142.13 91.0023 142.186 91.0582 142.228C91.1142 142.27 91.18 142.297 91.2494 142.307C91.3084 142.306 91.3657 142.287 91.4146 142.254C91.4634 142.221 91.5015 142.175 91.5244 142.12C91.6128 141.924 91.7306 141.58 91.5244 141.452C91.4068 141.384 91.2685 141.362 91.1354 141.389C91.0024 141.416 90.884 141.491 90.8025 141.6" fill="#263238"/>
<path d="M91.8486 147.625C91.8486 147.704 90.9156 147.704 89.8107 147.929C88.7058 148.155 87.8464 148.504 87.812 148.42C88.3976 148.016 89.0708 147.757 89.7763 147.664C90.4548 147.492 91.164 147.478 91.8486 147.625Z" fill="#263238"/>
<path d="M113.947 171.56C113.902 171.865 113.811 172.161 113.676 172.439C113.48 172.974 113.185 173.696 112.92 174.506C112.681 175.196 112.505 175.906 112.395 176.627C112.376 176.933 112.333 177.237 112.267 177.536C112.188 177.235 112.17 176.921 112.213 176.613C112.276 175.868 112.431 175.134 112.675 174.427C112.918 173.728 113.196 173.041 113.51 172.37C113.619 172.082 113.766 171.809 113.947 171.56Z" fill="#263238"/>
<path d="M98.4583 165.181C98.4583 165.181 98.5123 165.515 98.6351 166.119C98.8132 166.969 99.0461 167.807 99.3324 168.628C99.7252 169.849 100.273 171.014 100.963 172.095C101.416 172.7 101.921 173.265 102.47 173.784C103.077 174.347 103.638 174.956 104.15 175.606C105.051 176.924 105.767 178.36 106.276 179.873C106.698 181.1 107.046 182.352 107.317 183.62C107.553 184.701 107.71 185.585 107.808 186.189C107.852 186.468 107.892 186.68 107.921 186.891C107.935 186.972 107.935 187.055 107.921 187.136C107.89 187.06 107.867 186.981 107.852 186.901L107.69 186.208C107.558 185.604 107.371 184.735 107.116 183.66C106.821 182.405 106.459 181.167 106.031 179.952C105.515 178.467 104.805 177.057 103.919 175.758C102.937 174.432 101.581 173.465 100.747 172.232C100.052 171.127 99.5102 169.933 99.136 168.682C98.863 167.851 98.6545 167.001 98.5123 166.138C98.4717 165.903 98.4455 165.665 98.4337 165.426C98.4289 165.344 98.4371 165.261 98.4583 165.181Z" fill="#263238"/>
<path d="M153.384 186.994C153.384 186.994 153.065 186.788 152.495 186.414C151.687 185.891 150.843 185.424 149.971 185.015C148.648 184.45 147.385 183.754 146.2 182.938C145.526 182.405 144.941 181.769 144.466 181.052C143.979 180.28 143.535 179.482 143.136 178.66C142.296 177.01 141.535 175.346 140.189 174.447C139.017 173.647 137.67 173.141 136.261 172.974C135.308 172.849 134.349 172.784 133.388 172.777H132.597C132.506 172.789 132.414 172.789 132.322 172.777C132.412 172.756 132.505 172.746 132.597 172.748L133.388 172.719C134.355 172.687 135.323 172.725 136.285 172.831C137.735 172.981 139.125 173.488 140.332 174.305C141.039 174.802 141.632 175.445 142.07 176.19C142.561 176.942 142.949 177.762 143.371 178.592C143.764 179.405 144.2 180.197 144.678 180.964C145.136 181.66 145.701 182.28 146.352 182.8C147.518 183.618 148.759 184.322 150.06 184.902C150.929 185.326 151.763 185.819 152.554 186.375C152.839 186.567 153.045 186.743 153.183 186.866C153.254 186.902 153.321 186.945 153.384 186.994Z" fill="#263238"/>
<path d="M92.2464 147.266C92.2464 147.266 92.3446 147.266 92.4133 147.36C92.4549 147.426 92.4813 147.5 92.4906 147.577C92.4999 147.654 92.492 147.733 92.4673 147.807C92.4431 147.882 92.4009 147.95 92.3445 148.006C92.288 148.062 92.219 148.103 92.1432 148.126C92.0303 148.155 91.9615 148.126 91.9566 148.096C91.9517 148.067 92.1531 147.934 92.2267 147.723C92.3004 147.512 92.1973 147.311 92.2464 147.266Z" fill="#263238"/>
<path d="M100.246 161.424C100.335 161.412 100.421 161.379 100.495 161.328C100.569 161.277 100.63 161.209 100.673 161.129C100.708 161.05 100.722 160.963 100.712 160.877C100.703 160.79 100.671 160.708 100.619 160.638C100.539 160.554 100.435 160.496 100.321 160.47C100.208 160.445 100.089 160.454 99.9806 160.496C99.8312 160.548 99.7033 160.648 99.6172 160.781H98.0261C97.9189 160.663 97.7785 160.581 97.6235 160.545C97.5139 160.504 97.3948 160.497 97.2811 160.524C97.1674 160.551 97.0644 160.611 96.9851 160.697C96.9358 160.768 96.9063 160.851 96.8994 160.937C96.8925 161.024 96.9085 161.11 96.9458 161.188C96.9907 161.267 97.0538 161.334 97.1298 161.384C97.2058 161.433 97.2926 161.464 97.3828 161.473C97.2567 161.507 97.1464 161.584 97.0711 161.691C96.9957 161.798 96.9601 161.927 96.9703 162.057C96.9813 162.182 97.0351 162.3 97.1226 162.39C97.2101 162.48 97.326 162.537 97.4507 162.551C97.5753 162.566 97.7011 162.537 97.8069 162.469C97.9126 162.401 97.9918 162.299 98.031 162.18H99.627C99.6784 162.29 99.7645 162.379 99.872 162.435C99.9795 162.491 100.102 162.509 100.222 162.488C100.341 162.467 100.45 162.407 100.531 162.318C100.613 162.228 100.663 162.114 100.673 161.994C100.677 161.864 100.637 161.737 100.559 161.634C100.482 161.53 100.371 161.456 100.246 161.424Z" fill="#E8505B"/>
<path d="M99.0377 160.81C98.9984 160.81 98.9738 160.751 98.9444 160.687C98.932 160.666 98.9131 160.649 98.8903 160.638C98.8614 160.623 98.8297 160.613 98.797 160.609C98.6546 160.609 98.5957 160.751 98.5417 160.776C98.4877 160.8 98.4484 160.732 98.468 160.609C98.4835 160.53 98.528 160.46 98.5926 160.413C98.6571 160.366 98.7371 160.345 98.8167 160.353C98.9038 160.362 98.9854 160.4 99.0475 160.462C99.0742 160.487 99.0947 160.519 99.1075 160.554C99.1202 160.589 99.1249 160.626 99.1211 160.663C99.1113 160.766 99.072 160.805 99.0377 160.81Z" fill="#263238"/>
<path d="M102.225 144.433C101.889 144.405 101.551 144.467 101.247 144.612C100.942 144.757 100.682 144.98 100.491 145.258C100.336 145.508 100.262 145.8 100.278 146.094C100.294 146.388 100.399 146.671 100.58 146.903C100.402 146.947 100.238 147.032 100.1 147.152C99.9616 147.271 99.8535 147.422 99.7841 147.591C99.6486 147.936 99.6486 148.32 99.7841 148.666C99.8413 148.839 99.9375 148.996 100.065 149.125C100.193 149.255 100.349 149.353 100.521 149.412C100.704 149.442 100.891 149.43 101.069 149.377C101.246 149.324 101.41 149.232 101.547 149.108C102.068 148.73 102.451 148.192 102.637 147.575C102.824 146.959 102.803 146.298 102.578 145.695C102.411 145.204 102.181 144.458 102.166 144.423" fill="white"/>
<path d="M99.8333 140.077C99.8333 140.077 99.9217 140.126 100.064 140.254C100.273 140.441 100.467 140.645 100.644 140.863C101.266 141.687 101.743 142.613 102.053 143.598C102.264 144.217 102.47 144.89 102.682 145.631C102.959 146.428 102.946 147.298 102.647 148.087C102.429 148.486 102.132 148.837 101.773 149.118C101.431 149.403 101.147 149.751 100.938 150.144C100.712 150.542 100.536 150.984 100.28 151.411C100.031 151.868 99.637 152.229 99.1605 152.437C98.9081 152.544 98.6309 152.578 98.3601 152.536C98.0949 152.481 97.8531 152.345 97.6677 152.148C97.3537 151.765 97.1259 151.32 96.9998 150.841C96.7251 149.982 96.5118 149.104 96.3614 148.214C96.1887 147.407 96.1588 146.576 96.2731 145.759C96.3386 145.386 96.4646 145.026 96.6463 144.693C96.8258 144.399 97.0243 144.117 97.2405 143.849C97.6104 143.412 97.8246 142.864 97.8494 142.292C97.8617 141.858 97.802 141.425 97.6726 141.01C97.4614 140.323 97.2798 139.964 97.3043 139.954C97.3617 140.034 97.4095 140.119 97.4467 140.21C97.5711 140.46 97.6794 140.717 97.7708 140.981C97.919 141.404 97.9937 141.849 97.9918 142.297C97.9866 142.581 97.9369 142.863 97.8445 143.132C97.734 143.428 97.5801 143.706 97.3878 143.957C97.18 144.22 96.9913 144.497 96.8231 144.787C96.6549 145.101 96.5404 145.441 96.4842 145.793C96.3848 146.588 96.4213 147.393 96.5923 148.175C96.7486 149.051 96.9635 149.916 97.2356 150.763C97.3522 151.205 97.5633 151.618 97.8543 151.971C98.005 152.133 98.2024 152.243 98.419 152.287C98.6356 152.331 98.8605 152.306 99.0623 152.216C99.482 152.025 99.827 151.7 100.044 151.293C100.285 150.895 100.467 150.458 100.698 150.041C100.925 149.627 101.228 149.259 101.591 148.956C101.928 148.699 102.207 148.374 102.411 148.003C102.695 147.264 102.711 146.449 102.456 145.7C102.259 144.968 102.058 144.286 101.861 143.672C101.573 142.696 101.127 141.773 100.54 140.942C100.321 140.641 100.085 140.352 99.8333 140.077Z" fill="#263238"/>
<path d="M88.6712 141.487C87.7771 141.89 86.8567 142.233 85.9163 142.513C86.0842 142.829 86.3568 143.077 86.6874 143.214C87.018 143.351 87.386 143.369 87.7283 143.264C88.0645 143.12 88.3412 142.865 88.5127 142.541C88.6842 142.218 88.7401 141.846 88.6712 141.487Z" fill="white"/>
<path d="M112.513 184.72C111.931 184.417 111.437 183.968 111.08 183.417C110.723 182.866 110.515 182.233 110.475 181.577C110.46 180.893 110.614 180.215 110.924 179.604C111.235 178.993 111.691 178.468 112.252 178.076L112.513 184.72Z" fill="#EBEBEB"/>
<path d="M128.276 158.428C128.538 159.06 128.922 159.633 129.407 160.115C129.891 160.598 130.467 160.979 131.1 161.237C131.728 161.453 132.393 161.538 133.055 161.488C133.717 161.437 134.362 161.252 134.95 160.943C135.507 160.552 136.121 160.25 136.771 160.049C137.552 159.907 138.387 160.241 139.134 159.98C139.462 159.903 139.75 159.706 139.943 159.429C140.135 159.151 140.218 158.812 140.175 158.478C138.192 158.263 136.194 158.247 134.208 158.428C132.701 158.684 128.276 158.428 128.276 158.428Z" fill="white"/>
<path d="M116.903 118.652L113.991 116.093L114.109 111.153L117.914 112.7C117.914 112.7 118.808 116.717 118.72 116.747C118.631 116.776 116.903 118.652 116.903 118.652Z" fill="#723C31"/>
<path d="M142.065 91.4418C141.113 91.9279 140.283 92.6216 139.635 93.4715C138.988 94.3215 138.539 95.306 138.323 96.3525C137.758 99.5838 135.966 113.668 135.966 113.668L120.802 115.362L119.82 119.713C119.82 119.713 132.062 123.302 135.956 123.042C139.85 122.782 139.271 123.15 140.616 122.021C141.485 121.25 142.159 120.284 142.581 119.202L143.848 90.3369L142.065 91.4418Z" fill="#AA6550"/>
<path d="M120.777 115.367L117.88 111.104L113.063 110.397C113.063 110.397 112.788 110.888 113.681 111.571C114.433 112.045 115.265 112.378 116.137 112.553L116.888 114.188L117.281 116.29C116.891 116.948 116.659 117.688 116.603 118.451C116.633 119.408 119.79 119.713 119.79 119.713L120.777 115.367Z" fill="#AA6550"/>
<path d="M113.023 109.4C112.964 109.543 114.084 113.584 113.927 115.485C113.77 117.385 113.244 117.984 113.244 117.984H116.633V109.056C116.633 109.056 113.554 108.153 113.023 109.4Z" fill="#263238"/>
<path d="M115.454 117.984H114.826V200.557H115.454V117.984Z" fill="#263238"/>
<path d="M143.538 89.6347C143.538 89.6347 138.476 92.5812 137.881 94.5454C137.287 96.5097 135.839 106.719 135.839 106.719L142.984 109.086C142.984 109.086 143.71 89.3548 143.538 89.6347Z" fill="#E8505B"/>
<path d="M113.023 111.168C113.023 111.168 112.355 111.227 112.262 111.571C112.212 111.888 112.212 112.211 112.262 112.528L113.244 113.299C113.059 113.306 112.883 113.383 112.753 113.515C112.647 113.858 112.647 114.224 112.753 114.566C112.832 114.685 112.93 114.789 113.043 114.876C112.89 115.025 112.788 115.22 112.753 115.431C112.753 115.706 112.753 115.956 112.753 115.956H113.244C113.244 115.956 112.753 116.108 112.753 116.324C112.738 116.509 112.738 116.695 112.753 116.879C112.753 116.973 113.514 117.189 113.514 117.189L116.205 116.879C116.205 116.879 116.667 116.418 116.387 116.138C116.387 116.138 117.261 116.015 117.207 115.725C117.153 115.435 117.03 114.777 117.03 114.777H116.048C116.331 114.667 116.6 114.524 116.849 114.35C116.991 114.173 116.584 113.452 116.584 113.452L115.601 113.481C115.601 113.481 115.999 112.528 115.601 112.406C115.204 112.283 113.023 111.168 113.023 111.168Z" fill="#AA6550"/>
<path d="M137.798 117.449C137.664 115.989 137.006 114.627 135.946 113.614C136.597 114.001 137.12 114.571 137.449 115.253C137.778 115.935 137.899 116.698 137.798 117.449Z" fill="#723C31"/>
<path d="M115.675 112.985C115.705 112.985 115.749 113.167 115.675 113.476C115.655 113.577 115.614 113.673 115.555 113.758C115.496 113.842 115.42 113.914 115.331 113.967C115.218 114.016 115.096 114.041 114.973 114.041C114.85 114.041 114.728 114.016 114.614 113.967C114.086 113.799 113.588 113.545 113.141 113.216C113.681 113.303 114.206 113.469 114.698 113.707C114.863 113.784 115.051 113.794 115.223 113.736C115.353 113.666 115.453 113.551 115.503 113.412C115.606 113.172 115.636 112.975 115.675 112.985Z" fill="#723C31"/>
<path d="M116.255 114.723C115.777 115.018 115.224 115.168 114.664 115.156C114.106 115.226 113.541 115.136 113.033 114.895C113.033 114.822 113.765 114.949 114.649 114.895C115.533 114.841 116.23 114.635 116.255 114.723Z" fill="#723C31"/>
<path d="M116.495 116.044C115.926 116.21 115.331 116.263 114.742 116.202C114.149 116.223 113.558 116.126 113.004 115.917C113.586 115.874 114.171 115.884 114.752 115.946C115.335 115.923 115.919 115.956 116.495 116.044Z" fill="#723C31"/>
<path d="M120.458 118.451C120.344 117.656 120.476 116.845 120.836 116.128C120.862 116.523 120.822 116.92 120.718 117.302C120.697 117.696 120.609 118.085 120.458 118.451Z" fill="#723C31"/>
<path d="M116.903 118.652L113.991 116.093L114.109 111.153L117.914 112.7C117.914 112.7 118.808 116.717 118.72 116.747C118.631 116.776 116.903 118.652 116.903 118.652Z" fill="#723C31"/>
<path d="M142.065 91.4418C141.113 91.9279 140.283 92.6216 139.635 93.4715C138.988 94.3215 138.539 95.306 138.323 96.3525C137.758 99.5838 135.966 113.668 135.966 113.668L120.802 115.362L119.82 119.713C119.82 119.713 132.062 123.302 135.956 123.042C139.85 122.782 139.271 123.15 140.616 122.021C141.485 121.25 142.159 120.284 142.581 119.202L143.848 90.3369L142.065 91.4418Z" fill="#FFBE9D"/>
<path d="M120.777 115.367L117.88 111.104L113.063 110.397C113.063 110.397 112.788 110.888 113.681 111.571C114.433 112.045 115.265 112.378 116.137 112.553L116.888 114.188L117.281 116.29C116.891 116.948 116.659 117.688 116.603 118.451C116.633 119.408 119.79 119.713 119.79 119.713L120.777 115.367Z" fill="#FFBE9D"/>
<path d="M113.023 109.4C112.964 109.543 114.084 113.584 113.927 115.485C113.77 117.385 113.244 117.984 113.244 117.984H116.633V109.056C116.633 109.056 113.554 108.153 113.023 109.4Z" fill="#263238"/>
<path d="M115.454 117.984H114.826V200.557H115.454V117.984Z" fill="#263238"/>
<path d="M143.538 89.6347C143.538 89.6347 138.476 92.5812 137.881 94.5454C137.287 96.5097 135.839 106.719 135.839 106.719L142.984 109.086C142.984 109.086 143.71 89.3548 143.538 89.6347Z" fill="#F86241"/>
<path d="M113.023 111.168C113.023 111.168 112.355 111.227 112.262 111.571C112.212 111.888 112.212 112.211 112.262 112.528L113.244 113.299C113.059 113.306 112.883 113.383 112.753 113.515C112.647 113.858 112.647 114.224 112.753 114.566C112.832 114.685 112.93 114.789 113.043 114.876C112.89 115.025 112.788 115.22 112.753 115.431C112.753 115.706 112.753 115.956 112.753 115.956H113.244C113.244 115.956 112.753 116.108 112.753 116.324C112.738 116.509 112.738 116.695 112.753 116.879C112.753 116.973 113.514 117.189 113.514 117.189L116.205 116.879C116.205 116.879 116.667 116.418 116.387 116.138C116.387 116.138 117.261 116.015 117.207 115.725C117.153 115.435 117.03 114.777 117.03 114.777H116.048C116.331 114.667 116.6 114.524 116.849 114.35C116.991 114.173 116.584 113.452 116.584 113.452L115.601 113.481C115.601 113.481 115.999 112.528 115.601 112.406C115.204 112.283 113.023 111.168 113.023 111.168Z" fill="#FFBE9D"/>
<path d="M137.798 117.449C137.664 115.989 137.006 114.627 135.946 113.614C136.597 114.001 137.12 114.571 137.449 115.253C137.778 115.935 137.899 116.698 137.798 117.449Z" fill="#723C31"/>
<path d="M115.675 112.985C115.705 112.985 115.749 113.167 115.675 113.476C115.655 113.577 115.614 113.673 115.555 113.758C115.496 113.842 115.42 113.914 115.331 113.967C115.218 114.016 115.096 114.041 114.973 114.041C114.85 114.041 114.728 114.016 114.614 113.967C114.086 113.799 113.588 113.545 113.141 113.216C113.681 113.303 114.206 113.469 114.698 113.707C114.863 113.784 115.051 113.794 115.223 113.736C115.353 113.666 115.453 113.551 115.503 113.412C115.606 113.172 115.636 112.975 115.675 112.985Z" fill="#723C31"/>
<path d="M116.255 114.723C115.777 115.018 115.224 115.168 114.664 115.156C114.106 115.226 113.541 115.136 113.033 114.895C113.033 114.822 113.765 114.949 114.649 114.895C115.533 114.841 116.23 114.635 116.255 114.723Z" fill="#723C31"/>
<path d="M116.495 116.044C115.926 116.21 115.331 116.263 114.742 116.202C114.149 116.223 113.558 116.126 113.004 115.917C113.586 115.874 114.171 115.884 114.752 115.946C115.335 115.923 115.919 115.956 116.495 116.044Z" fill="#723C31"/>
<path d="M120.458 118.451C120.344 117.656 120.476 116.845 120.836 116.128C120.862 116.523 120.822 116.92 120.718 117.302C120.697 117.696 120.609 118.085 120.458 118.451Z" fill="#723C31"/>
<path d="M165.715 128.007C165.715 128.007 170.169 130.251 173.385 129.401C176.602 128.552 177.638 126.372 177.638 126.372C178.628 119.991 178.316 113.476 176.72 107.22L175.158 101.086C175.158 101.086 169.707 90.8673 165.715 88.3186C161.723 85.77 157.681 86.5213 158.02 86.9436C158.359 87.366 162.577 123.474 162.577 123.474L165.715 128.007Z" fill="#455A64"/>
<path d="M166.52 117.41C166.52 117.41 166.707 117.41 167.085 117.385L168.74 117.36L174.736 117.302H174.839V117.405C174.893 118.701 174.952 120.11 175.016 121.613C175.045 122.364 175.08 123.135 175.109 123.926C175.184 124.745 175.151 125.571 175.011 126.381C174.897 126.996 174.544 127.54 174.029 127.894C173.505 128.183 172.904 128.299 172.31 128.228C171.758 128.181 171.209 128.106 170.665 128.002C170.13 127.913 169.617 127.723 169.152 127.442C168.72 127.148 168.379 126.738 168.17 126.259C167.983 125.817 167.835 125.361 167.728 124.893C167.507 124 167.355 123.165 167.237 122.399C166.977 120.862 166.81 119.614 166.697 118.755C166.643 118.343 166.599 118.014 166.569 117.773C166.553 117.659 166.544 117.544 166.54 117.429C166.54 117.429 166.574 117.562 166.618 117.773L166.795 118.755C166.943 119.61 167.134 120.852 167.414 122.379C167.556 123.14 167.718 123.975 167.944 124.834C168.049 125.288 168.197 125.73 168.386 126.155C168.58 126.596 168.897 126.971 169.3 127.236C169.739 127.501 170.226 127.678 170.734 127.756C171.266 127.859 171.804 127.931 172.344 127.972C172.887 128.039 173.436 127.934 173.916 127.673C174.143 127.516 174.337 127.315 174.486 127.082C174.636 126.85 174.737 126.59 174.785 126.318C174.921 125.531 174.954 124.731 174.883 123.936C174.854 123.144 174.824 122.373 174.795 121.623C174.741 120.12 174.692 118.706 174.647 117.414L174.755 117.518L168.833 117.464L167.154 117.434H166.707C166.644 117.435 166.581 117.426 166.52 117.41Z" fill="#263238"/>
<path d="M167.782 90.1356C167.822 90.2191 166.353 90.4008 164.61 90.7543C163.865 90.893 163.131 91.0883 162.415 91.3387C162.124 91.4559 161.84 91.5903 161.565 91.7414C161.531 91.7414 161.791 91.4173 162.341 91.1717C163.054 90.8664 163.798 90.6424 164.561 90.5039C165.314 90.3499 166.074 90.2368 166.839 90.1651C167.151 90.1101 167.468 90.1001 167.782 90.1356Z" fill="#263238"/>
<path d="M171.068 111.89C171.024 111.599 171.004 111.305 171.009 111.011C171.009 110.726 170.979 110.382 170.945 109.98C170.911 109.577 170.876 109.125 170.802 108.624C170.69 107.618 170.464 106.434 170.179 105.128C169.894 103.822 169.482 102.412 169.01 100.939C168.183 98.4329 167.219 95.9739 166.123 93.5731C165.705 92.6499 165.357 91.9084 165.111 91.3977C164.968 91.1393 164.85 90.868 164.757 90.5874C164.922 90.8322 165.07 91.0882 165.199 91.3535C165.469 91.8445 165.848 92.5811 166.285 93.4945C167.428 95.8824 168.412 98.3431 169.231 100.861C169.722 102.334 170.095 103.768 170.39 105.079C170.644 106.243 170.836 107.42 170.965 108.605C171.023 109.096 171.053 109.587 171.068 109.97C171.082 110.353 171.102 110.721 171.068 111.006C171.033 111.291 171.068 111.497 171.068 111.664C171.078 111.739 171.078 111.815 171.068 111.89Z" fill="#263238"/>
<path d="M173.385 114.625H168.75V117.41H173.385V114.625Z" fill="#EBEBEB"/>
<path d="M173.538 114.046C173.474 113.555 171.544 112.946 171.544 112.946V112.15H170.415V112.946C170.415 112.946 168.853 113.643 168.657 113.928C168.46 114.213 168.755 115.224 168.755 115.224H173.538C173.577 114.832 173.577 114.438 173.538 114.046Z" fill="#263238"/>
<path d="M173.41 116.575C171.858 116.752 170.292 116.752 168.74 116.575C170.292 116.404 171.858 116.404 173.41 116.575Z" fill="#E0E0E0"/>
<path d="M173.493 114.026C172.69 114.221 171.864 114.3 171.038 114.262C170.214 114.307 169.388 114.238 168.583 114.056C169.399 113.984 170.219 113.968 171.038 114.006C171.856 113.956 172.676 113.963 173.493 114.026Z" fill="#455A64"/>
<path d="M171.559 112.926C171.613 112.97 171.397 113.25 170.999 113.265C170.601 113.28 170.365 113.019 170.415 112.97C170.464 112.921 170.694 113.024 170.989 113.01C171.284 112.995 171.529 112.872 171.559 112.926Z" fill="#455A64"/>
<path d="M175.276 101.096C175.276 101.17 173.99 101.278 172.413 101.509C170.837 101.74 169.57 102 169.555 101.931C170.462 101.581 171.412 101.355 172.379 101.258C173.333 101.078 174.307 101.023 175.276 101.096Z" fill="#263238"/>
<path d="M177.673 111.006C177.292 110.534 176.936 110.042 176.607 109.533C175.954 108.629 175.021 107.411 173.896 106.14C172.772 104.868 171.667 103.797 170.847 103.046C170.027 102.294 169.506 101.843 169.531 101.813C169.676 101.884 169.811 101.973 169.933 102.078C170.189 102.265 170.542 102.569 170.969 102.908C173.19 104.804 175.137 106.999 176.754 109.43C177.064 109.896 177.299 110.279 177.456 110.554C177.549 110.694 177.622 110.846 177.673 111.006Z" fill="#263238"/>
<path d="M177.638 110.908C176.703 111.356 175.712 111.676 174.692 111.86C173.695 112.132 172.666 112.271 171.632 112.273C171.632 112.199 172.983 111.993 174.633 111.615C176.283 111.237 177.614 110.839 177.638 110.908Z" fill="#263238"/>
<path d="M175.428 101.096C175.462 101.258 175.474 101.423 175.463 101.587C175.469 102.017 175.451 102.446 175.409 102.874C175.274 104.287 174.957 105.677 174.466 107.009C173.978 108.341 173.317 109.604 172.501 110.765C172.257 111.119 171.992 111.456 171.706 111.777C171.505 112.008 171.387 112.126 171.372 112.116C171.357 112.106 171.765 111.566 172.354 110.667C173.116 109.49 173.749 108.234 174.24 106.92C174.715 105.605 175.044 104.241 175.222 102.854C175.369 101.764 175.384 101.096 175.428 101.096Z" fill="#263238"/>
<path d="M136.762 161.591L130.928 191.384L137.199 192.857C137.199 192.857 143.995 175.179 144.859 172.35C145.724 169.522 146.696 161.994 146.696 161.994L136.762 161.591Z" fill="#FFBE9D"/>
<path d="M130.77 191.153L129.297 197.797C129.297 197.797 122.196 198.087 121.808 199.271L134.453 203.003L137.4 192.813L130.77 191.153Z" fill="#F86241"/>
<g opacity="0.6">
<path d="M133.403 198.249C133.516 198.318 133.6 198.426 133.639 198.553C133.678 198.68 133.669 198.816 133.614 198.937C133.548 199.052 133.441 199.139 133.314 199.178C133.188 199.217 133.05 199.206 132.931 199.148C132.811 199.075 132.723 198.96 132.683 198.826C132.643 198.692 132.655 198.547 132.715 198.421C132.795 198.307 132.915 198.228 133.051 198.201C133.188 198.173 133.329 198.199 133.447 198.274" fill="white"/>
</g>
<g opacity="0.6">
<path d="M134.468 203.017L134.738 201.981L122.422 198.809C122.274 198.838 122.135 198.903 122.019 198.999C121.902 199.095 121.811 199.219 121.755 199.359L134.468 203.017Z" fill="white"/>
</g>
<path d="M129.12 197.68C129.12 197.738 129.415 197.847 129.67 198.126C129.926 198.406 130.019 198.711 130.083 198.701C130.147 198.691 130.147 198.303 129.833 197.974C129.518 197.645 129.12 197.616 129.12 197.68Z" fill="#263238"/>
<path d="M127.642 197.891C127.613 197.95 127.854 198.121 128.001 198.441C128.148 198.76 128.133 199.055 128.197 199.064C128.261 199.074 128.389 198.735 128.197 198.342C128.006 197.95 127.657 197.832 127.642 197.891Z" fill="#263238"/>
<path d="M126.474 199.3C126.523 199.33 126.69 199.04 126.616 198.657C126.543 198.274 126.287 198.063 126.248 198.107C126.209 198.151 126.341 198.382 126.395 198.696C126.449 199.01 126.41 199.28 126.474 199.3Z" fill="#263238"/>
<path d="M129.617 196.201C129.617 196.265 129.936 196.251 130.285 196.364C130.633 196.476 130.879 196.658 130.923 196.614C130.967 196.57 130.761 196.28 130.353 196.152C129.946 196.025 129.602 196.143 129.617 196.201Z" fill="#263238"/>
<path d="M129.931 194.866C130.127 194.976 130.349 195.031 130.574 195.028C130.815 195.044 131.058 195.033 131.296 194.993C131.437 194.967 131.576 194.933 131.713 194.89C131.795 194.868 131.873 194.833 131.944 194.787C131.996 194.753 132.036 194.703 132.056 194.644C132.077 194.586 132.077 194.522 132.057 194.463C132.037 194.412 132.005 194.367 131.964 194.33C131.923 194.293 131.874 194.267 131.822 194.252C131.74 194.229 131.656 194.219 131.571 194.222C131.426 194.224 131.282 194.235 131.139 194.257C130.899 194.301 130.667 194.382 130.451 194.497C130.083 194.694 129.926 194.9 129.96 194.92C129.995 194.939 130.176 194.787 130.54 194.64C130.87 194.499 131.227 194.432 131.586 194.443C131.733 194.443 131.846 194.473 131.866 194.542C131.885 194.61 131.866 194.576 131.831 194.606C131.781 194.64 131.724 194.665 131.664 194.679C131.538 194.725 131.408 194.761 131.276 194.787C131.054 194.837 130.827 194.863 130.599 194.866C130.376 194.85 130.153 194.85 129.931 194.866Z" fill="#263238"/>
<path d="M129.99 194.979C129.99 194.979 130.191 194.802 130.319 194.404C130.389 194.169 130.419 193.923 130.407 193.677C130.402 193.533 130.381 193.39 130.343 193.25C130.332 193.157 130.296 193.068 130.239 192.993C130.182 192.917 130.106 192.859 130.019 192.823C129.962 192.809 129.902 192.812 129.846 192.831C129.791 192.85 129.742 192.885 129.705 192.931C129.654 192.999 129.613 193.073 129.582 193.152C129.522 193.288 129.484 193.432 129.469 193.579C129.442 193.828 129.48 194.08 129.577 194.311C129.739 194.709 129.98 194.846 129.995 194.826C129.89 194.644 129.799 194.454 129.725 194.257C129.662 194.047 129.645 193.826 129.676 193.609C129.693 193.481 129.729 193.357 129.784 193.24C129.838 193.108 129.916 193.014 129.96 193.039C130.005 193.064 130.108 193.186 130.132 193.304C130.166 193.431 130.189 193.561 130.201 193.692C130.222 193.917 130.208 194.144 130.162 194.365C130.088 194.768 129.96 194.959 129.99 194.979Z" fill="#263238"/>
<path d="M158.84 163.703L169.55 194.64L175.266 193.982C175.266 193.982 175.266 174.408 173.793 170.803C172.32 167.199 168.504 160.393 168.504 160.393L158.84 163.703Z" fill="#FFBE9D"/>
<path d="M168.539 192.401L170.056 199.025C170.056 199.025 163.746 202.305 163.908 203.553L176.931 201.564L175.256 191.094L168.539 192.401Z" fill="#F86241"/>
<g opacity="0.6">
<path d="M173.95 197.714C174.083 197.725 174.208 197.786 174.299 197.884C174.39 197.982 174.44 198.111 174.441 198.244C174.441 198.312 174.428 198.379 174.401 198.441C174.374 198.502 174.335 198.558 174.285 198.604C174.236 198.65 174.178 198.686 174.114 198.708C174.051 198.731 173.983 198.74 173.916 198.735C173.78 198.716 173.655 198.649 173.564 198.545C173.474 198.441 173.425 198.308 173.425 198.171C173.445 198.039 173.514 197.919 173.617 197.835C173.72 197.751 173.851 197.708 173.985 197.714" fill="white"/>
</g>
<g opacity="0.6">
<path d="M176.931 201.564L176.735 200.513L164.217 202.875C164.095 202.965 163.997 203.084 163.933 203.221C163.868 203.358 163.84 203.509 163.849 203.661L176.931 201.564Z" fill="white"/>
</g>
<path d="M169.83 199.001C169.83 199.064 170.169 199.03 170.518 199.172C170.866 199.315 171.087 199.551 171.136 199.516C171.185 199.482 171.028 199.133 170.601 198.966C170.174 198.799 169.806 198.942 169.83 199.001Z" fill="#263238"/>
<path d="M168.583 199.821C168.583 199.884 168.872 199.938 169.138 200.164C169.403 200.39 169.521 200.655 169.585 200.655C169.648 200.655 169.619 200.272 169.28 199.997C168.941 199.722 168.583 199.762 168.583 199.821Z" fill="#263238"/>
<path d="M168.121 201.593C168.18 201.593 168.21 201.264 167.979 200.95C167.748 200.636 167.429 200.552 167.414 200.611C167.399 200.67 167.615 200.817 167.797 201.102C167.979 201.387 168.057 201.598 168.121 201.593Z" fill="#263238"/>
<path d="M169.653 197.454C169.693 197.503 169.968 197.36 170.326 197.316C170.685 197.272 170.989 197.316 171.014 197.272C171.038 197.228 170.724 197.036 170.297 197.095C169.869 197.154 169.614 197.409 169.653 197.454Z" fill="#263238"/>
<path d="M169.373 196.108C169.373 196.138 169.634 196.108 170.022 195.981C170.248 195.896 170.463 195.782 170.66 195.642C170.778 195.562 170.89 195.473 170.994 195.376C171.06 195.323 171.117 195.258 171.161 195.185C171.194 195.132 171.208 195.069 171.202 195.007C171.196 194.945 171.169 194.887 171.127 194.841C171.086 194.805 171.037 194.778 170.984 194.763C170.932 194.747 170.876 194.744 170.822 194.753C170.74 194.767 170.661 194.793 170.586 194.831C170.454 194.892 170.328 194.965 170.208 195.047C170.009 195.183 169.832 195.349 169.683 195.539C169.437 195.877 169.378 196.133 169.403 196.138C169.427 196.143 169.545 195.926 169.806 195.647C169.959 195.481 170.132 195.334 170.321 195.21C170.434 195.138 170.552 195.075 170.675 195.023C170.802 194.959 170.92 194.939 170.964 194.993C171.009 195.047 170.964 195.023 170.964 195.067C170.933 195.12 170.891 195.167 170.842 195.205C170.747 195.3 170.646 195.387 170.537 195.465C170.357 195.605 170.163 195.727 169.958 195.828C169.756 195.906 169.56 195.999 169.373 196.108Z" fill="#263238"/>
<path d="M169.472 196.187C169.561 195.977 169.58 195.745 169.526 195.524C169.489 195.282 169.413 195.048 169.3 194.831C169.233 194.702 169.152 194.58 169.059 194.468C169.007 194.387 168.933 194.321 168.847 194.278C168.761 194.235 168.664 194.216 168.568 194.222C168.511 194.234 168.458 194.262 168.416 194.303C168.374 194.344 168.345 194.396 168.332 194.453C168.321 194.536 168.321 194.621 168.332 194.704C168.336 194.853 168.365 195 168.416 195.141C168.498 195.377 168.636 195.589 168.818 195.759C169.138 196.044 169.413 196.069 169.418 196.049C169.422 196.03 169.187 195.931 168.927 195.647C168.778 195.484 168.669 195.289 168.607 195.077C168.568 194.955 168.547 194.827 168.543 194.699C168.543 194.561 168.568 194.438 168.622 194.443C168.676 194.448 168.818 194.512 168.892 194.61C168.978 194.711 169.053 194.819 169.118 194.934C169.232 195.127 169.316 195.336 169.368 195.553C169.457 195.931 169.437 196.182 169.472 196.187Z" fill="#263238"/>
<path d="M140.945 131.13L157.912 130.472C157.912 130.472 158.329 140.784 158.305 143.495C158.28 146.206 152.937 154.166 152.937 154.166L147.928 166.011L134.272 161.945L136.894 143.402C136.894 143.402 140.332 133.453 140.867 131.449C140.909 131.339 140.93 131.223 140.931 131.105" fill="#263238"/>
<path d="M149.804 148.239L158.305 166.408L171.564 162.882L166.128 146.299C166.128 146.299 165.636 137.872 165.352 135.933C165.067 133.993 164.993 133.639 164.993 133.639L157.234 129.401L145.012 132.053C145.012 132.053 148.027 144.428 149.804 148.239Z" fill="#263238"/>
<path d="M147.958 144.256C148.271 144.752 148.547 145.271 148.783 145.808C149.274 146.79 149.907 148.126 150.605 149.624C151.302 151.121 151.921 152.482 152.358 153.469C152.616 153.996 152.838 154.541 153.021 155.099C152.708 154.604 152.432 154.087 152.196 153.552C151.705 152.57 151.071 151.229 150.374 149.732C149.677 148.234 149.053 146.874 148.616 145.882C148.358 145.356 148.138 144.813 147.958 144.256Z" fill="#455A64"/>
<path d="M167.252 149.722C166.246 150.258 165.19 150.696 164.099 151.028C163.034 151.44 161.933 151.751 160.809 151.956C161.856 151.508 162.926 151.118 164.016 150.787C165.075 150.376 166.156 150.021 167.252 149.722Z" fill="#455A64"/>
<path d="M167.89 152.428C167.521 152.702 167.118 152.93 166.692 153.105C165.688 153.582 164.647 153.978 163.579 154.289C163.265 154.382 162.955 154.461 162.656 154.534L162.219 154.637C162.058 154.682 161.888 154.682 161.728 154.637C161.573 154.576 161.445 154.461 161.369 154.313C161.305 154.195 161.25 154.072 161.207 153.945C161.125 153.725 161.056 153.5 161.001 153.272C160.864 152.826 160.812 152.358 160.849 151.892C160.893 151.892 160.927 152.418 161.173 153.223C161.237 153.425 161.31 153.641 161.403 153.866C161.497 154.092 161.605 154.358 161.801 154.412C162.072 154.425 162.343 154.383 162.597 154.289C162.891 154.21 163.196 154.132 163.505 154.038C164.562 153.728 165.601 153.361 166.619 152.938C167.031 152.74 167.455 152.569 167.89 152.428Z" fill="#455A64"/>
<path d="M170.095 159.558C170.001 159.675 169.89 159.778 169.766 159.862C169.447 160.117 169.111 160.348 168.76 160.555C168.233 160.874 167.649 161.089 167.041 161.188C166.277 161.293 165.501 161.119 164.856 160.697C164.221 160.279 163.7 159.711 163.338 159.042C163.049 158.506 162.825 157.937 162.67 157.348C162.533 156.857 162.454 156.44 162.405 156.16C162.368 156.014 162.35 155.864 162.351 155.713C162.543 156.232 162.707 156.762 162.842 157.299C163.018 157.864 163.253 158.409 163.544 158.924C163.896 159.552 164.392 160.086 164.993 160.481C165.59 160.87 166.305 161.034 167.011 160.943C167.593 160.859 168.156 160.671 168.671 160.388C169.565 159.902 170.056 159.519 170.095 159.558Z" fill="#455A64"/>
<path d="M146.858 141.305C146.698 140.949 146.581 140.574 146.509 140.19C146.289 139.276 146.125 138.35 146.018 137.416C145.907 136.482 145.858 135.542 145.871 134.602C145.85 134.212 145.88 133.82 145.959 133.438C146.026 133.821 146.056 134.209 146.048 134.597C146.087 135.314 146.146 136.301 146.269 137.386C146.392 138.471 146.554 139.444 146.676 140.151C146.776 140.528 146.837 140.915 146.858 141.305Z" fill="#263238"/>
<path d="M164.001 134.901C164.053 135.224 164.01 135.555 163.878 135.854C163.619 136.614 163.072 137.242 162.355 137.603C161.638 137.964 160.808 138.029 160.043 137.784C159.724 137.713 159.432 137.551 159.203 137.317C159.228 137.278 159.532 137.48 160.092 137.612C160.813 137.794 161.575 137.71 162.239 137.376C162.903 137.041 163.424 136.478 163.706 135.79C163.937 135.265 163.957 134.897 164.001 134.901Z" fill="#455A64"/>
<path d="M142.556 133.438C142.561 133.85 142.498 134.26 142.37 134.651C141.833 136.582 140.677 138.283 139.079 139.493C138.761 139.756 138.403 139.966 138.019 140.117C139.126 139.297 140.101 138.313 140.911 137.2C141.649 136.038 142.204 134.769 142.556 133.438Z" fill="#455A64"/>
<path d="M147.801 133.875C147.801 133.875 147.865 133.841 147.987 133.875C148.163 133.911 148.319 134.011 148.424 134.155C148.512 134.262 148.57 134.389 148.595 134.525C148.62 134.66 148.61 134.8 148.567 134.931C148.503 135.09 148.394 135.228 148.254 135.327C148.114 135.426 147.948 135.483 147.776 135.491C147.604 135.484 147.438 135.425 147.3 135.322C147.162 135.218 147.059 135.075 147.005 134.911C146.961 134.78 146.953 134.639 146.981 134.504C147.01 134.368 147.074 134.243 147.167 134.14C147.487 133.797 147.816 133.865 147.801 133.89C147.786 133.914 147.526 133.949 147.31 134.253C147.25 134.335 147.21 134.43 147.196 134.53C147.181 134.63 147.192 134.733 147.226 134.828C147.269 134.942 147.343 135.041 147.441 135.113C147.539 135.185 147.655 135.228 147.776 135.235C147.898 135.226 148.015 135.184 148.115 135.114C148.216 135.044 148.295 134.949 148.346 134.838C148.379 134.742 148.391 134.64 148.379 134.54C148.367 134.439 148.332 134.343 148.277 134.258C148.081 133.909 147.786 133.905 147.801 133.875Z" fill="#455A64"/>
<path d="M146.554 64.6786H146.185C144.395 64.7467 142.697 65.4882 141.431 66.7547C140.164 68.0213 139.423 69.7195 139.355 71.5094C139.207 74.9469 139.089 78.7625 139.183 80.604C139.379 84.4147 143.214 84.8615 143.214 84.8615L143.288 87.7441L143.327 89.2861C143.391 92.036 146.691 93.5093 148.7 91.6383C148.752 91.5929 148.802 91.5437 148.847 91.491L150.065 90.224L152.392 85.3133L152.495 72.1723C152.687 68.18 150.531 64.7572 146.554 64.6786Z" fill="#FFBE9D"/>
<path d="M143.209 84.8517C144.969 84.8151 146.679 84.2562 148.12 83.2459C148.12 83.2459 147.05 86.0352 143.209 85.8388V84.8517Z" fill="#723C31"/>
<path d="M140.371 74.1563C140.375 74.2982 140.434 74.4331 140.536 74.5322C140.638 74.6313 140.774 74.6867 140.916 74.6866C141.053 74.692 141.187 74.6437 141.289 74.552C141.39 74.4602 141.452 74.3323 141.461 74.1955C141.457 74.0535 141.398 73.9187 141.296 73.8196C141.195 73.7205 141.058 73.6651 140.916 73.6652C140.779 73.6585 140.644 73.7064 140.542 73.7984C140.44 73.8904 140.379 74.019 140.371 74.1563Z" fill="#263238"/>
<path d="M140.179 73.1397C140.248 73.2036 140.671 72.8844 141.235 72.8647C141.8 72.8451 142.262 73.1201 142.325 73.0464C142.389 72.9728 142.281 72.8844 142.09 72.7567C141.83 72.5901 141.524 72.5093 141.216 72.5259C140.91 72.5357 140.616 72.6424 140.376 72.8304C140.199 72.9826 140.145 73.1054 140.179 73.1397Z" fill="#263238"/>
<path d="M146.062 73.9647C146.066 74.1067 146.125 74.2416 146.227 74.3407C146.329 74.4397 146.465 74.4951 146.607 74.4951C146.744 74.5004 146.877 74.452 146.978 74.3601C147.079 74.2682 147.14 74.1404 147.148 74.004C147.144 73.862 147.085 73.7271 146.983 73.6281C146.881 73.529 146.745 73.4736 146.603 73.4736C146.535 73.4703 146.467 73.4804 146.403 73.5033C146.339 73.5262 146.281 73.5615 146.231 73.6071C146.18 73.6527 146.14 73.7078 146.111 73.7692C146.082 73.8305 146.066 73.897 146.062 73.9647Z" fill="#263238"/>
<path d="M145.994 72.7469C146.057 72.8255 146.485 72.5505 147.074 72.5898C147.663 72.6291 148.056 72.9581 148.135 72.8893C148.213 72.8206 148.135 72.7273 147.933 72.58C147.693 72.3842 147.398 72.2691 147.089 72.2509C146.785 72.2269 146.481 72.3028 146.224 72.467C146.053 72.5898 145.994 72.7125 145.994 72.7469Z" fill="#263238"/>
<path d="M144.029 77.6526C143.709 77.5642 143.379 77.518 143.047 77.5152C142.895 77.5152 142.753 77.4808 142.723 77.3826C142.706 77.2286 142.735 77.073 142.807 76.9357L143.204 75.7768C143.581 74.7964 143.875 73.7862 144.083 72.7567C143.636 73.7088 143.261 74.6938 142.964 75.7031C142.831 76.1107 142.703 76.4986 142.586 76.8669C142.498 77.0506 142.478 77.2597 142.532 77.4562C142.555 77.5079 142.589 77.5538 142.633 77.5903C142.676 77.6269 142.727 77.6532 142.782 77.6674C142.867 77.6868 142.955 77.6951 143.042 77.6919C143.372 77.7225 143.704 77.7093 144.029 77.6526Z" fill="#263238"/>
<path d="M145.837 70.2228C145.9 70.38 146.48 70.2817 147.172 70.3407C147.865 70.3996 148.424 70.5616 148.513 70.4143C148.552 70.3456 148.449 70.1983 148.218 70.0509C147.919 69.8753 147.583 69.7711 147.236 69.7465C146.883 69.7162 146.527 69.7718 146.2 69.9085C145.93 70.0362 145.807 70.1492 145.837 70.2228Z" fill="#263238"/>
<path d="M140.263 72.0004C140.371 72.1281 140.754 71.9759 141.245 71.9513C141.736 71.9268 142.144 72.0054 142.227 71.8629C142.311 71.7205 142.198 71.6616 142.016 71.5438C141.769 71.4031 141.486 71.3383 141.202 71.3575C140.918 71.3767 140.646 71.4791 140.42 71.6518C140.268 71.7795 140.214 71.917 140.263 72.0004Z" fill="#263238"/>
<path d="M152.294 74.9911C152.358 74.9616 154.882 74.117 154.902 76.7246C154.921 79.3321 152.294 78.8165 152.289 78.7379C152.284 78.6594 152.294 74.9911 152.294 74.9911Z" fill="#AA6550"/>
<path d="M153.08 77.7459C153.08 77.7459 153.124 77.7754 153.203 77.8098C153.256 77.8323 153.314 77.8439 153.372 77.8439C153.43 77.8439 153.488 77.8323 153.541 77.8098C153.709 77.7021 153.846 77.5516 153.936 77.3738C154.027 77.196 154.069 76.9974 154.057 76.7982C154.061 76.575 154.015 76.3537 153.924 76.15C153.899 76.0687 153.855 75.9947 153.795 75.934C153.735 75.8734 153.662 75.8279 153.581 75.8013C153.528 75.789 153.472 75.795 153.423 75.8181C153.374 75.8413 153.335 75.8804 153.311 75.929C153.276 76.0026 153.311 76.0517 153.281 76.0567C153.252 76.0616 153.222 76.0125 153.247 75.9044C153.26 75.8409 153.295 75.7839 153.345 75.7424C153.38 75.715 153.42 75.6948 153.463 75.683C153.506 75.6712 153.551 75.668 153.595 75.6736C153.705 75.693 153.808 75.7402 153.894 75.8107C153.98 75.8812 154.046 75.9727 154.086 76.0763C154.198 76.302 154.254 76.5513 154.249 76.8031C154.263 77.0354 154.208 77.2668 154.091 77.4679C153.974 77.669 153.8 77.8307 153.591 77.9325C153.521 77.9536 153.447 77.9588 153.375 77.9478C153.302 77.9367 153.234 77.9097 153.173 77.8687C153.085 77.8098 153.07 77.7508 153.08 77.7459Z" fill="#723C31"/>
<path d="M139.153 78.5071C139.251 78.4346 139.363 78.3848 139.482 78.3613C139.601 78.3378 139.724 78.3412 139.842 78.3714C139.96 78.4015 140.069 78.4575 140.162 78.5354C140.256 78.6132 140.33 78.711 140.381 78.8214C140.481 78.6582 140.625 78.5267 140.796 78.4421C140.968 78.3575 141.16 78.3232 141.35 78.3433C141.54 78.3633 141.721 78.4369 141.871 78.5554C142.021 78.6739 142.134 78.8325 142.198 79.0129C142.244 78.88 142.323 78.7608 142.427 78.6664C142.532 78.5719 142.658 78.5053 142.795 78.4725C142.932 78.4398 143.075 78.4419 143.211 78.4789C143.347 78.5158 143.471 78.5863 143.573 78.6839C143.638 78.5644 143.738 78.4683 143.861 78.4093C143.983 78.3502 144.121 78.3312 144.255 78.3549C144.234 78.2275 144.251 78.0968 144.302 77.9784C144.353 77.8599 144.438 77.7588 144.545 77.687C144.652 77.6173 144.778 77.5801 144.906 77.5801C145.034 77.5801 145.159 77.6173 145.267 77.687C145.337 77.5555 145.434 77.4405 145.552 77.3497C145.67 77.2589 145.807 77.1944 145.952 77.1604C146.097 77.1265 146.247 77.1239 146.394 77.1529C146.54 77.1819 146.678 77.2418 146.799 77.3285C146.829 77.2047 146.899 77.0941 146.998 77.0136C147.097 76.9332 147.219 76.8872 147.346 76.8827C147.474 76.8783 147.599 76.9156 147.703 76.989C147.808 77.0624 147.885 77.1678 147.924 77.2892C148.04 77.1245 148.207 77.0013 148.398 76.9377C148.59 76.8741 148.797 76.8734 148.989 76.9357C148.988 76.8422 149.007 76.7495 149.045 76.6644C149.084 76.5793 149.141 76.5039 149.213 76.4437C149.284 76.3835 149.368 76.34 149.459 76.3164C149.549 76.2927 149.644 76.2896 149.736 76.3071C149.623 75.9928 150.084 75.816 150.31 75.5656C150.408 75.4576 150.472 75.3102 150.58 75.212C150.688 75.1138 150.89 75.0745 150.978 75.212C150.941 75.0846 150.951 74.9482 151.006 74.8275C151.061 74.7068 151.157 74.6098 151.278 74.554C151.402 74.5065 151.539 74.5046 151.665 74.5487C151.791 74.5927 151.897 74.6798 151.965 74.7946C152.024 74.9393 152.064 75.0912 152.083 75.2464C152.186 75.7375 152.51 76.3169 152.171 76.6901C152.112 76.754 152.029 76.8129 152.009 76.9013C151.99 76.9897 152.122 77.1763 152.142 77.3285C152.161 77.4808 152.014 77.6477 151.955 77.8196C151.912 78.0776 151.932 78.3423 152.014 78.5906C152.053 78.8508 151.926 79.1946 151.666 79.1848C151.77 79.3716 151.807 79.5891 151.768 79.7999C151.73 80.0106 151.619 80.2013 151.454 80.3388C151.507 80.4471 151.537 80.5648 151.542 80.6849C151.548 80.805 151.53 80.9251 151.488 81.0379C151.446 81.1507 151.382 81.2539 151.3 81.3413C151.217 81.4288 151.118 81.4987 151.007 81.5468C151.091 81.6214 151.144 81.7238 151.158 81.835C151.171 81.9461 151.144 82.0583 151.081 82.1508C150.953 82.3287 150.785 82.4735 150.59 82.5731C150.633 82.5989 150.671 82.633 150.701 82.6735C150.731 82.714 150.753 82.7601 150.764 82.809C150.776 82.8579 150.778 82.9088 150.77 82.9585C150.762 83.0082 150.744 83.0559 150.718 83.0986C150.6 83.269 150.426 83.3925 150.227 83.4472C150.142 83.4653 150.065 83.5121 150.011 83.5798C149.927 83.7222 150.065 83.899 150.05 84.0709C150.025 84.3213 149.682 84.4196 149.593 84.6504C149.505 84.8812 149.652 85.1414 149.5 85.3035C149.348 85.4655 149.235 85.4017 149.097 85.4606C148.862 85.5637 148.773 85.8437 148.606 86.0597C148.298 86.4452 147.869 86.7152 147.388 86.8258C147.153 86.9044 146.897 86.9731 146.671 87.0369C146.18 87.1597 145.689 87.253 145.198 87.3414C144.953 87.3905 144.653 87.4151 144.511 87.2137C144.426 87.3147 144.319 87.3947 144.198 87.4474C144.077 87.5 143.945 87.524 143.813 87.5173C143.682 87.5106 143.553 87.4736 143.438 87.409C143.323 87.3444 143.225 87.254 143.15 87.145C142.701 87.2403 142.233 87.1833 141.82 86.9829L141.373 86.8258C140.931 86.6637 140.435 86.4575 140.278 86.0155C140.139 85.9956 140.006 85.9454 139.889 85.8683C139.772 85.7912 139.673 85.6892 139.6 85.5696C139.527 85.45 139.481 85.3157 139.466 85.1764C139.45 85.037 139.466 84.8959 139.512 84.7633C139.32 84.837 139.119 84.6504 139.075 84.449C139.054 84.2455 139.066 84.04 139.109 83.8401C139.202 83.0151 138.716 82.2147 138.77 81.3848C138.814 80.8053 139.119 80.216 138.912 79.6709C138.859 79.563 138.824 79.4467 138.809 79.3272C138.809 79.2093 138.912 79.0767 139.03 79.1062C138.995 79.0251 138.981 78.9366 138.989 78.8486C138.996 78.7605 139.026 78.6759 139.075 78.6022C139.123 78.5285 139.19 78.4682 139.268 78.4267C139.346 78.3852 139.433 78.3639 139.521 78.3647" fill="#263238"/>
<path d="M145.787 77.9915C145.694 77.9915 145.719 78.625 145.188 79.0964C144.658 79.5678 143.985 79.5285 143.98 79.6169C143.975 79.7053 144.137 79.7348 144.422 79.7299C144.796 79.7214 145.154 79.5804 145.434 79.3321C145.701 79.0957 145.867 78.7648 145.895 78.4089C145.91 78.1388 145.832 77.9866 145.787 77.9915Z" fill="white"/>
<path d="M140.616 85.2888C140.471 85.2648 140.337 85.192 140.238 85.0825C139.991 84.8323 139.812 84.5229 139.718 84.1839C139.613 83.8519 139.562 83.5055 139.566 83.1575C139.555 83.0146 139.574 82.871 139.62 82.7352C139.62 83.2134 139.686 83.6894 139.816 84.1495C139.914 84.4744 140.082 84.7743 140.307 85.0285C140.402 85.1248 140.505 85.212 140.616 85.2888Z" fill="#455A64"/>
<path d="M141.162 85.112C141.045 85.0745 140.94 85.0106 140.852 84.9254C140.628 84.7393 140.447 84.5063 140.322 84.2428C140.198 83.9767 140.132 83.6869 140.13 83.3932C140.121 83.2732 140.138 83.1527 140.179 83.0397C140.187 83.1574 140.187 83.2755 140.179 83.3932C140.207 83.6718 140.28 83.9439 140.396 84.1986C140.52 84.4492 140.686 84.6767 140.887 84.8714C141.083 85.0236 141.171 85.0972 141.162 85.112Z" fill="#455A64"/>
<path d="M143.97 85.6129C143.851 85.5225 143.75 85.411 143.671 85.2839C143.468 84.9857 143.321 84.6528 143.239 84.3017C143.158 83.9488 143.146 83.5836 143.204 83.2263C143.223 83.0777 143.266 82.9333 143.332 82.7991C143.325 82.9458 143.306 83.0919 143.278 83.2361C143.241 83.5843 143.263 83.9361 143.342 84.2772C143.416 84.6246 143.549 84.9568 143.735 85.2593C143.82 85.3727 143.899 85.4907 143.97 85.6129Z" fill="#455A64"/>
<path d="M144.638 85.5294C144.346 85.2934 144.13 84.9753 144.02 84.616C143.879 84.2672 143.842 83.8855 143.912 83.516C143.941 83.8773 144.008 84.2345 144.113 84.5816C144.253 84.916 144.429 85.2338 144.638 85.5294Z" fill="#455A64"/>
<path d="M153.188 74.9813L154.411 70.8121C154.411 70.8121 154.091 68.6956 153.699 66.6478C153.306 64.6001 152.044 63.8733 152.044 63.8733C152.38 63.7412 152.66 63.4957 152.835 63.1792C153.01 62.8627 153.069 62.4951 153.001 62.1398C152.839 60.7746 149.353 60.9072 147.708 60.9318C147.218 60.9462 146.738 61.068 146.301 61.2887C145.864 61.5093 145.481 61.8234 145.179 62.2086C144.077 62.5033 143.049 63.0234 142.159 63.736C141.269 64.4485 140.536 65.3381 140.008 66.3483C139.849 66.3481 139.693 66.3848 139.552 66.4556C139.41 66.5263 139.287 66.6292 139.192 66.7559C139.192 66.7559 138.701 67.3893 139.232 67.8018C139.232 67.8018 144.27 67.3501 148.238 68.9706C152.206 70.5911 152.628 72.7665 152.628 72.7665L153.188 74.9813Z" fill="#455A64"/>
<path d="M151.616 62.3117C151.371 62.5544 151.064 62.7244 150.728 62.8028C149.929 63.0257 149.096 63.0924 148.272 62.9992C147.468 62.912 146.657 62.9022 145.851 62.9697C145.237 63.0434 144.869 63.2054 144.869 63.1662C145.149 62.9572 145.48 62.8267 145.827 62.788C146.64 62.6673 147.465 62.6524 148.282 62.7438C149.082 62.8291 149.89 62.791 150.678 62.6309C151.273 62.4983 151.592 62.2724 151.616 62.3117Z" fill="#263238"/>
<path d="M152.697 63.4019C152.746 63.451 152.471 63.7309 152.024 63.7063C151.577 63.6818 151.332 63.3871 151.386 63.3429C151.44 63.2987 151.695 63.4362 152.039 63.451C152.383 63.4657 152.653 63.343 152.697 63.4019Z" fill="#263238"/>
<path d="M139.079 67.3697C138.778 67.4208 138.504 67.5754 138.304 67.8068C138.206 67.9232 138.147 68.0673 138.136 68.2188C138.124 68.3703 138.161 68.5216 138.24 68.6514C138.38 68.7986 138.531 68.9349 138.691 69.059C139.03 69.4126 139.03 70.0411 139.448 70.2916C139.539 70.3422 139.641 70.3709 139.745 70.3755C139.849 70.3801 139.953 70.3604 140.048 70.318C140.143 70.2757 140.227 70.2117 140.293 70.1313C140.36 70.0508 140.406 69.9561 140.43 69.8545C140.62 70.0287 140.865 70.1305 141.123 70.1421C141.381 70.1538 141.634 70.0746 141.839 69.9184C142.239 69.591 142.529 69.1487 142.669 68.6514C143.014 68.7204 143.372 68.6828 143.695 68.5434C143.773 68.5051 143.841 68.4507 143.895 68.3838C143.949 68.3169 143.988 68.2391 144.01 68.1556C144.031 68.0722 144.034 67.9851 144.019 67.9003C144.004 67.8156 143.971 67.7351 143.921 67.6644C143.799 67.5603 143.649 67.4952 143.489 67.4778C142.004 67.1491 140.467 67.1241 138.971 67.4041" fill="#263238"/>
<path d="M150.86 70.375C150.423 70.6451 150.369 70.9741 150.472 71.4799C150.605 71.9765 150.837 72.4409 151.155 72.8451C151.024 72.8664 150.9 72.9196 150.795 73.0001C150.689 73.0807 150.606 73.186 150.551 73.3067C150.441 73.5485 150.374 73.8078 150.354 74.0728C150.252 74.5754 150.288 75.0963 150.457 75.5803C150.505 75.7796 150.617 75.9578 150.776 76.0879C150.934 76.2179 151.131 76.2928 151.336 76.3011C151.54 76.3094 151.742 76.2508 151.911 76.134C152.079 76.0172 152.205 75.8487 152.269 75.654C152.372 75.3874 152.438 75.1083 152.466 74.8241C152.476 74.8732 152.498 74.9194 152.528 74.9595C152.558 74.9995 152.597 75.0324 152.642 75.0558C152.686 75.0792 152.735 75.0926 152.786 75.095C152.836 75.0974 152.886 75.0887 152.932 75.0696C153.025 75.025 153.104 74.9554 153.159 74.8687C153.215 74.782 153.245 74.6815 153.247 74.5786C153.247 74.3723 153.211 74.1677 153.139 73.9745C152.944 73.2695 152.681 72.5853 152.353 71.9317C152.023 71.2798 151.511 70.7374 150.88 70.3701" fill="#263238"/>
<path d="M153.988 72.246C153.988 72.246 153.949 72.0103 153.846 71.5978C153.702 71.0162 153.441 70.4698 153.08 69.992C152.521 69.297 151.874 68.678 151.155 68.1505C150.713 67.8659 150.252 67.6131 149.775 67.3943C149.278 67.1267 148.755 66.9128 148.213 66.7559C146.301 66.1986 144.309 65.9711 142.32 66.0831C141.559 66.1224 140.941 66.201 140.518 66.2599C140.299 66.3077 140.075 66.334 139.85 66.3385C140.06 66.2567 140.277 66.1975 140.499 66.1617C141.097 66.0377 141.702 65.9508 142.311 65.9014C144.326 65.7328 146.356 65.9392 148.297 66.5104C148.854 66.6724 149.392 66.893 149.903 67.1684C150.39 67.3955 150.86 67.6599 151.307 67.959C152.04 68.5062 152.691 69.1543 153.242 69.884C153.602 70.3894 153.847 70.9678 153.959 71.5782C153.988 71.7404 154.007 71.9045 154.013 72.0693C154.003 72.1871 153.998 72.246 153.988 72.246Z" fill="#263238"/>
<path d="M150.674 70.3259C150.792 69.9329 150.876 69.5303 150.924 69.1228C150.968 68.4451 150.85 67.8951 150.924 67.8755C151.165 68.251 151.257 68.7024 151.184 69.1424C151.17 69.4559 151.088 69.7626 150.944 70.0411C150.821 70.2522 150.698 70.3455 150.674 70.3259Z" fill="#263238"/>
<path d="M152.378 71.9366C152.353 71.9072 152.446 71.809 152.535 71.6224C152.646 71.3749 152.717 71.1114 152.746 70.8416C152.785 70.5076 152.859 70.213 152.878 70.0068C152.898 69.8005 152.913 69.6581 152.947 69.6532C152.982 69.6483 153.04 69.7759 153.06 70.0068C153.07 70.2979 153.048 70.5893 152.996 70.8759C152.969 71.1797 152.862 71.4708 152.687 71.7206C152.515 71.9121 152.378 71.9661 152.378 71.9366Z" fill="#263238"/>
<path d="M148.37 69.0541C148.255 68.68 148.272 68.2776 148.42 67.9148C148.596 67.301 148.911 66.8885 148.984 66.9327C148.915 67.2964 148.808 67.6519 148.665 67.9934C148.603 68.3559 148.504 68.7113 148.37 69.0541Z" fill="#263238"/>
<path d="M144.977 68.0081C144.908 68.0081 144.899 67.517 145.129 66.9719C145.36 66.4268 145.719 66.0929 145.768 66.1371C145.817 66.1813 145.581 66.5644 145.365 67.0702C145.149 67.576 145.051 68.0179 144.977 68.0081Z" fill="#263238"/>
<path d="M141.874 67.738C141.805 67.738 141.77 67.3059 141.923 66.8001C142.075 66.2943 142.335 65.9456 142.414 65.98C142.492 66.0144 142.325 66.3974 142.188 66.8688C142.05 67.3402 141.947 67.7429 141.874 67.738Z" fill="#263238"/>
<path d="M143.484 89.8066C143.484 89.8066 141.117 97.8552 140.97 101.062C140.823 104.269 141.407 117.115 141.407 117.115C141.407 117.115 142.36 122.517 141.991 123.533C141.623 124.55 139.659 129.809 139.732 132.726H146.514C146.514 132.726 152.854 132.186 158.919 131.994C162.356 131.886 165.627 134.037 165.627 134.037C166.335 130.818 166.335 127.484 165.627 124.265C164.908 120.448 164.615 116.562 164.752 112.681C164.88 113.373 166.594 105.84 164.217 92.645C163.593 89.2075 161.894 85.5097 158.467 85.2789L152.083 85.3772L143.484 89.8066Z" fill="#F86241"/>
<path d="M157.956 83.516C157.956 83.516 154.479 83.516 152.785 86.0008C151.091 88.4856 150.222 91.049 150.949 95.4195C151.307 97.6826 152.391 99.768 154.037 101.361L152.746 93.3717C152.746 93.3717 152.839 86.0401 157.701 85.6571L162.204 86.9584C161.988 85.8486 160.726 84.0365 157.956 83.516Z" fill="#455A64"/>
<path d="M141.78 119.438C141.78 119.438 140.798 119.983 140.95 121.603C141 122.474 141.269 123.319 141.731 124.059C141.731 124.059 142.448 122.924 144.54 122.364C146.412 121.917 148.339 121.742 150.261 121.844C151.489 121.908 155.943 123.067 155.943 123.067L157.072 115.416C157.072 115.416 149.402 117.292 146.883 118.063C144.363 118.834 141.78 119.438 141.78 119.438Z" fill="#263238"/>
<path d="M142.36 90.3713C140.43 89.512 139.305 90.8231 139.163 91.1374C139.03 91.4586 138.957 91.8014 138.947 92.149C138.701 95.3115 139.929 103.051 140.867 106.081L141.235 90.9312L142.36 90.3713Z" fill="#455A64"/>
<path d="M141.039 99.1172C144.231 96.9762 150.978 96.7847 151.351 97.153L150.909 95.1887C149.082 95.218 147.258 95.3425 145.444 95.5619C142.139 95.9007 141.427 96.544 141.22 96.8485C141.16 96.9462 141.113 97.052 141.083 97.1628L141.039 99.1172Z" fill="#263238"/>
<path d="M140.945 102.903C140.982 103.119 140.997 103.338 140.99 103.556C140.99 104.028 141.004 104.622 141.034 105.339C141.068 106.842 141.127 108.919 141.24 111.232C141.353 113.545 141.491 115.602 141.589 117.125C141.633 117.837 141.667 118.431 141.697 118.902C141.72 119.121 141.72 119.342 141.697 119.56C141.642 119.348 141.608 119.131 141.594 118.912C141.54 118.495 141.476 117.886 141.402 117.135C141.26 115.637 141.093 113.56 140.98 111.266C140.867 108.973 140.832 106.886 140.847 105.373C140.847 104.622 140.847 104.008 140.887 103.591C140.877 103.36 140.897 103.129 140.945 102.903Z" fill="#263238"/>
<path d="M144.521 128.498C144.438 128.191 144.404 127.873 144.422 127.555C144.415 126.025 144.707 124.509 145.282 123.091C145.38 122.789 145.528 122.506 145.719 122.252C145.792 122.281 145.228 123.597 144.884 125.331C144.54 127.064 144.609 128.473 144.521 128.498Z" fill="#263238"/>
<path d="M146.912 130.855C146.75 130.442 146.634 130.012 146.568 129.573C146.356 128.528 146.209 127.47 146.126 126.406C146.04 125.341 146.022 124.271 146.072 123.204C146.07 122.76 146.118 122.317 146.215 121.883C146.265 122.323 146.278 122.767 146.254 123.209C146.254 124.024 146.283 125.173 146.382 126.386C146.48 127.599 146.622 128.739 146.745 129.544C146.838 129.975 146.894 130.414 146.912 130.855Z" fill="#263238"/>
<path d="M148.518 108.963C148.671 109.349 148.793 109.746 148.881 110.152C149.087 110.888 149.372 111.895 149.785 112.995C150.197 114.095 150.59 115.062 150.899 115.76C151.098 116.127 151.262 116.511 151.391 116.909C151.136 116.579 150.924 116.22 150.757 115.838C150.301 114.945 149.902 114.023 149.564 113.078C149.225 112.136 148.944 111.173 148.724 110.196C148.604 109.795 148.535 109.381 148.518 108.963Z" fill="#263238"/>
<path d="M153.173 108.659C153.284 109.021 153.348 109.395 153.365 109.773C153.438 110.466 153.507 111.428 153.522 112.494C153.536 113.56 153.492 114.527 153.433 115.219C153.427 115.598 153.373 115.974 153.271 116.339C153.232 115.964 153.232 115.585 153.271 115.21C153.271 114.517 153.301 113.555 153.271 112.499C153.242 111.443 153.217 110.481 153.188 109.788C153.146 109.413 153.141 109.035 153.173 108.659Z" fill="#263238"/>
<path d="M143.538 102.476C143.283 101.785 143.163 101.052 143.185 100.315C143.125 99.5803 143.205 98.8405 143.421 98.1351C143.499 98.1351 143.421 99.1173 143.421 100.306C143.421 101.494 143.622 102.447 143.538 102.476Z" fill="#263238"/>
<g opacity="0.3">
<path d="M149.083 109.739C149.019 112.317 150.742 115.632 151.356 116.879L152.594 116.531C152.109 113.973 150.889 111.613 149.083 109.739Z" fill="black"/>
</g>
<g opacity="0.3">
<path d="M146.22 122.03L145.812 122.084C144.871 123.897 144.484 125.946 144.697 127.977C144.736 128.223 144.825 128.508 145.061 128.581C145.296 128.655 145.591 128.385 145.694 128.09C145.864 127.512 145.914 126.906 145.841 126.308C145.729 124.871 145.857 123.425 146.22 122.03Z" fill="black"/>
</g>
<g opacity="0.3">
<path d="M150.963 96.9124C151.183 98.6069 151.971 100.177 153.198 101.366C153.723 101.857 153.743 102.697 153.762 103.429C153.789 104.705 153.908 105.977 154.121 107.235C154.143 107.632 154.307 108.008 154.582 108.295C155.123 108.742 155.933 108.398 156.547 108.04C156.461 106.552 156.249 105.073 155.913 103.62C155.574 102.16 154.871 100.808 153.87 99.6918L151.189 96.8731" fill="black"/>
</g>
<path d="M154.882 96.9762C154.916 97.2414 157.239 114.277 157.239 114.277L154.037 137.627L159.002 138.388C159.002 138.388 166.859 119.644 166.692 116.29C166.525 112.936 164.772 96.9811 164.772 96.9811C164.772 96.9811 163.009 85.9272 159.645 86.0057C156.282 86.0843 153.978 89.8655 154.882 96.9762Z" fill="#FFBE9D"/>
<path d="M157.544 85.5294C157.544 85.5294 154.524 87.0026 153.561 90.0865C152.599 93.1704 155.211 107.416 155.211 107.416L167.286 104.858C167.286 104.858 164.59 83.0397 157.544 85.5294Z" fill="#F86241"/>
<path d="M154.096 137.229L151.336 142.184L150.875 147.163C150.875 147.163 152.196 147.591 152.22 146.53C152.22 146.53 152.765 147.247 153.203 147.075C153.49 146.939 153.729 146.72 153.89 146.446C153.89 146.446 154.15 147.247 154.808 147.016C155.466 146.785 155.52 146.525 155.55 146.387C155.579 146.25 155.982 146.53 156.439 146.333C156.567 146.279 156.677 146.187 156.753 146.07C156.829 145.952 156.868 145.815 156.866 145.675C156.866 145.675 157.612 145.818 157.848 145.617C158.029 145.407 158.166 145.163 158.251 144.9C158.251 144.9 158.678 143.642 158.536 143.426C158.393 143.21 157.995 143.225 157.995 143.225L158.049 142.567C158.45 141.886 158.779 141.165 159.032 140.416C159.12 139.851 159.032 137.357 159.032 137.357L154.096 137.229Z" fill="#FFBE9D"/>
<path d="M151.091 144.286C151.394 144.616 151.633 145.001 151.793 145.42C152.036 145.8 152.202 146.224 152.284 146.667C151.981 146.337 151.743 145.952 151.582 145.533C151.34 145.153 151.173 144.729 151.091 144.286Z" fill="#723C31"/>
<path d="M152.721 143.971C152.97 144.4 153.186 144.847 153.37 145.307C153.623 145.733 153.847 146.176 154.037 146.633C153.637 146.315 153.327 145.896 153.139 145.42C152.876 144.982 152.732 144.482 152.721 143.971Z" fill="#723C31"/>
<path d="M154.258 144.188C154.531 144.545 154.76 144.934 154.941 145.346C155.197 145.72 155.405 146.124 155.56 146.55C155.194 146.265 154.906 145.894 154.72 145.469C154.459 145.089 154.3 144.647 154.258 144.188Z" fill="#723C31"/>
<path d="M155.56 143.412C156.042 144.17 156.476 144.957 156.861 145.769C156.187 145.142 155.731 144.316 155.56 143.412Z" fill="#723C31"/>
<path d="M157.367 144.649C157.298 144.649 157.332 144.246 157.514 143.804C157.696 143.362 157.951 143.073 158.005 143.107C158.059 143.142 157.922 143.49 157.745 143.908C157.568 144.325 157.436 144.679 157.367 144.649Z" fill="#723C31"/>
<path d="M152.869 94.7762C152.904 94.8555 152.925 94.9402 152.932 95.0266L153.065 95.7485C153.193 96.4115 153.36 97.3101 153.556 98.4003C153.998 100.674 154.597 103.743 155.26 107.141C155.26 107.225 155.294 107.313 155.309 107.387L155.162 107.289C158.526 106.66 161.546 106.056 163.736 105.604L166.314 105.049L167.016 104.897C167.096 104.875 167.179 104.862 167.262 104.858C167.188 104.9 167.109 104.929 167.026 104.946C166.869 104.995 166.638 105.064 166.339 105.143C165.735 105.31 164.865 105.526 163.775 105.776C161.6 106.267 158.575 106.906 155.206 107.539L155.083 107.564L155.059 107.441L155.01 107.19C154.332 103.753 153.757 100.684 153.379 98.4297C153.188 97.3052 153.045 96.3967 152.962 95.7632C152.918 95.444 152.893 95.1985 152.878 95.0315C152.865 94.9471 152.862 94.8614 152.869 94.7762Z" fill="#263238"/>
<path d="M188.225 15.1495C188.225 15.1495 188.039 15.3655 187.705 15.7486C187.236 16.2855 186.812 16.8604 186.438 17.4673C185.194 19.4755 184.543 21.7937 184.557 24.1556V24.2391H184.326C183.967 21.9213 182.891 19.7744 181.247 18.1008C180.557 17.4262 179.805 16.8164 179.003 16.2789L179.185 16.3624C179.303 16.4311 179.48 16.5146 179.676 16.657C180.282 17.0375 180.843 17.4838 181.35 17.9878C183.06 19.6598 184.18 21.8415 184.542 24.2048H184.312V24.1164C184.289 21.7139 184.972 19.3577 186.276 17.3396C186.666 16.7325 187.115 16.1651 187.617 15.6454C187.788 15.4588 187.941 15.3312 188.039 15.2379C188.137 15.1445 188.225 15.1445 188.225 15.1495Z" fill="#263238"/>
<path d="M217.837 43.1355C217.837 43.1355 217.434 42.9931 216.688 42.8261C215.631 42.5992 214.543 42.5576 213.472 42.7033C211.883 42.9145 210.383 43.5621 209.14 44.5743C207.618 45.8137 206.543 47.5179 206.081 49.4261V49.4801L205.988 49.8287L205.855 49.4997C205.111 47.6902 203.835 46.149 202.197 45.0801C200.856 44.2145 199.316 43.7073 197.723 43.6069C196.65 43.5314 195.572 43.6309 194.531 43.9015C193.794 44.0931 193.402 44.2649 193.392 44.2453C193.48 44.1908 193.574 44.1464 193.672 44.1127C193.943 43.9945 194.222 43.8945 194.506 43.8132C195.811 43.4319 197.182 43.3332 198.527 43.5238C199.873 43.7143 201.162 44.1896 202.31 44.9181C203.997 46.0002 205.311 47.576 206.071 49.431H205.85V49.377C206.323 47.4189 207.43 45.6719 208.998 44.4073C210.276 43.3798 211.818 42.7331 213.447 42.5413C214.535 42.4042 215.639 42.4708 216.703 42.7377C216.991 42.81 217.275 42.9002 217.552 43.0078C217.653 43.037 217.749 43.0799 217.837 43.1355Z" fill="#263238"/>
<path d="M240.475 32.5677C240.282 32.811 240.075 33.0437 239.857 33.265C239.3 33.9028 238.796 34.5843 238.349 35.303C236.87 37.6809 236.094 40.4286 236.11 43.2288V43.3319H235.879C235.641 41.8251 235.142 40.3711 234.406 39.0351C233.404 37.2053 231.994 35.6308 230.286 34.4338C229.795 34.0949 229.515 33.9427 229.524 33.9083C229.534 33.8739 229.603 33.9378 229.74 34.0114C229.878 34.0851 230.084 34.1882 230.335 34.3601C231.043 34.8164 231.702 35.3465 232.299 35.9413C233.2 36.8224 233.967 37.8298 234.578 38.932C235.322 40.289 235.821 41.7669 236.051 43.2975H235.815V43.1944C235.792 40.3509 236.603 37.563 238.148 35.1753C238.629 34.4668 239.178 33.8073 239.788 33.2061C239.989 32.9802 240.171 32.8329 240.279 32.715C240.337 32.6573 240.403 32.6077 240.475 32.5677Z" fill="#263238"/>
</g>
<defs>
<clipPath id="clip0_16_593">
<rect width="345" height="203.661" fill="white" transform="translate(0.5)"/>
</clipPath>
</defs>
</svg>
