<svg width="402" height="874" viewBox="0 0 402 874" fill="none" xmlns="http://www.w3.org/2000/svg">
<rect width="402" height="874" fill="#FBFEFE"/>
<path fill-rule="evenodd" clip-rule="evenodd" d="M201.207 377.094C187.941 377.094 177.145 388.106 177.145 401.703C177.145 405.742 179.197 410.659 182.197 415.515C188.761 426.143 199.694 436.641 199.694 436.641C200.539 437.453 201.876 437.453 202.721 436.641C202.721 436.641 213.654 426.143 220.218 415.515C223.218 410.659 225.27 405.742 225.27 401.703C225.27 388.106 214.474 377.094 201.207 377.094ZM201.207 392.406C206.036 392.406 209.957 396.327 209.957 401.156C209.957 405.985 206.036 409.906 201.207 409.906C196.379 409.906 192.457 405.985 192.457 401.156C192.457 398.742 193.437 396.555 195.022 394.971C196.606 393.386 198.794 392.406 201.207 392.406Z" fill="#FF5733"/>
<path fill-rule="evenodd" clip-rule="evenodd" d="M230.565 435.128C230.472 435.229 229.192 436.125 228.465 436.461C223.357 438.824 213.058 440.531 201.207 440.531C189.357 440.531 179.058 438.824 173.95 436.461C173.222 436.125 172.616 435.782 172.158 435.422C172.056 435.341 171.942 435.229 171.849 435.128C172.109 434.936 172.554 434.627 172.968 434.439C175.323 433.363 179.259 432.544 184.19 431.82C185.385 431.645 186.213 430.533 186.038 429.339C185.862 428.144 184.751 427.316 183.556 427.491C177.082 428.441 172.166 429.675 169.784 431.191C168.03 432.307 167.301 433.69 167.301 435.062C167.301 436 167.639 436.962 168.417 437.877C169.158 438.748 170.396 439.638 172.113 440.432C177.568 442.956 188.549 444.906 201.207 444.906C213.865 444.906 224.847 442.956 230.301 440.432C232.019 439.638 233.257 438.748 233.998 437.877C234.776 436.962 235.113 436 235.113 435.062C235.113 433.696 234.393 432.322 232.657 431.21C230.309 429.705 225.461 428.475 219.063 427.521C217.869 427.343 216.754 428.168 216.576 429.362C216.398 430.557 217.223 431.671 218.417 431.848C223.282 432.573 227.161 433.388 229.479 434.456C229.879 434.64 230.31 434.94 230.565 435.128Z" fill="#FF5733"/>
<path d="M142.989 490V464.635H145.379V487.838H158.071V490H142.989ZM167.616 490.334C165.963 490.322 164.51 489.936 163.256 489.174C162.002 488.4 161.024 487.305 160.321 485.887C159.629 484.469 159.284 482.793 159.284 480.859V480.824C159.284 478.891 159.629 477.221 160.321 475.814C161.024 474.396 162.002 473.307 163.256 472.545C164.51 471.771 165.957 471.385 167.598 471.385C169.262 471.385 170.715 471.771 171.957 472.545C173.211 473.307 174.19 474.391 174.893 475.797C175.596 477.203 175.948 478.879 175.948 480.824V480.859C175.948 482.805 175.596 484.486 174.893 485.904C174.19 487.311 173.217 488.4 171.975 489.174C170.733 489.947 169.28 490.334 167.616 490.334ZM167.633 488.26C168.829 488.26 169.872 487.967 170.762 487.381C171.653 486.795 172.344 485.945 172.836 484.832C173.329 483.719 173.575 482.395 173.575 480.859V480.824C173.575 479.277 173.329 477.953 172.836 476.852C172.344 475.75 171.647 474.912 170.745 474.338C169.854 473.752 168.805 473.459 167.598 473.459C166.415 473.459 165.377 473.752 164.487 474.338C163.596 474.924 162.899 475.768 162.395 476.869C161.903 477.971 161.657 479.289 161.657 480.824V480.859C161.657 482.395 161.903 483.719 162.395 484.832C162.899 485.945 163.596 486.795 164.487 487.381C165.377 487.967 166.426 488.26 167.633 488.26ZM186.442 490.334C184.754 490.334 183.284 489.947 182.03 489.174C180.788 488.389 179.827 487.287 179.147 485.869C178.467 484.451 178.127 482.775 178.127 480.842V480.824C178.127 478.902 178.467 477.238 179.147 475.832C179.838 474.414 180.805 473.318 182.047 472.545C183.301 471.771 184.754 471.385 186.407 471.385C187.836 471.385 189.079 471.66 190.133 472.211C191.2 472.762 192.049 473.482 192.682 474.373C193.327 475.264 193.731 476.236 193.895 477.291L193.913 477.449H191.645L191.61 477.291C191.352 476.225 190.778 475.322 189.887 474.584C189.008 473.834 187.848 473.459 186.407 473.459C185.223 473.459 184.186 473.764 183.295 474.373C182.416 474.971 181.731 475.826 181.239 476.939C180.747 478.041 180.5 479.348 180.5 480.859V480.877C180.5 482.412 180.747 483.73 181.239 484.832C181.731 485.934 182.422 486.783 183.313 487.381C184.215 487.967 185.258 488.26 186.442 488.26C187.813 488.26 188.944 487.908 189.834 487.205C190.737 486.49 191.329 485.564 191.61 484.428L191.645 484.27H193.93L193.895 484.41C193.719 485.547 193.291 486.561 192.612 487.451C191.944 488.342 191.082 489.045 190.028 489.561C188.973 490.076 187.778 490.334 186.442 490.334ZM202.245 490.334C201.049 490.334 199.995 490.111 199.081 489.666C198.166 489.209 197.452 488.576 196.936 487.768C196.432 486.947 196.18 486.004 196.18 484.938V484.902C196.18 483.859 196.432 482.963 196.936 482.213C197.452 481.463 198.196 480.871 199.168 480.438C200.153 479.992 201.342 479.729 202.737 479.646L209.592 479.207V481.018L203.018 481.457C201.588 481.562 200.481 481.914 199.696 482.512C198.922 483.098 198.536 483.895 198.536 484.902V484.938C198.536 485.945 198.922 486.76 199.696 487.381C200.469 487.99 201.471 488.295 202.702 488.295C203.78 488.295 204.747 488.072 205.602 487.627C206.469 487.17 207.155 486.549 207.659 485.764C208.174 484.979 208.432 484.1 208.432 483.127V477.695C208.432 476.371 208.034 475.334 207.237 474.584C206.452 473.834 205.344 473.459 203.915 473.459C202.59 473.459 201.506 473.758 200.663 474.355C199.831 474.953 199.315 475.773 199.116 476.816L199.081 476.992H196.848L196.866 476.781C196.983 475.727 197.34 474.795 197.938 473.986C198.536 473.178 199.344 472.545 200.364 472.088C201.383 471.619 202.579 471.385 203.95 471.385C205.344 471.385 206.545 471.637 207.553 472.141C208.573 472.633 209.358 473.336 209.909 474.25C210.471 475.164 210.752 476.242 210.752 477.484V490H208.432V486.643H208.379C208.051 487.381 207.577 488.025 206.956 488.576C206.334 489.127 205.62 489.561 204.811 489.877C204.002 490.182 203.147 490.334 202.245 490.334ZM217.221 490V466.797H208.836V464.635H227.997V466.797H219.612V490H217.221ZM226.854 490V471.719H229.174V475.006H229.227C229.555 473.881 230.106 472.996 230.879 472.352C231.665 471.707 232.614 471.385 233.727 471.385C234.032 471.385 234.313 471.408 234.571 471.455C234.829 471.502 235.028 471.549 235.168 471.596V473.863C235.016 473.793 234.788 473.734 234.483 473.688C234.178 473.629 233.821 473.6 233.411 473.6C232.555 473.6 231.805 473.811 231.161 474.232C230.528 474.643 230.036 475.229 229.684 475.99C229.344 476.752 229.174 477.648 229.174 478.68V490H226.854ZM237.858 490V471.719H240.178V490H237.858ZM239.018 468.414C238.596 468.414 238.233 468.268 237.928 467.975C237.635 467.67 237.489 467.301 237.489 466.867C237.489 466.445 237.635 466.088 237.928 465.795C238.233 465.49 238.596 465.338 239.018 465.338C239.452 465.338 239.815 465.49 240.108 465.795C240.413 466.088 240.565 466.445 240.565 466.867C240.565 467.301 240.413 467.67 240.108 467.975C239.815 468.268 239.452 468.414 239.018 468.414ZM244.362 496.152V471.719H246.682V475.604H246.735C247.075 474.771 247.543 474.039 248.141 473.406C248.739 472.773 249.448 472.281 250.268 471.93C251.088 471.566 251.985 471.385 252.957 471.385C254.504 471.385 255.858 471.777 257.018 472.562C258.178 473.348 259.081 474.449 259.725 475.867C260.381 477.285 260.709 478.949 260.709 480.859V480.877C260.709 482.787 260.381 484.451 259.725 485.869C259.081 487.275 258.178 488.371 257.018 489.156C255.87 489.941 254.528 490.334 252.993 490.334C252.02 490.334 251.118 490.158 250.286 489.807C249.465 489.455 248.75 488.969 248.141 488.348C247.543 487.715 247.075 486.988 246.735 486.168H246.682V496.152H244.362ZM252.553 488.26C253.725 488.26 254.745 487.955 255.612 487.346C256.479 486.736 257.153 485.881 257.633 484.779C258.114 483.666 258.354 482.365 258.354 480.877V480.859C258.354 479.348 258.114 478.041 257.633 476.939C257.153 475.826 256.479 474.971 255.612 474.373C254.745 473.764 253.725 473.459 252.553 473.459C251.405 473.459 250.385 473.77 249.495 474.391C248.616 475 247.924 475.861 247.42 476.975C246.916 478.076 246.665 479.371 246.665 480.859V480.877C246.665 482.342 246.916 483.631 247.42 484.744C247.924 485.857 248.616 486.725 249.495 487.346C250.385 487.955 251.405 488.26 252.553 488.26Z" fill="#591E12"/>
</svg>
